<mxfile host="app.diagrams.net" modified="2020-09-16T12:28:05.356Z" agent="5.0 (Macintosh; Intel Mac OS X 10_15_6) AppleWebKit/537.36 (KHTML, like Gecko) Chrome/85.0.4183.102 Safari/537.36" etag="rAkQFHAJC_ZQSxvsaDwZ" version="13.7.1" type="github">
  <diagram id="VuFvmxC0dMJRC5mXYD_n" name="第 1 页">
    <mxGraphModel dx="2253" dy="642" grid="1" gridSize="10" guides="1" tooltips="1" connect="1" arrows="1" fold="1" page="1" pageScale="1" pageWidth="827" pageHeight="1169" math="0" shadow="0">
      <root>
        <mxCell id="0" />
        <mxCell id="1" parent="0" />
        <mxCell id="_Ws0ghuLOrh_OVOcMQFG-1" value="国富论" style="rounded=0;whiteSpace=wrap;html=1;" vertex="1" parent="1">
          <mxGeometry x="66" y="370" width="120" height="60" as="geometry" />
        </mxCell>
        <mxCell id="_Ws0ghuLOrh_OVOcMQFG-2" value="现代经济学发展史" style="rounded=0;whiteSpace=wrap;html=1;" vertex="1" parent="1">
          <mxGeometry x="214" y="200" width="120" height="60" as="geometry" />
        </mxCell>
        <mxCell id="_Ws0ghuLOrh_OVOcMQFG-3" value="15-17世纪初，英国海外贸易的发展和原始的基本积累" style="text;html=1;align=center;verticalAlign=middle;resizable=0;points=[];autosize=1;" vertex="1" parent="1">
          <mxGeometry x="404" y="170" width="300" height="20" as="geometry" />
        </mxCell>
        <mxCell id="_Ws0ghuLOrh_OVOcMQFG-4" value="英国资本主义迅速发展，资本主义的发展促使资产阶级新贵族的形成" style="text;html=1;align=center;verticalAlign=middle;resizable=0;points=[];autosize=1;" vertex="1" parent="1">
          <mxGeometry x="490" y="210" width="380" height="20" as="geometry" />
        </mxCell>
        <mxCell id="_Ws0ghuLOrh_OVOcMQFG-5" value="17世纪，斯图亚特王朝厉行专制统治，经常触犯资产阶级利益" style="text;html=1;align=center;verticalAlign=middle;resizable=0;points=[];autosize=1;" vertex="1" parent="1">
          <mxGeometry x="400" y="250" width="340" height="20" as="geometry" />
        </mxCell>
        <mxCell id="_Ws0ghuLOrh_OVOcMQFG-6" value="宗教政策进一步激化了阶级矛盾" style="text;html=1;align=center;verticalAlign=middle;resizable=0;points=[];autosize=1;" vertex="1" parent="1">
          <mxGeometry x="495" y="280" width="180" height="20" as="geometry" />
        </mxCell>
        <mxCell id="_Ws0ghuLOrh_OVOcMQFG-7" value="1640年 英国爆发资产阶级革命" style="text;html=1;align=center;verticalAlign=middle;resizable=0;points=[];autosize=1;" vertex="1" parent="1">
          <mxGeometry x="395" y="310" width="180" height="20" as="geometry" />
        </mxCell>
        <mxCell id="_Ws0ghuLOrh_OVOcMQFG-8" value="新兴资产阶级推翻专制统治，英国国王查理一世被送上断头台。" style="text;html=1;align=center;verticalAlign=middle;resizable=0;points=[];autosize=1;" vertex="1" parent="1">
          <mxGeometry x="485" y="350" width="350" height="20" as="geometry" />
        </mxCell>
        <mxCell id="_Ws0ghuLOrh_OVOcMQFG-9" value="继而建立起英国资本主义制度" style="text;html=1;align=center;verticalAlign=middle;resizable=0;points=[];autosize=1;" vertex="1" parent="1">
          <mxGeometry x="490" y="390" width="170" height="20" as="geometry" />
        </mxCell>
        <mxCell id="_Ws0ghuLOrh_OVOcMQFG-10" value="1662年英国的威廉配第发表了《赋税论》开创现代经济学" style="text;html=1;align=center;verticalAlign=middle;resizable=0;points=[];autosize=1;" vertex="1" parent="1">
          <mxGeometry x="395" y="430" width="320" height="20" as="geometry" />
        </mxCell>
        <mxCell id="_Ws0ghuLOrh_OVOcMQFG-11" value="威廉配第被称为英国古典政治经济学之父，统计学创始人，最早的宏观经济学者" style="text;html=1;align=center;verticalAlign=middle;resizable=0;points=[];autosize=1;" vertex="1" parent="1">
          <mxGeometry x="440" y="460" width="440" height="20" as="geometry" />
        </mxCell>
        <mxCell id="_Ws0ghuLOrh_OVOcMQFG-12" value="也是第一个提出“劳动价值论”的思想家" style="text;html=1;align=center;verticalAlign=middle;resizable=0;points=[];autosize=1;" vertex="1" parent="1">
          <mxGeometry x="440" y="480" width="220" height="20" as="geometry" />
        </mxCell>
        <mxCell id="_Ws0ghuLOrh_OVOcMQFG-13" value="其观点影响着后来者亚当斯密、李嘉图、马克思等" style="text;html=1;align=center;verticalAlign=middle;resizable=0;points=[];autosize=1;" vertex="1" parent="1">
          <mxGeometry x="440" y="510" width="280" height="20" as="geometry" />
        </mxCell>
        <mxCell id="_Ws0ghuLOrh_OVOcMQFG-14" value="劳动价值论：即价值是一种凝结在商品中无差别的人类劳动（威廉配第版）" style="text;html=1;align=center;verticalAlign=middle;resizable=0;points=[];autosize=1;" vertex="1" parent="1">
          <mxGeometry x="539" y="550" width="410" height="20" as="geometry" />
        </mxCell>
        <mxCell id="_Ws0ghuLOrh_OVOcMQFG-15" value="他认为社会的财富来源为土地和劳动" style="text;html=1;align=center;verticalAlign=middle;resizable=0;points=[];autosize=1;" vertex="1" parent="1">
          <mxGeometry x="539" y="575" width="210" height="20" as="geometry" />
        </mxCell>
        <mxCell id="_Ws0ghuLOrh_OVOcMQFG-16" value="而课税的最终对象也只能是土地的地租及其派生收入" style="text;html=1;align=center;verticalAlign=middle;resizable=0;points=[];autosize=1;" vertex="1" parent="1">
          <mxGeometry x="539" y="610" width="290" height="20" as="geometry" />
        </mxCell>
        <mxCell id="_Ws0ghuLOrh_OVOcMQFG-17" value="他把地租看成是剩余劳动的产物，从而也是赋税的最终源泉" style="text;html=1;align=center;verticalAlign=middle;resizable=0;points=[];autosize=1;" vertex="1" parent="1">
          <mxGeometry x="535" y="640" width="330" height="20" as="geometry" />
        </mxCell>
        <mxCell id="_Ws0ghuLOrh_OVOcMQFG-18" value="所谓的“劳动是财富之父，土地是财富之母”" style="text;html=1;align=center;verticalAlign=middle;resizable=0;points=[];autosize=1;" vertex="1" parent="1">
          <mxGeometry x="540" y="670" width="240" height="20" as="geometry" />
        </mxCell>
        <mxCell id="_Ws0ghuLOrh_OVOcMQFG-19" value="1705年 法国的重农学派代表布阿吉尔贝尔发表《论财富、货币、租税的性质》批评重商主义" style="text;html=1;align=center;verticalAlign=middle;resizable=0;points=[];autosize=1;" vertex="1" parent="1">
          <mxGeometry x="404" y="710" width="500" height="20" as="geometry" />
        </mxCell>
        <mxCell id="_Ws0ghuLOrh_OVOcMQFG-20" value="这里简单说下重商主义，重商主义主要商业本位，产生并流行于15世纪至17世纪中叶的西欧" style="text;html=1;align=center;verticalAlign=middle;resizable=0;points=[];autosize=1;" vertex="1" parent="1">
          <mxGeometry x="469" y="740" width="500" height="20" as="geometry" />
        </mxCell>
        <mxCell id="_Ws0ghuLOrh_OVOcMQFG-21" value="他建立在这样一个信念上：一国的国力通过贸易的顺差，即出口额大于进口额 获取财富" style="text;html=1;align=center;verticalAlign=middle;resizable=0;points=[];autosize=1;" vertex="1" parent="1">
          <mxGeometry x="479" y="770" width="470" height="20" as="geometry" />
        </mxCell>
        <mxCell id="_Ws0ghuLOrh_OVOcMQFG-22" value="该理论认为 一国积累的金银越多，就越富强" style="text;html=1;align=center;verticalAlign=middle;resizable=0;points=[];autosize=1;" vertex="1" parent="1">
          <mxGeometry x="469" y="810" width="250" height="20" as="geometry" />
        </mxCell>
        <mxCell id="_Ws0ghuLOrh_OVOcMQFG-23" value="主张国家干预经济生活，禁止金银输出，增加金银输入" style="text;html=1;align=center;verticalAlign=middle;resizable=0;points=[];autosize=1;" vertex="1" parent="1">
          <mxGeometry x="479" y="850" width="300" height="20" as="geometry" />
        </mxCell>
        <mxCell id="_Ws0ghuLOrh_OVOcMQFG-24" value="重商主义者认为要得到这种财富 最好由政府管制农业商业制造业&lt;br&gt;发展对外贸易垄断 通过高关税率及其他贸易限制来保护国内市场" style="text;html=1;align=center;verticalAlign=middle;resizable=0;points=[];autosize=1;" vertex="1" parent="1">
          <mxGeometry x="477" y="890" width="350" height="30" as="geometry" />
        </mxCell>
        <mxCell id="_Ws0ghuLOrh_OVOcMQFG-131" value="并利用殖民地为母国的制造业提供原料和市场" style="text;html=1;align=center;verticalAlign=middle;resizable=0;points=[];autosize=1;" vertex="1" parent="1">
          <mxGeometry x="469" y="920" width="260" height="20" as="geometry" />
        </mxCell>
        <mxCell id="_Ws0ghuLOrh_OVOcMQFG-132" value="不阿吉尔贝尔 反对货币是唯一财富的重商主义观点" style="text;html=1;align=center;verticalAlign=middle;resizable=0;points=[];autosize=1;" vertex="1" parent="1">
          <mxGeometry x="469" y="940" width="280" height="20" as="geometry" />
        </mxCell>
        <mxCell id="_Ws0ghuLOrh_OVOcMQFG-133" value="与对外贸易是财富源泉的观点相反 主张农业才是创造财富的最重要源泉" style="text;html=1;align=center;verticalAlign=middle;resizable=0;points=[];autosize=1;" vertex="1" parent="1">
          <mxGeometry x="479" y="970" width="390" height="20" as="geometry" />
        </mxCell>
        <mxCell id="_Ws0ghuLOrh_OVOcMQFG-134" value="他认为法国的200对个行业组成的财富的链条，其中农业是基础，各个行业保持互相间一定比例" style="text;html=1;align=center;verticalAlign=middle;resizable=0;points=[];autosize=1;" vertex="1" parent="1">
          <mxGeometry x="469" y="1000" width="520" height="20" as="geometry" />
        </mxCell>
        <mxCell id="_Ws0ghuLOrh_OVOcMQFG-135" value="各种产品主要以小麦等农产品为依据按比例进行交换" style="text;html=1;align=center;verticalAlign=middle;resizable=0;points=[];autosize=1;" vertex="1" parent="1">
          <mxGeometry x="485" y="1030" width="290" height="20" as="geometry" />
        </mxCell>
        <mxCell id="_Ws0ghuLOrh_OVOcMQFG-136" value="如果农业遭到破坏 整个国民经济就将崩溃" style="text;html=1;align=center;verticalAlign=middle;resizable=0;points=[];autosize=1;" vertex="1" parent="1">
          <mxGeometry x="479" y="1050" width="230" height="20" as="geometry" />
        </mxCell>
        <mxCell id="_Ws0ghuLOrh_OVOcMQFG-137" value="重商主义追求货币 损坏了农业 造成法国经济的衰败" style="text;html=1;align=center;verticalAlign=middle;resizable=0;points=[];autosize=1;" vertex="1" parent="1">
          <mxGeometry x="480" y="1070" width="290" height="20" as="geometry" />
        </mxCell>
        <mxCell id="_Ws0ghuLOrh_OVOcMQFG-140" value="" style="shape=image;verticalLabelPosition=bottom;labelBackgroundColor=#ffffff;verticalAlign=top;aspect=fixed;imageAspect=0;image=data:image/png,iVBORw0KGgoAAAANSUhEUgAAAggAAAB7CAYAAAAR1XglAAAgAElEQVR4XuydBXhU1/b2f2ckbiR4gkNw9+Aa3N3dHYo7xaXFizstLqUUWgrFi7u7B0kIEOIz8z17n5lJAqHIbf+39+s5z9N7w8yZc/Z+995rvXuttddSAAvapSGgIaAhoCGgIaAhoCEQDwFFIwjafNAQ0BDQENAQ0BDQEHgXAY0gaHNCQ0BDQENAQ0BDQEPgPQQ0gqBNCg0BDQENAQ0BDQENAY0gaHNAQ0BDQENAQ0BDQEPg4whoFoSPY6TdoSGgIaAhoCGgIfCvQ0AjCP+6Idc6rCGgIaAhoCGgIfBxBDSC8HGMtDs0BDQENAQ0BDQE/nUIaAThXzfkWoc1BDQENAQ0BDQEPo6ARhA+jpF2h4aAhoCGgIaAhsC/DgGNIPzrhlzrsIaAhoCGgIaAhsDHEdAIwscx0u7QENAQ0BDQENAQ+NchoBGEf92Qax3WENAQ0BDQENAQ+DgCGkH4OEbaHRoCGgIaAhoCGgL/OgQ0gvCvG3KtwxoCGgIaAhoCGgIfR0AjCB/HSLtDQ0BDQENAQ0BD4F+HwF9CEGwPURB/gcX6v+q/bP/+38U2PkgfAkz9PA6JxHr9YbATfpMQt79kiKwj83ljoY6nxTqefz5+tjbb7lLnQNz18bkQ/wnv/lp9jq096pz6dFw+/U71Hbb5+9+ase+29+PIJN7Sz+n3393XuLb8k1r1d/dae76GwP82Av/BalXFtU9SB1q3CmD58hMEh4RZ0VBFWsqULtSqk4/VK88QHh4JmKWYV/8Tf/9DLysqsqUK+Po5kyN7Rg4cvMyAgRW5cD6IbdsuYjELVaKg11n4enx1Nqy/zukzN6z9U1WaVGUSDguKBX7aUZPvFj5k2/YzCbCKu9vCiOEFcXTMxIgRG60KOnGFKZ6fPacXY0bXpU+f9Tx59DZR5WZTMAo6smb35t69N4SHR6tK19o2mwq20zsLJE9moEKFwmzecpqoqJgPjJn6dFcnheGjK/HtN8d5+vSlve9xqv1dtRufMtjmhG0+iHsT9tl2R8GCfqRJm4ktWw9gsdjar/7OIj5459LroGGjAG7fCeH48asfZUh2iqcoVmw+Nld11jeaZXviN0H8snip1KRO7s3GTRft4y0xF5PBNlPkn4ptugB6LBYzKGKNiOcnXCvu7nry5vXl1MmHBJTKQtEivsyZfZTXr8QYmeRzatVOTYpkuVi85FfMZuvvFT2pfZ15HWri7dtIa1sTn1sStzoFuXEnlFNnbr2Hqzp6KkaSQtoeo+isFMuCq6uBpMmMpEjuiZ9fMrw8fVi27ADmeGOb2Jj9Q6WC1iwNgX8dAl9IEGziwcKQoSXo378SxQNm8va1TQYqvH4VQf1Gfsya04RyZVfzLOiNFCaCVkRHmQh6GorlH0gS9AYF7ySuuLsa8fLS0alTATp2Ls6L524EFJvB6PEFqNegED0672HZ8iMIcVi/oS/LV7WhbatfWb/+WDwSJPproWLF7FSuXJghg1by+EkHhg2/waLFv1vBMqJIZWHVLoqF69cb4OZWjtSpustnJY6TOnTFSibll58a8ep1ZnLnGU5oaPh7StCmwlIk9+DCtf7s3RNE65ZLiYyMpmHDzPTqVQMLehRM6PUeDB28nv0HrlK0hBt79vTBL+U0Xr6K+MDiUDAYFNb9UI7qNSpSqeJCbt4IwSIVh3WeWODF81cIPSWUSZxqFH/ZFGCcoo17UcJ9p/jXlKlFqRjYggL5emOx2H5rJR+JEARPDwOPnw5g90499eqP/7QFrsCC7zrSpmUZa/tUIpgYu7DpdrM5A27uJTBL0iiIiwDAwqSJRRjQvxI9ev7OgsVH0WHhRfA6XFxUpS1GV6Xaoi8mLBYjW7Y+o3HjblbOoJAkiTMuLo54eCgULerBpEktcXLWs2yBiV175vPDhmbs+9VEs2YLCI8ykTSZgTs327J7l0KDxgvs7TEaFC5dGcPlK0G0ar6UV6+jrH1KnFhdudKJLZtDGDREENWEl4ezQps22dEbTOj0OnSKDp+k3qRKlZz0GfzIni0T3t5gNj/nbXgkYWHOPHzoQokSQ7FYydGHSN2nDZJ2l4aAhsDfjcAXEgQjEIOHq45zl9qRPKkTJsUVB4SyE3LRk2nTjtG5qy9ubrFY8MBs0WEw6IgFTh1/S9lSMz7JdP13A/Du833TenLjZl+M+hh0FmER8WZI/71Mn7nfKmhh4ZKy1K1TilQpx5M7lzP7D3Xll90R1K83D5PFILGx7q+k8t+8qTy5ctYkV47+PHjUhhEjbrFwsfo8qSIsOvzS6HAwOHD7TjjXrtXD1a0cfr595bNs4lunKOik4o27xN+pU+q5fWsI48ZcYuKULe/hqlo61Hf5+eq4eusrvv3mOsOGbqZfnxyMGduA69d8MBqDyZbLzLfTDtOrf2X0vMRCJIqSkiuXXciTp0+8HbI6dXToyJnHk7NnmmOxOKAzu6Eoevk2oQLNigWLJR0Z0/bk8RNh4YhzWQhikcnfURIHmz1BbqSlZUDH9avh2JpusyBMnlKYSoHNyJ9PYGMjFdb+Wd53PKRM5cTdex3p0uYSK9buS9RhkkA9ym4pLF5SnmZNSrDzxzDMxGLUq32Kf4neC/KWJ7+JNGmK4eLc3E4QbPeJ9TBtckH69K9C4SJruHj2PiGho3n4QMfFi8/JmPktuXJk5OcfH6Mo0dSok4b1611o1qw/FmnFsHDz2mgyZBB4hqEoMez7BerWncVbqd8tlCnjxe5fezCg3zFWrd3LpfO9SZEiJRkzTeHe/RdxhEwxYHSI5enjnvxxLJaaNedjsigo7xArsasXFoQrl7uxefNLBg/9/r2+i1ner18A/frVw2RxlGMfHWUgOuYZmbM+5chhAwO/Wsqp0yHEmtTJoOKsyg5JoD5g9fm/XvPa+zQENAQSR+ALCQIY9bB9Zy1y+OenUb2FtGyXnjZtytCi4WYePg5j4vT85M6Zh4plF9OgUQoGDa9Jh7Y7OH4yiOgYE/fuhvzzxsQqkIsHpCY0OJZq1TPz9fhWeLh1JTZWKC1VAfn5OXL4WD/q11jMgCEFyZwpExXLLeHlq0hM8bSNUOY5c7px/HQbFLMTwcHhpExu5M0bPW8jBHFSePvWlUL5p7NibSVy+OcmZ/ZJXLtWH2e3snaCYANqzuxKNG2WDYuis25oVfO3eI+rixDQJqJi45ujLWDORQ7/7jwLsZEWGDw8B0OGdKRcqVWUKRtJ+zaVyF9gLh7uZh48HcrYkb8RUNodS5RB9tvZA65fc6V37w1WgiAUszp1UqUycuJkL1wcM1GtyniiYoR2B50FUqbQs2FbdR4/8idfrsFERJqlsrVZRLx8dFy6NhY9ZoxmdR9twoTRJZy3YTqKFpiGl5dBKhYbQejdtyClylWlYcOJPLwfw8sQVfukTePDlk2D1VYpJtU2pQgz9xuyZA7n1vW0hEfYPhe/Ee/TSeI6aeJ2Nm60WnSsK2Lp4gpUq1EM31RTsEjCZ4uwUUcjbpgVvltUi5Yt6+Hq3NpKEOIvKx0uznDw8FDq1PmOp49CCAkdy8L5dxk4aDEDvsrB8BE9SJGkm3zuy7DJbNoCTZsOsrMm39TOeHp4E/H2NcdPtmLSuCfMnruVaKvrwEEHG7e04MqlEPbuPc36jW2oUHw5F64FEW1XzKq1RdiJylRMzqbtnZg17Q4rVqzHw12o+ziSJviCQa+wZVMzdv36mJnz9hEVYebGtUi7IWXsmGZUr5kPyZvMwlIguIqCwSGKbDlfEBqcikcPbQTOBphCTKyRatVGEiLdkapb5qN+n3+epNBapCHwr0DgiwiCwahj1ZpASgUUpk3Ldezddw0nFz1HjnVl945Ijh47wLezG9Cn+052bD+Po9HC6vUtuXA+mlGj1yXqK/5noK1DrzeTPo0rDnoj9Rv5M2JMEwrmHU50jIFnz95y8crXoLzEzc2ByLc6dPrXGB3ciYyEpUueMmzYQntX9ArMW1iWGtUL0L/PTrlTm7+wLOvXPeO3fao/3BTrzI7t5/h+czVyZslOjuxTJUFwSoQgLF5chVYtGlKpykjsW2tbYOi7DnlrK8wmF44du0l0bJxKc3JSaNigINu3XqFDx3R061yJ2vVW4eISw4GjvWjfche9+xXh3PEIBvZfwclLQ+jYcSv79l1OoBhdXBXWb6pFiaJFyJvtWx4/fYbZ2h6DzsLc+SVp0646pYp9x8nT97FYDJiFGT2ea8nT09HuXhFER0zIoSPzUalSAS6evUvdepllT0ySIeglMVX0DoTHmpk+8Rpfj9klaYW/vzdXrrTh3KlI3r51x6zEgBJB0QALRKfh2LFnmKQ2UjArJrAIVQlFAnR81e8U380/oCIWjyDUqV2c0iXnEWtxRIfYrr97qdaQsePKU7N2bVxcbATBep8gnJKn6NHpFUzmWAw6eBk6BAsGXr2x4OzyCnc3Z0KeG1CUCLx9HNmwyY1mTUbbAyxSpzLi5qJIc/7+Ax1Z/N0DVq7aQ0S0iUMH56I33MDZxUJMjAWLKQqvJI6EhihERmYifYYO1jGLIwjCxN9vUGX2/3aZQYMzUaZUbtlx4S4Tl2r5MePtrhBpMvA6IpIrl4xUKjvLTta6dQugdJkMkhQowp9ku5Rw6jTw5e4tF86efhAPMPUek9lI127ref1KxCQJ69I/OBbpnyGUtFZoCPzXEPgigiDkSN48XtSpnZnAwKwI07fYXXslceHNmzAsJjOubo68DRMCwAI6My6uFt6GG1gw/ylLl/36Toc/FIQX/7Z4QugznRNWa2aCALIPIe7t7cjV68NwdjRgNITh4BDN2wh3UDzp2mkeS5d3ZMO6Oxw+fFmoGhlQhmJi8ozcLJwXQ79+i+w7Il8/BzZuasGmtfeZNXOvvP/B03aMGH6DxUsOquLYIsSymQ1ba5PdPys5P0AQxL2LllSlccPeeHpWw2w1p+fN703ZMqWZNXsLJrExtl4+Pnr571ehtpAw687eOuLCjC8sGH37ZmXylGpExKaS/nCj0UiLxut58eI2u3bOoG/vYQwd1ZbcOccS+lood1WHurkpzF9YnUaNsxIVoXDtyivMSriqYy0WDHrIldsHRXHh/LlnxJiiiAzPRLly4+K4DXrcPRS6divFD6uP8+jhW/n75asq4OSYhc4dFuHsarAG9IkGKwwbUZjSZWtQOXC0DLYLe2OSbq3Mmb25cLkzebMu5dbtZ7KdGTM5c+l6B4IepCdX1gFERqsK3aKYpVITc/bWoy6MH3uF7+ZbXT7xCEKbtvmJiEhhJT1mdESjKOFYLM6AIDaySTgaojCZ/XFxbYzZrMYTJE1uoF37aihKLHqLmSOHH/P7gXMY9RZeho7i6OFXbN9+npJljNSoUY7BX/2EjhimzazNhk3RNGs6Uo1BsMCKNY2oXTsvWCJxcXqDKcaLaLMj166ZKJA3NY8fPWXihJ3yvaqlxcywUf64uhTD07Oj3cUg+itIqwymtNpEXN10ODjGWWhsK1HEUhw/1obtPwYxdvxuoqMsvBWbfoGdeJN0d1kYOKiWCKmUc0mNx4hm5JisnDutY9uWmypG4jtF4fKll2zbfjCBxSCRsJH/mjDUXqwhoCGQEIEvIwgyCEtHhUop6NShPBazCZ1OeKNVoZvZ343MWZLxy667qn9ZAYPORGCNFIwYdp8pU7bZW2ENL7MLjfg0IK6paiiXeglFZ/M5f7z54t27do0hd253ypefxdWrd/90DhgMkC+fFwbFQqeu+WnVsiolS4zHZNZx9244j55Mp0fX/SxaskkVlCJQTmfm8fO2rF6h0K/fMrkHE+8dN64lFSt5Yol1QSeNuxHkLRjN/fuePH2uanOxx4yNSU606XfSps5GzuzTErEgqNHii5dWpU7NrqRLWx+dwcDrNxG0aJWehYuaUaHMWo4cvWNXKl9Pyk3r1l3xk4GO6psat8zM9MndMej0YHFl6qQ/QHeAHt0qULbSQnkqQ43ENxAQkIriRbypUzcf1248Z/r0C/y2545UAmIXfOBwU/LkSYHRYOLFc1dOn3oiFalwIpQq4UxsjA9/HH2AXqfHZNGRLZsTKVPmJ4l3BzknVJWkI3kqPbt+aYOHa2oqlp7J48cvOXqiPju2Gxk9Zh1uri68DY+QVgexB54wqTCVqzSnUIH+mM02RqSQMqUX38yqTb+e2wkKCpVzsUffXEyaUha9koJSxRZx4uRj6eIQc8hohNo1c5I6jZ4D+0M4c/a+DSY5xZYsrkCt2oUJKDxDEhpBBITb5OAfrVi76jazZx5KcLogxqzncVC0xM+gdyJ9Jti8tackFNkzxzJ16luGDF2PUR/Fy9CvWbv6MdNmbKRN23T06tmaIgVHg8XM2YtD2Lg1jGZNxlhPCShkSO9AsqSOePkY2LSpBQvm3OOH9XuJiNJx6tQ0rlxQKFSovdpOqyXgj5M1yZq1Jp7uqgVBBN8ePDqEdL6pJClFiWLXTw/o2PFbGTRYrFhGLl54yNsw4QKyoOgsXL3ciQ0bgxk2fFOCNWMj3DodREV358UzN4JfCDeMBZ0uGv9sRkJDnHn6VFgJxEjHkDm7ge/XxNC69TyNIGhaSEPgfwSBj2vYD3ZEOB8tuLjocHbSqUfOrLuyHn1K07d/dbKkH4JJyGNFCHcLD592YdTwB0yZst1qZjag6GKpXTsNLq46qfel19Kq/+OTBbPy7vl0ha1bHhAWHm/bnEhb9Tode/d1okA+C0WL/cTlKw//ZGhscAiyY2bz9ipUrVKCrwZ8z8oVt+XRsLcRs+je7VeWLPlRPkcoDdHoR8/asXKpma++Wi1N3oIoTZ/Ri8DKedCJ3b5FQaeLImOWGzx9mp5Xr50l0RFKTrGk4umL1filzPwBF4P4rcLK1TWpXKEJN27/Tkiwnvr1FkiXyM17XaVJt1SpbzCZTFL1btpamnTp8lE4/yxpBhbNzJPfixbNyoElhK7dyjN5fBARUb/TtmU5tv50FndX9Uiml48L1av746AHV1cjr97E8OqNG1kyTCfGZMKgwPoferBx3XGmzMrM+TMpqF1zDiar8j10uB5h4VmpXGmixMZghrFjq9OjV228vDtZCULcMDg4iuj6fiTzyUDFskM4cqw39ev+yKmz17hwZRxlA2Zw6dJTqUAnTC5MYJVmFCowIAFBsJNHebLBQo4crpw6O4K9v4aRt6CJp488KF58KDHRCgZHCxu21KFi+Zw0rf8rP+08jslm6rZOAUEQatQsi2+K0VgQsQs6HHVmzlxuwq+7ougnXEbCVSH7rE5ZQZDUvXQ8LitcCiHtmTs3liHDVyLiBYKeDcHFTZApRyw8l8GpsTFJ0BEud9rr1uto3UqcuBD0UW2QDhMVqyblxx9b8vPWJ4yfuI+Tp54SEbWYyxdiKVCoS4J5ffxELbJlrY2He3vZNjF/5i/qRMqkydEpJvIVCub40Vjq119C/XrZWLa6Prt3PaBtyx8IDxfuGQviFMPGDYkRBGubdBAZ3Z3Vy58zatTPqlVCZ+H67fZs3vCKgf03qieXFLhxuy3rfjBrBOF/RDFozdQQsG3jPsW+nyhaQkysWVOWwMBsMhJfWhF0ZhyMOkQcnSlW3SVKL4POjMHBwOgR95g8ZbP1eer9d+5PIHlyETmthujHJwa23Uqs7Q8re4iJNpAp3dcEPbOdrUx8QMWznJ0NCKLwNiLmvSjzhL8SpMckd5+Zszhw5kIvKdxiYs1ER6bDP2N/ngYP5+olC0FPxG5b7MSEUn1NQJlIFsyNon9/1YIgyYPYuVn96ioScOdxW0YOv87yZYflPWI3LdTMxi3VyZktB7k+YEEQ927c3IhC+RpQv1F7Dh3tyojB15n5zRaatfFj4YJeVCi3moOHzst3PgrqzU8/vaJj+1XSzRN3uNAigxpfhI5nxuSHREQeonmzyqRL78bbiFc4O8eyaYOZfn0XULqUB8tWdiBvjpm8iTATESl2l2o/DPK8O1y/35yLZ5NRu+YMqynewqHDtYkIz0GlSpOkctMrBkaNCaRH7zp4J+kYjyCoBnGhKr29jdy+1wNHo0LI80xkzNiTWLOF3w42JG/OUmRKN4DQ0CgmTipC5SpNKVjwfYKgHhhULQ1bf6pBzuw5yJZlGhkyGzl7tid9uv/BilWH2HewC3kLpKBN8y1s3ngBk7Cc2CZCPILQpGkJ9uwOkxYicYc5JoqyFUxEhfty5GiwjNyXBMF6ssRscWL5kgPs3n1UqnS5wHRmQkO6MHduBEOGrZB2JB9vJ2nnF9OnQ+f0DB7SGf+MQ+1TMTzCQlhYpBqMasXb0SAUbx9SpTZhinXEZE5B+VJzOXBkGGFvnnPs2HN5VFW0U2dR8M9+j5QpquDm2k5V3NK1IN5uQcSHrNtYHcx+NGi4QLqrCgd4sndvb/bsfkqDugvkb65c7szGjS8SsSDEEYTo6B6YzEnAZFTXrWJCbwjGYvbCbHZQE0+JDYL+JWukBWFugiWnuRg0RaQh8M9F4AstCOouTSia06eac/LkKxYsOGbdqUDL1vlp3boMgZW/kVHw1owzkig8fhDDkyCRSCfuSuXrLY9V/fn1rotBx6OHL+OSwHzs55/xvejXL7/VpVhxX4y6bBQvMow/Trdh7Yp7BFaqiZvbA5yc3xL8PD1eyR9givXi9WsXliy+xogRc+3KRrS4R6/i9OpZUvUNKwpp0oYTEuLEqzeCFujQW9ypWGkuM74tRI7suciV7X0Xg1R8isLv+zvg4VKQQoU7s/r7CpQvG0DWTBN5HRHL48fdmTblGtNn7CNTJkeuXOtBp3YnWb5yn1TCtn2t2IkK0/Dz0K/5ZvID0qS/QpaMpciR00KL5j9Su15qXJ0zoRhukyxpLOXKFmDjxgucOKFn1uwd9iA+mx/61oPmuDqm4erlEGu0v4hPccJs8uT8xRAs5hgUnQNp0xvx9sqLd5IO8U562GiTGkeQJ6cbx060Y9b0GwwdvltamZImN3LuYme2/BBKnz6rGT++CJWqNqFAwa/esSCIPorz+Ca+nV2Grl3y8ua1B0mTjJPzdMWqKlSvkYuXIa/w8U5NpUqrOHFKuMDeCZKzrghxiqF1q0IEh6SSiX0UcXxVicHVORQX1xheBKeUitV2yb/MLnTtuIodOw/J44PS4K+D0JBOzJv3lvlz1rFsdUsUjDKeQcQx+KUxkDZdMo4eeYBFxi+o1ohTp8wMGLhUEgnxad26qVn7Q2N0ipHRw28TUCaKfHlEcGFWjPrnJEn6gLfh6Yg1vSaJeywvX/oR/NKdbNmaJ5iPUocrsHFjoDggS736gtAqKHodtev48v0PzVgw5yH9+6/myuUubNzwgqEjhCVAHMeNd3ZDxCDoICKyK6uWv2H02J+s8Q8mrt9tzaYfYhgyeJ3VqmDi+s2WrPtetSDYMj/IvmoM4TMkk3arhsD/LQJfSBCkmCFpcj03rw1j4td72bj5lLpzVqB95wB69qxBofzDZGS1upVS/88Ua+H+PdVfad+3qenYPpEg2EToR39gfd6nd1HcKWIQJk8pS+cugWxcf4DGTari6dKLseMLUiWwPgEBw2jZMiNjxtYlXeppXL3Tk0vnvKhd52sp7GzqxrbTHj66KJ07FmHyxKuSII2fmIGfdsRw5MgDkngrjB6Zh6zZVjNlan6yZ8udqAVBCFS93sKxE515/siX6jVHkUscnzzZh3HjTjNp4s8cPFyfsNcZCaw6hSZN0rF8eQv8M83j/kNhYRHBhbbdukmSseeh45g59QH1G+k5dcyZ6jWdaN7sR+rUS42HW2YCyuhwdQ7H29ubx49N/Lwzmi5d5yQgCGLYNm2pRoqkrnKADfoIChVOz5UrYaRK7YCLky9nzl6wjrNCRFhmAqtMJO5AhdomeVQTaNY8NcuWNyXkuRclS8zi9p3ncgynTA2ga/daVCi1gPoNklOxamMKvkcQkBhNnVqODh3KsnXLCRo0zIqr8wz5DJ8kOvbsa0bmzD5ULb+Gw8dfIPTxewoqHkGoXr0IadNOwSRjHXQyEKFc+eTs2NmcVi32sHnz+XfyKihYzMJiFmtN4hSfIISxYM46Vq2rKXMB6JRYsmX3wctLYCeO++m4dSOaFy+CZXtPnDDQp/8auesvU9KHn3d3ZOHCwzRtkY+Jox9y+I99/PxLT7JnGUdMhJnrd7syeOAJngeHsmpVN9KmGUJYuMiWGKfYbRT7fYIg3qiTbrERo4rg6ZaLgQOXfBJBEBaERw+QgaGqQ8RCqdIpCQpSuHYtyLqszZQuk5K1a2OtLoY4G6FGED4m97TvNQT+ewh8uvZM0EY1aUzz1qlZMLse0TEiult9lKOj6n+XXtMYvUyao+7sQKc3E/bGjVQpJqrR5PZn2hTFh4F4N5jRdufHaYKtix/vqrijQ8cszJzdmIF9jxEZ84LZc1rj6dIHBwej1GVhkTEMHZKHDm1rkc3/a67dHsDl8y7UrD3OfkbObs5XYMSoYjSsn598eRaBJZaHQeIUwy2WLDlA+rSu3LzVSSUI0/OTzT8vueUphgY4uZWJlyhJKGsLV291Z83yNwwZuha9zsTOX6rg61uAvLnGM2tWM3SKJ917zGPTlkDy5alOVv++RMv0B3IPbA/wlBaEl2PYvuk5TZv50ajOOhYtq8bg/rupGJic8Ij0dOuykBKlXdiwsSdZM0zh1VszJouaxjfODSSdDWp+CMVEvXppZEbJEkWX8c2s8qT1q02WzPXime+Fsnr/WJt4pEgffPFKW37fc4+iRVOwb58D3botE7QDd3fR104M6r+XmrW8qFSlKYUSuBh0iFMbM2aUpn79EgwddITrN86zdWsHXJwn2E9e5Mntzo5dzXjzKgnVqy/k1h2Ri0O1hiUIfLEGKVarXpw0voLQqJH7QtnqBFE73hgXl+wUzDOG6Ji4/uj1BsxmkVtBWAfU5yo6hdCQjsyb94Zhw77H0clIdHQMadO4cH2fLmEAACAASURBVP5yX27fvUvGjH4EBb3k5B86mjWZn8DdkcXfjUOH+3DlYjhVq8zi5t1uTBr3mHnfbSRT5hRcv/YMnyQKN+8OpWWzzZKcrFrTFT/fwYRHRKkqW+7SbVkn1aiGjZsCsZjTUL+hOHUTx+FF/gM5RIqFy5c6s37TS4YPX/+eBUEei9RZmDe3umqhsmIk5lb7Dlm4fs3CgQM37a4WsSZOHItk2Yq9CRa5RhD+e8Jfe7OGwMcQ+LjW/OAT9PTpX4b69YvQuvkM3Fx1DB1WmOrViiHy3mfOko2C+YYTFW1Wj7VZoFOnHNSqVZU8eYVvWoQtxu0kPtbQODphowS2pn+EIsR/xSfc6uysIzAwO1u3XaJNuwLMm9saD5fexJitPmW9mY3rq+LmUoAa1cZz9VZ/rl5wpmbtr8mY0YPkyX04+scdqz8WRo4qRqP6BcidZwFYTDwKas+I4TdZseIAGdK4ceV6B/yzrWXoqHz4p89G2VIzracY4jIpCmzSpnHmxp0+VK60nt/33RY2Bbr1ysfX45uSJtVgoqOFbxqy+Lty9kI3vh51iwkTNtoxtvnEheB3crbw5OkQgl9E4OmRFL+Uw7h9d4BMtuToGMWqldF07TKHEmXd2bShB1nST+N1eHS844nx40TUcfR0t3Dxak8e3PGhXJmR7NrTmrRpapMpcyPbyXo5xMlTOBETY+ZlSFwtCGHRmDStMF06N6RogW+oUzcpg4c2xD/LNJ4+DZNDL8ilOLY5UQYpJjzF4JvGkf2HeuPpZqFXtx388MMVAgOTs3VrR5ydx9sJgojNKFAgCVt/aoyTcxZqVJvPieN3ZXtsB/+Ev1z8QLgYqkuCMJ5YGcMhlKBIKGSifEVfdvzUmI1rg+jS+XtiogUJjuWrwfkx6JMyaeIeGT9hczG8etmB+fNf8dPug3TtXJeunRey+oeq5M1Thnlz1zJwYCf695/DnDl16NR+B6u+PyuxUt1SOkqVSsHBA0+kBepRUF8mff2QWXM2y9gIMSh16wvLyyDy5xpDrpw+rFrTDT/foURERlApMAvHjz3hZYg4QqrGaIhnbvsxEKM+HVWrLcRsVe4iE4KwgSXzcZTK/8jR5qz+4S0jEyEIegwEVk5Dj1655SkIRQaHCl4RQ5VqWXhwD85fuG2tuyByJcCNG14M+GqNlmr548JOu0ND4B+BwBcTBBmdrFNwctCRv0AK1q5vgKurG1O+voTeKHa59Unq1Z00fi48eRYjI9CXLq+Iu1NBatSZYCUIn4PBh7T7n2l9tXvJUjjg4aLj/sNoqzJI/L3ibnF+QfxGGJXbdsjPvDlxBEH0uXbtVKxb156WrXez5YdjXLnRh2uX3alZezz1Gmbg21kNSJtqsmo4V1SC0DgeQXgc1J4xI2/SqWsJ0qY24OERScasy3hwPwSD1RVw1Z5JsY88Ry/Mz2JX9u3MbmTOOIqgp6+loM+XPx158iZh1cqzcueqU8xMmVGS1i2qkSb1MKJF4hxrV20EwcnFwrbt9ahQNh3Xbzxj9Mjf2brlEddujqBrpy1UqZYJgz4LvXpOJaCkOxs3DCFrpkm8iXiTwOduN1cDXiLA8GYfXFz8KFRgOpevPOLXvc1Jm6ZOAoIgrEwbtpelZPFGpPPtTVRUtPTRt2iVncWLazGw72lmzf4VD1eFx0GjWb7sPj17LbeesY+VmL5HECwOKLpomjTPyM/bHxP6WjWrVw1MJi0ITs5iroHRQUfjRjkpmr8sk6d8x5mLg/HwDmPfbhNNmsyXJzUEzvEJQo3qAfj5jpMxE4pBJ48KCkBjos1MmJCPvv0qsv83qFN7hvxs0vSCtGpVh/R+Y2RNBEkQFIXXr9sQiy96hyjWf3+OdOlcCSiWh4qlF1G0hDejRvciZdKOzJxTknZtq1Kn1lJ+2XNbJRnC8ibIiVklIQ+DejHx60fMmbsZvc4FZ8cIrt9qx/7foXnTxVStmpm1a7pLghBliuTG3XaMHHyf1av2yPETpxnGjStFvwElxLkMBgz4nblzD8j8DaIWh7hWrC1Bo0aFMVic6NTlGEuW7HvPgiBWiYjR+HZWLSxKrMx9oa4fBVf3YGKikshjmOoMVJ0P5864ULr8IJVIaKmWP0f4afdqCPxXEPgiguDgoGf19w3JkcUXH28T7p5OXLigp1GjOTx+9Jp+A8owYmRdUnj3oX0Hf8ZPrkNUpAlXN1f69jzMoiV7EpoZE/zrQ1aFjzsTEkNQ7E6P/dGDggUVcufZxsVL1vPuH4BbdXaIQ45m2rYvyPx5bfFw7iF3byNGF6dHv3JsWBNE127LZN6Ay1d7EvocAgPnMGt+GXLlyk+Rgt/Ip4s4tWEj6tKwQWny5uknY8wfBbVj5PBbmM2R1KpZmDWrf2bj1juYTWoMuhCkl67XwdVVpFruLcWrn68D5y724tfdL3n0+DbePi7oLCapXCULUYRbRy/dODXrZiHoUQTHjz1W4zzMyRg2ZAsPn7zBx8fA6TNdSJbSj5ZNljBqXEl806bk7q1oVi7fxa+7bvPokcgYqCMmNpbkyQ3kzpOUqMhoUvl5YDanZNXKP+x+e0cHmDS5FK1a5cPFNTNFCk3h4sVHUqnt2deKNL5VyeLfTGYtFNH+7p46btzowulTRqpXnSnbP3xoYQYNK8uvv8bQsO4sTGpFJ5Yuq8erUB/69l1sJTmqspwwpTBVA1tSMH9v+2kIYaZW9Y3w/6txMFUrC4LQBt/U37BqTTMKF02Nu6c30ybcYNSoRTg5KDRskpbvFrQgLMKJSRNuM23qMvlb0dolSypSr14+li49QuXA0nh46XBzi2LL5se0bfs9Rr3C6HH5GTioPEGPXRk8YAMt26fGz68weXJOUkmFcMAYLQQ97Y2zSwZWrPyeevWLYtBlpFK58Vw8/1Lmahg5oifJfNrj4KBj4qTidOtagiNHjNSsM4VXoTFyXEXfxE7/0ePeTJz4kLmzN5E9uwd79rXB0ZiRnNmG8fR5OFWqZGL9hubkzj6ZvPk9WLm2PaUD1nL+wn3EeO3Z24YiRXLRtcsmPLyimDK5OvfuKSxd9BN/HL3F8+AInJwNck0bFD0hL99Kq0+GTH6sWXWX0NBX0v3gYFSk9UIVIHFpqPUGCA3rw5oVwXTvtipBaJE4EizWhCA+0fKEkyBcWibF/4rk116qIfAJCHwRQRCC/Yf1zUnioWfl8rOcPvuY69dCMFkT4Az4qgTDRzQgaZJeGI06MvknwcPdnbA30Zw//1jNmfBO4+LUf2LHGRJGLHxCv+y3iJ1KuTI58EliZPdvN3j9Ws3W9ylXm/aFWDC/MT9uO0fBgkZ8U6dn9LjDfDvjABGR0VK49eyVnclTmqLXOxBr0smjc+s3HbU/XghMsfOMiVLQWcw8fNqOUcNvsWjRfhksKBSJ2LkmSaKwfFkfSRLKVYrh7LkklAgYK7ILs2dPezKm86VQ4fH8tr8r/pmSJ+qcEYRFpxMVAYUMd5D5J0ymVBTMN4g790M5eLgz2bOlpVzpmZw//xQPTwOB1TIzYnQZ0qVNq4p5s8gMqY6GqnRVAS6O9I0acY4pU1eSNbMXS5bXxz+LNy6unsyff5AZMw7xOEhUklR3zcuXVaFJkzxcufJETcyDGWcX8EuTiSL5Z3H5egjjvq5I/35FWbfhEd26riRcJmIUeRx0ODtDZKT13SK74rIaZM/mjW8aJ27fykLpMl/ZI1/tfmxrBUXxlDatsrJsaQ3ehBkxOHgxbPAOfv75MtdvvrSGRUobD5kyuFOkWCa2bb1ERHgMqVLo2X+oLb6pPXFwdCYmxkhwcASrVh/h4IEXXLsazK07z1R8REBeqTQsWlqbDOl9pKqcMuU8I4Zts1tbxFv8syaRJv7adfwpVSonY0b+yr17ohCWgZ59cjF6VA+S+rRHlNFwcjRQtnQa0qZPwfIVJ6RlQprvFXVcg5705s49d5ycH5LN35er1xRqVJ0hsRd1JTJncuX82b44Oorsn7Ey62frNoswOOs5fqwjGdNlo2bNOfy274Y8VlykcAqGDS9O6TLCPeKoplmSAy9SQ0fJSo3iuOXlqxEUyjtWkoGKlVOxY0dfeWTz3eBiiySuYVjMTiiKmm0y/iUIwp07Scmdu52syaIRhE+RRNo9GgL/HQS+jCAIMaIXqXxl1vY4ZWXV+pUrZ6FGjYL07f2DFHpCy9nMl0Kg2IyO8aXL30MQ3i2w83lWiOYtA/hmRjc6tB1Gm3bFmDLltKxroBIcm/EUcuf2w83NiZDgSK5efzcRk40KqUb+H3c0Z9GiG2zddtwW7yd3hwaDmeUrapA8aRKePAph9JjfuXMvXCrr7Nm9cDT6cPb8HamAbWF1fzZl4t4aF7ORIaMHWJy5e1dEl8fdIeIZkidzxt3DSabQjbusuzzrB7dvBxNrEpUNYebcKpw88YLf993j1u3nCfoibk+W1EjzFjnwdHdSCYZwiphFdP5rfvnlsvzEzVWhQoWc7Nh1iVhRVci+H1XVr21+iL9q1MxAvvwpiAw3snnzJW7dFkdl1VzEiREEcYrihzVdWbHqKD/9eInnL0SKZGtLFDVJtqrc1AA+6Zu3RuGPHFuUB/ejuXkjnJs3n/Hkcag90E+lqvEJq7AsKBQpmoLkyVOwbdtVIiISK40tTkHY+mgjyArVa2akZcuaNG3yjdUioubWkO2S7VPHw5Ym7PL1CXy/5izFC7uxavVF1q0/bi2jLe6SzghSp3AlfYaUxJoULl68S3hEjEzAFFDcm2dPdNy6+0L2x2Z1EU93dTHi6ixiD8zyPxGnoPIEkdPEQHikyJj5SrZFJM/KlDGZvXbDZ4kuBaKidFy9IWpzJIhU/qzHaDdrCGgI/P0IfBFBkD5FeVLBamAUGRSlSV1N1RtfrbwrA+K/ME5Fxe/op7gYEv9lYnDFpwjx0uF8ErJiJyXMu7bz7sK3nfCKHzBp1zgffLa0jVgfYXUvWzdgViVgrRapKjIbBUmoLD+p4R+8KTH0bUpTzdH/55d6jE3gomISH4/4WNje884D7a+PK9Mcv5e2d1tnlV0p2pGN13yb2pSbWFvD35nNcQaFhF8kNnviv9NqP3nvnE2cmo7fL3tLVOKQ2IpSF4c9EFLtp3VmWmsb2Ctyf2wErI2XT7M+8/0i19YiDvZmxmujLMIR73vpp7J+luA0h/VFdhL1sbnx7veJixY7CtL4YC0M8bmP1u7XENAQ+D9B4IsIgi3AKLEW2oR1Yqrjr+tRnIJ5z8b5l73kQzTnr3WB/GXN/T940F8zpvFxTcz//AHc473cVopDJu+RijLOJfJxkvOlQP1fzLkvbdv/3u+0IMX/vTHTWvzvQ+AvJwgqhAkPML57nPE/P/v8fyGsNYKQ2J7Q9tlHjQ0fXEsaQfj3iZn3e6wRBG0WaAj88xH4mwhCwo7/54Tgnw+k1kINAQ0BDQENAQ2B/58Q0AjC/0+jqfVFQ0BDQENAQ0BD4C9CQCMIfxGQ2mP+FxD4oun+v9Cxv7CN/z9ilFhY6l8ImfaoRBCIH7Ekvv5yp6QG738PgS+SBn8WpBjXFZFuRkwKUYjmf31yvOs3/+sEjvpkNZb/v4/SX9ev/86Ujptzau0B0R9bGmVbi2w1Cb6khe/iI/5te57tVEf8//+Sd/wVv/nScVRrrLyP2We06Yskymc8/4tvta3h/zQx0z+2g5+JzJfOkT97jW0tfChG7GNj8NeEQX8mENrtf4LAF832dwmCyAAXLfIGJTgSpZ6zNhh0xMaqSV7+dy914sv00uLY438qY+IB4eKg4OHlxvMXYZg+9azb3wGkosixEtU2VUL3JQOmTicnJzEfzP8RTvbywvKRnzpNrQJKpCdWRFZF25yMGzD16OOnPi8OaFGESKQjdnY2yL6ZRIareMcCRW6AiIhYzP/NMfyMeWEwKLK2RcISzoIgiERVBswWUaf98y+RZdXF1YHXryL/MViIhFDiNGdsXBnRz++YoII6EP1T5/aXrA/1tba5reahSFhG+4sa9gU/MhpFIT1kDZfPv9TKn+9v/NTj7zqdDpNJPD9GTRWuiLlmI8420p74W13EOgq3kXoV4/9kg/lumfLEzyF/PgL/ll98vqS0Z9hTz3EXKebN6rUdqVdrNRcuqGl21WNoFnLmSc6mbW0oX3IpDx+9+ERM3zVN2X727tnzL1+gn9iQeLepisfJWc+WH7syd+ZJdvx4LFElGn9C2u0O7xBjm7oSH383uzCtO9YnoNhczpx98EG1LPIxfG6PRWrbT13+ej3cvDOUnl0OsnPnIWuRncSR+rNJkzylgRNnhtCg9ipZCOndBfmxCSe+79u3Jm/DHVmwYCMODgbmzR/ArJlbOX/+6icN3cgx1Unjl5xO7ZclTPWrQI++hcjmX5puXb61Z4lM+FBrjg9rSgOBS49epSlfviTDh81m+64uHD7wlpZN56k5PxRwcFG4dK0bo4ddZdWK3z6pjV9yk30aWTMdJqyMqSKbxMvIt9/25vu1p/nl130J6mfY3imye167NZReXfeyc+cf9qYIUlWuQjq6dm1Io/pTEqSD+tT2VqmagfUbW1Om1CzOnBbVMv/8knYeQbo/dmO87yUOlk/7jbh3wsRclClTmoCAeR99y4fnp0KxgGRs3NqFTGnGERX1/mr86NxWYPSoljx/rmPO3BWScCxcNIypU77n2rXbH23bX3WDaGf1WpmZOq0pubJOwCxJoXq9a/+K/7nI+CpRV6Blq8Lcux3J4UMXpQK35Q6p37AgQ4ZXo0j+sZgtRgYMzkXDhqUpUmCmVRaIZ7wvlYR8Kxbgw/rNXenT/SCbNu2P6+4HBN+fy0MFdzcjs+YMY9DAWTx7HszAgU3w8kzH0KGTPxnKd7XRJ2R7sT/bmh3IXtH00176OSvh0574n9z1sTmd6LNtqViFhFy4tCI1q+Vn8XdHMItyuIoDFosje3+9T+2GznTsVJ4f1t4iQpaeFVYFHbfvhjNj+p4EQiEuodGH8gzEB07d6XyuwvwcoEQaZL0o/ycum3K2QM8+OflqQDUa11/F4cNBGI3W762WBUcHV8LCwuTPDHp4/mI4Hh7CghIrU9+aYnKTLesg7t57Qdas7py70FYW4tm+OZZmzWfJ1Mu2haq+WkXm94NVKBmQE0XWNVAzWCZMSWXrna1ADpjMPgQUW8aJ09feITPvY6zXmwl5PZH2LXazectBaxI/1UUk2xMv6U6RIu4UD8gkx1MKeJl4RxSVEjn8Yxg6vC7z5xzkniynbJtiFmkIEE+LMiVhwbwDiTIeISh+3FGX0FA/mreYjaubkRdPRlOv4U5+/vnwJwyhnrwFvfn9t44sX3ibvgPX2YYQPz8jp8/1YcnilwwZvDjRnYmPt54mTf3Jny8zGTImI3sOR5IkSc+MaXuZNPF3qtXwY9GyJvyw6ildOy/G4KCwZn11ihQpRoE8E3nx4tNTeX9CZ+xtF9hVq+LDrBkdCSj5Hc9D3kj8RcKqOKsIpPF14NatrnTqfIuVq7YnyGRsG0KjQZSgHk+L1j+zZctBu3IQI5U9ZxJWramPh1taAopN4Znsz6etNPH7alXSs21HO4oUn83pE8//tIti7uTK5cOZc+oaiMsaGX8FxNcTYudqkgnZblz3JGeOEQkSjSVcOdbVYYFvZuejcqVy5Mg24097ItJMlymXjDx5/dRkb9aMqWInLOZ2hsyOdO5akaEDt8hS9vEvgZBJZyEqOgUL5yesNWNfmQqcONmBmzdS07jpWFnP4mXwN1SrvoIDB84kWPefOjc+7z513esUC1u3VSJb1srUrz2Ucxd6YFJEpVIzepH0TubNErlF9eiVWO7c9cXfvy8m6xgpuhjmzg+kWZPS9O6+lVWrT9jb3q5tSWZ80wgf716YLAqTpxWmXZtqJPURabqtwjQRguDtpePIsQ6yrkm1arPwTubMxs3tUES7EpifhY4Rhb8i6NDhfcKnSktV5iRN5sijh3PIlWs0N249ZO+eNvgkq0ye3M3+FDYbKbBJrmkzamKO9WHQoOX2irbzF9SlaP7iFCsxSBbFe/eyZWUVbTFLKfnnVxwRsem1+NTsY7/++77/MoIgytkoUKOWL4sW10ExiTz7OowGeBvmADhzYP8dKgSmICQ4DG9vB2l2Dnr0FotFz5lzMdSvtxIzqhlTDqk04cbLzfchQ4LtF9ZJ82mi6/MBnPB1AIO+qoUFZ1kC15axT6+PQFHeYDEnQVFcMZtNciHFEI0FT9q32sa6H7bLF6oEYTSH979hxvRVDBqel6KFGpHVvz8QwS97WpI6ZT6aNB3Hhq3t6d9nLyuWH7fu3NShiSMIlcmQtjBtW4nyvDYzeeL9EmY+D08j36/vTukSKzhx+nrCrIBWV0n8X4vdTMircbRpvoet2/bLSp1STFtxlmNjNc8PH5mbkSPq2Ke+IrIByttVIaP65cV/oqSzKBhlkAMsxkrU6AkPz0wSj5Z/QhBqExqahuYt5lgJwkjqNdz1iQRBnVCdOmVl6sSmVKy4htOnb0gkv51ZlqpVypE3z2gioszvKQvRBQcDPHjSn9ehEbwNf0O6NNkJKDyBa7fC7EmPB4/Iz6DBtSmcdwbjJpehes0AWjffyIYNJz9/on3CL+RMUKBp01SsXt4KvzTzZDGxvHky8cuvFxM8Ia2vI3dud6Zxs9Ns3HzAVlYjgfJxEAQheDwt2vwsyaB1qO1EIW1aFw4c7kvDeus5dkLsbFWTr1ru+sOuB9HOWjUys3FLS0kQzpz8c6uhmCG5c3lz8nRHalVbQVSsqFqpZk1JbPmriUzNfD2pIEm8ipMzx6h4Skd8GRfvFF/IfzMzH1WrViCb//QEY67uluMLYh1z5lWiY8fi6mZGiHaRdlpVq3Fz24qDjBsSxdJEkTBRhEoHb9/kw8erbqKjKnA+cbIdN2/40rjpOEkQQoOnU7X6Sg4cUEt8/13yLK5BetL4Gbh5qws7tsGYsd9x/MRkmjWbS3Dwa7s8Vu/Xy8JhBQsFkDVrf0yyr+qmQRQ7mzqtHO06VKVU8dmcO39fftOuXXGmz6hJUu+hkiBMm1KItm0D8Uk2Xt38vONrFnLD2UHHb/uakTZdZipXXMylKw/x8nKgU5cisvqodO3GQ1Q84v69GNasibN+2b4WJE+9bARhFrlyjbUShJb4JKtCntzN/3TV2d4liIijE9y815NVSx8zZMhGO0Fo3T4jS+Z3JqDkXI4ff78AoI0gBFbJRb782d7JDJTw9fHnu5h1K1f+zqNHglz//bPhY+LnCwmCgVy53dm8tSFnzphp1XgxFQJTsWZdOzq3+5WLF2+xeUttnjz2pFL5b8lf2J0fd3VhwqgzzJ6zR6411Y+vCoPMGZy4fK2LrEgY3/8t/rbXBlDUnaxYtBZRhrb1BVb+sItPcyvaqhd8OuDjJ+SkT8+6BFZYTf6CqTh37gkxMVClph8R4U78vvcmafwcadq0LPPm7eNNuGB+Oq5ffU3oq6eyrQYdPA/+mk3fv2Xw4GncD+rCisXPGTFiA0tX1KRYsZwULzCX+49DGToqP/0G1GJAn50sXXpCFt6JX4tg38HK+KUoyI1b1/FL6xqX5loKbqGgDZLIqGswKZ3bLWXv/oGSIJyMRxDEYlu7pr29II8tYbZO/5TadXJw7Ggkjx+/todMih3bm9eu9OmzkLfSN6ia4G2GASnk83gxc14lVi4OYvmyQ/Z2u3kY2PpjV+bPusCWLb/LYl6yfepAyj+ERSl+7IrY3fy440ME4aiVpLxvhhMEp1GjfHZB7uQIU6dW5FWIC2NG78DDw8Kk6RX5aesLtu84aw0KVbh05SUXzgtXSNzl5GQkOjKGjp2KMW5cc/xS9sEsihAp0LBRfry8FPr0qcXXY7fTvG1qFFNKVq48zdFjQdy6Lapo/h2XQpMmKVizqhVp0iyga6+sfDWgnKzw2bnDGp48FXU7FNL6qQShRs0/2P3LMalwbYonRSpHypbKjkFnZumSesyZd5U/Ttxk72/nmDO7tVoQymxCp7Pg4WHk9WsjZkVU97RginWlVQtBTBLubGwBtrYhbdgwJ6vWNCFj5nE8fhBjB8L+K7s5WiWcgiCcOtkFX98p7N7TFINR1JOwJrW2+XCskkLUO7131w2Mp8mUpnJCgqBAnz51KVLI015K2iak8+QLJ1XKlOz6WVSiFBYI6/yxuLDr5yusXHnAKopFHQzrLsU6xUuUSMqEKVWYO/MG69cdt89td0896zd2Zc63p9j589EEoapxMUo20a+uGzG3/5wgqIvi06XUZ84zEQ9g0dGlWy6mT21AzhwTcXa3cOLEdDJnHMrjJ2qtDfVSqdPUqdWpU7cM2fwHWi0Itk2dDk93HfuPdOaPQ3oyZnlElizJcHWNwcvTg4dB4ll6fNx1uLq6c/9pMNFmJwrlXsHrV6JWiSr706V1YePG+mTNmo66tdfx2/4bsnid/N5WF+admCi5UZFyLqH6UudYHJVQLQiJEYQWdjmWWHyDOmqKtA5v+SmQgOLlKZJ/NjdvPrS7XoW8uXS5JadPipozS2Vf47tOJHqKhclTS9GkaVEUIaOtK1FsqFKkUIiOcSYkWGChWm3Uy0ituts4dVJYff/71xcRBINex/oNHfBNCX367uB5iElO/m9nleLEH6+5cO4mvXqXYMTQvQQ9E8BY6N43K1evvGXtmlu8fGmbiOokSeJpoFfvInalpSqOuLGOv2xk3XlFzw8bn3Px4sd80rac8zZW+en+nQkTctGze2MyZRrDjXvjmTj6JtOmLWLn7ro8euBA+/bryJbNje07O/PkSSx1ay8jOPiNnCjSnWAjCC8msen7ML5ft5Bde1tRovD3jJ8UQKHCWWjRaD17frup+v2Ef3JcMXr3q8LyJecZNHgbYWEqdmKy/X6gMilTFGXihE14JhE7ObFIYmnbpgBurlmZO2+j3N2JCoHCxbNzxyXO1vAXhQAAIABJREFUXBhCmZIrOXkqbrIJ10l0VC9OnzHy7FmkfQa6OL+mVOlUnDgRQ2io+FydsT4+EaTPmIfsWYcRHBJ3vxg4sSMSYyMC3kaNLUjfvs0oVXwWZ8/elaWLF60oTZ3alShaYDbXrwVJIiB2FerijvPm5cyTktehUTy4/1LOow8ThD+kibli5ewcO3qf169F+Uf1OY4OCvcf91AXofXRsm06C15eel69VoiRw6JKfukWwcDUGReZPGmX/TfCq9R/YA4cHQwULJiaShULMWXSNhTFiTVrrnDlek+iIiIwmcTDjNJ/q7PE4Oaup2OniyxZKnynf4OIFxaERilZvbolfn6LeBEcSutWmZjxTQNM5iRUrDSHUycfkjmDMzdudKZ0md84fOSCvSmiImPJ8p78tLkdOiUGFxeF8AiIinWletV5HDrchuPH4GVIBEIRx5FT1ZEk5lStmjPsysPDDWbODgRFRCfHgZ4xkxfFA7Kybu0xTCb1dI5NMIqKoM+eJmXIsLVqQK6VIJw+1ZlkPlNo2y6PumO3KHh66BgyrDQTJhwh9LVok7j0vHzpSP3GRvzTVyZHjlHx3JQWtmzuQJWKadi7/wFmi0FWptTpTeTNY8HZ0Z2jRyPiyAFQuLjC92sf0qfXj3bCLVWMopJgse4cjMJFUZ7GjatQsuhUrl1/hrOTni07q1Igf1FKFZvLtWtBsnU2AmxbVGL3myNXKu7cDuJtmNjsfIggrJYWBNH38hUyc+jQfWu12L9aQehwcYITp1uimN3InXceWbM7cPLETPwzDeTxE9WCYLtUglCLWnVKk81/gJUgxJ0KEt97eup5+8ZMs2aZ8E7iRLHiaaldtxBDh26VyrR2jbQULZqXIcN/JBYHFs0/T1SUShxFgbhDh7uTIpkHtWos4sjhB5Qok5Qu3evQvMmSTw/atnICnySO5MqVjoMHhEz9MwtCK2kFyZM3FRHhFm7cfKJ2OV4dIbExHTg0HyPHVKNL+19YteJEvPNQKnlq3SYDCxa2Ytjgw8z4dq+0Jse3dMi5JGq0vWMR8/Qw8PzpUI6dcaV0qUEJxYWIrREbqb9BhHzJbPoigmBjSx3ap+Wbb+rJxWQ0CCEiwqLFTlpMIgPRQnhKP74Zo8GIyaJjzPD7TJ0sFmT83YW4J75v/f2uWL3d8gtRGVIowj8zd6pPsHJK62K3FV36FKBUglCfnr3XMO2bFqTyGS0f9+jJEGZNv8n4yRukAHJysnDyfFe6dDjIgQMXBe/EIk3rNhfDGH7eHkP1WgZev4nF0ekVru4WoiPNhIXFoBBDREQkTk5OoBikK8bL25HwqNTkzzmTu3dEpUQLvx+oRLLkAWTLPire9hs2bG5GsqTFKVu6p7RDS0JhUUiewplb94ZRpsT7BCEiuhdNGhxly1ar71CBzJmMnD0/lGqBOzlw8LxETtCqyoFuLF89mBxZhxIcoo6Z+Nw/uxMnT7XHoDcI9SEVhUGvJyY2BrNZh17nALpI9DpHGcFsMetkjEqj+ofZ8fOpBAWWTpxvybVLjrRosliSjg8ThCPojRZevJ7AyMHHmT1zawJhppoXE66slMkduPuwK2VL/sgfx+/F+16IEKubwWbNEETDqPD0RXfcXF1RlAjVhWQRgSZuVA9cxY7dQ6lWZQG/7T1tx8KoVwgO7Uif3tdZvPTAB4IfP2XW/ck9doLQGj+/hQQ9DZelwY2OMdx82IWL55ypWvlbsvu7cPFCe9KmW84jsSO0mmuEulPXpQ5HBwsvgifQtuUWNm89LkuKR0UPpkL57ew/eDmumJM1vsRWblqU7VbVJqRMrnDzTl8slrd2N5h4l8EABqOIQ4olNjZO0Ildu8XsKM3r+QsOIFbYm+0EoQueXpMJDxfBa6os8PV15uadTmRM9x1PntjiOnToMLPt59L4p69EjhwjExCEzZvbU6Joafz82hIrKmdaRCS9ibXry5EqWRbKlV1qdRdaEAG8v+5vxIVzUfSWBEFVfGIG1WuQihWrG2GQFS0FgNHo9eI0loizEZVpjaBEoNc7YYo1SXYvXJFJ3GcQER3ngnH31HH1dne2bAimR5e1cm5/2IJwDldXhUcvhtG0wSZ2/iQ2P5++ofmU2SV2ve06pOO7+Q24eC6M/AUXkDOHIxfO9+bxU7U6qsUUS0x0FI5OztJt4uVu5GlQJvyzCoKgVj0VQxRH79UxVuUxtG1XiG++bYiPl3BJwJSpRejYvibe3iNUnOyWUXVH7Zfam+hoPU+Dn5PEU8epc+0Ifu7J4u8OUaRoQbkrt21EbH0U7xYa4N59PePGLpLxT6JBfb/KzuDBLcmeeQwvX0ZbYxAStyCIcf12biNKFs9OoYJjElQWFe0aM7YgA4eVYuViE126zAaLzUJrs2Q7YCCW6d+UpHuPEkyZfIthwzcJW5t9KGyk1s4+rN94eSi8eD6cP04mo1TJHv8YMpDYHPpCgqAqIm9PZ1Km9LEeeVHQS6pkoWOnPHToXJ5ixb4hNlYNmrMoJk6fb8qYEXeYMmm73ZAWJ85VIvHhK55JwS6m3vcjv/t7RafjxMk+FMyrJ3ee9Vy8JJTEx6+JE3LRo0cNVqw6TKt2pXlwR8RYhJMxIwQ9ceLVGzHB9QiLhtHJTHi0A6EvFcqWHG0/3qfGIIznj0MRlKvkzM0rIfzy22XWrT9LiZJuuLs74ePjSNeutZg/92dehLzh/m2FY6ce0LRFKb4e/TOxMSorFRaE5MkCyJlzFJUCU0qlLCb5kMFl8fD0Z/DgBVYRZ+bJw1iePY3h5r3hlCm5gpOn4mIQhNsjIrobTRqcYLOVIAilUb6CJzt39qBwvuVcuCJOU6jCuErlpCxfPYzsWQcR8lLEWagiPEd2Z85f6MmEMb/yMvStVAxfDavCTzuucvr0HRo1yk7e3DkZNXyLHFedwcKESVVpWP8I23+KRxAw0Kt/XoYNbkD6tKOIjIxmx3suhhHUbbibXT8fIV1aR67fGUFu/zncvPXEKtJts+jdqh+QIoUjtx90pWyJbRw/Kcpl28Y+YR3JOOZvwMFBFUor11aiQukqZPDrL98j/P7BYbOoHriY3/aes1NQYUF5EdqRvr1usGTp73+TBUFH00bJWb26LX5+cwh6+sZOh9Kmc5PWJmGuLFs6Nbt/bU3KlNN5+VIQOnVN2cSaAEBYW16ETKJdqx/ZtPkQOgNERn1FxXI72X/gUrxYEtvuR6xflXjaEFbxMsfFqkiaYGb27JJUDcxE+gz+/4+9swCrKmvf/u8EDQKiiIhii92B3TE6KhZ29xiYY3d3zthdYzCOMXY7dndjY2EA0pzzXWvtUyDGvDP/7405+7owDvvsvdaz4rnXE/fDtOmvGTR4tkwJlF4pg8nYBNQNAOHi+a64uk6mYGEX3FKJGCY9Hh42LF/Rgo7tNvEqLEq+NzFBw4mjr9nwqz/ZsygAQZmPyt6xJbgj/qUqktGnpXKa1wvwmsC+Q434GO5I/XprEJYU8Sy1PpEDRxpx5XIMQb12WBj29TQJ9Gbd2jb0CdosLXtiLgwaWp0jh57xxx/XadehEFkz+zFm5EYS9Tq8vOzpN7A2Lo7TLACCsEKoGDC0AIMHdCazzyAiIyM4e64dd1OIQTh29Aq+me24drcnRfKt5s7tlwbQ8vW96st3KFu8+FPEPNy5140MGWy5diWGQkUXIIIDg3rlM0aZkCd3agLqFWT6jOOyL2q9nndv3Zn701EJ/NUqHRuDW1OxsrsBymlo1OBXDhxQ3HQd2pVm5qxGuLn2EaqdGdOL0qF9LdxTj5HgSkkXN1pZjWZ5xZy/Z38g2bPmoGrlufwQVIbvapczrKVEGSyZ0ec9UTGevHolQJkNN65DvTqDDApWQyp3YQ3oy6ghN1mw8PcUAUKatDXIn7+lXDubfwsk8oMDbVqvNIy/EnPwy+b61KiRm1XL7tO750YZ6Ku4RpNqKzHvxFrq178kA4dX5sYNDT90Ceb0qWuGOy3Vq3mHcUulJuz1cE6eS/O/ChCUKSmGt06dguTOm1UOulaWrtVRrrw75StkY8KEc+j0thIcqDQf+XGIH+NGhDBl8nb5fZM/2uJff3U5fAoQVAweWp3MmWwYNfIkz5+HffUVYijHCwtCjwACAlaSr0AmaQ8JDMxAxkwZmT31JIkqPSJmR+mD6LUt0dFqFv500mTZEADh1ZvRbNkQzYJFP3P6dHeGDj3P5Kl7TcolRw5Hrl6fQ/48I7h3/7lE7cZNT5jhxcYqcLsECJ4lyZ9/LOFRE9CoYyQ4URMhYzLEBi52M53ejtUr7jFsSDAPHg2nfNmVnJUuBmVyC4AQYwII5+QZWmyC48fnZ9DAyvxxNJGABgt58z5BghAFIAwhV87BvH8fa1oieXM7cPVKEHlyruJByDNq10nPyvX9KVtmJlevPmXBotLUrVOF7L7jSZNWS48fytKrT14CG5/it53nLFwManLkcOL6jV5Uq7yBY3/cZ/t2yxgELW9CRxDQeDd7dp2gUsX0BG/rQvq044iNVVwqiu9PyZJIEs6kB6/0doQ8+oEypTZx4eITi9+bZ5/8lmntKz5wR0c9N++2xdMjLY8ffqB7p92cPPOYt5GzqF1jEQcOXjeZE9UCILzrQt/ed1m6/MD/gYdB+EQEQEjLmjUd8PGZQ6gFQFAmtICrMGVKcTp1bkR672FER8WbfKZSRRg6aWurIuztOHp0DSZ1Gnt27brItes9qFJpO0eO3rQIyPvqUrG4QY2NnZ6Qu705fToKL+9I3NwKUqjQEOLjP5Nsq4IC+VJz4XxX3F0ns/9wO4oV85E7i0oEQ+rfoVK5yVOZHhtiYl0oVXgGE2dmJ1uWquQ1AgSZRSMAQif8S1YkY0YBEMR2rsVGncDdh53x8PBkxOCjzJpzVEaVi8390OEArl6OobcECObgtsAm6Vm7tis2NqPl3GrTNidTprWldMmpPHjwgc3BNSjjX5WsvgPIV8CNjh3L0LZjHlwcpicDCJAjpwtXrwaRO8dPPHocxtmz7bh3LwNNmo2V1ioRpFiz9ioEQKhYIR3bdvUgU4bxvHsnQNHfcSnZFiLuZNWaKjQIKMPly1exs/WiUJGf5HKRDiVpBYAGAb6sWhGAd4bFhEeKNiRthdgrihXLhEcaRxwddKxaUZUWrYLp2rkkKlUCPhncyeWXnr0HbpKo15A3lwsZM6Zj1/6bqDQq4mNS0yRgtSnYT8xLrQ3s3BlA5UoFCPh+Nzv3nJPuU2PwrGy/jYroqJ6cPZcO/9JDTe4AAVqMqZfivu07v8fRxpeq1eYnAQj37j/lwP6WpElbUwIEsWucPN+ajeufMWPaAdlLHVpc3VWsWRvI3l0hbN16mbv3xqNWK65VxTJsq7iu5K4vsltc6Np1D4+eXmX85AZ8V30lb14La4y4Uo59c0ul4e2b4Zw4+z8OELQq+H339xQomIPISJGOokGj0ePkGIWLi5aXb4QRVPyI5SiEFcP0yXf56ScBEAyWhWRQ4e9YEkmeIU8thkn+jSvOCBB6/NAYd9dRikNDBVeutidjRicePfyATpWIzlRu2Jlhg67JKHvLoBcFIIxi8/p4uv4wkVWrKlG5UiXmz9tBmrSuEp27p0mgZYsqrF11kfcRigKOT1QzcuReIj9GJwMI/uTxGy1Nwsb4neAtDfFKW5ypk1fzfUA2Zk47yZXrr0ib1vEbAILwq6lwSaXh7t0e3L/1nJx+aXjw0JkypaeiS4Sa1T0UgJBjMO8/WAAEP3uuXu1JhQorJNruM7ACI4ZcYuasHVIR9eyVl2nTaks/vV5vQ8i9UOnGaNhAAARLC4KYMzqu3WjFyePudOw0+7MAYe+uEwwcmI9mLVpQtPAQeaIRG5iNjZrJUwLQaEQqbdLLxUlHqza52LTpEa/DhPnXeIcyL4S8T5+IZN26faYvCtkOHFSIceMqEx3pxJEj56hcpQplS07kzOVOfHj3nvh44XsXp11hctXjkdaObp1vsGTZwb99CitBEyppQVi7pj0+PnMlQNCo1KT10uKeKiu3bt/DNZWe23fbERVZkBw5e5MgjtGGywAPpZ+7QsW07Py9nZzXke9dqFhhItdudDVYEP5VgAB1ArzYuqkHrVqeQKW9xrJlbcjmO5/noe8Nkk62AC0AgrAgCNIeY2qxt7cdN+/0IF+OxfT5sQJPH39k/pxDfIxSsXVXabJlrmYKUlTSbI0AoRIZM7aQEffibXXrerFpc1eOHb9A6dJF+PHHQ8yZdUjCqUNHBECIpnevnRYAQUdgE2/Wru1AZt+pBPUsSfegWvTqsZOly0QALgwYmJ+JE+qi08dLUBr6PA7v9Da4OBpdDGZrZyoXFU+eDWLy+HtMnvILZ8+2TwEgrOXY0QvM/6kcFSq2pGCBLop75m+BCEpbvLxsufugB8vmPSRe9YyqVQpRqMjP2NmpuHi5G53a7+aPEw9oKADCyvp4eysAIen8Me7jijvG2VnL40ddaNdxK1UqirTnRPLmTY9/6awsWXFMxixUKJOOPH5Z+HnZCRl/pFV5ENRjm8ms7pcnFctX1KBYER8ZXO1gM4IEUyaU8e2CxE1HbGw3zpzOiH+ZEcq6swxeFMGlehVdu+VgxPAm5Mg2AUdnW1OQohkg1CB/gda42EPI07EENtjA4SPXTPEF5pFTIYKVq1UVgc9xePvomTWvET/PvcahA/dkw4oUgmEjmtCoyW62bj1kdr1YHDZSsor/IwCCZElUw+07PVi26C5Tpu1RRlMPA370Z+iQhqTxGGAI3FHOxAIRCqa+BOmHMqpt40ku+db+Lfvst2j8P+9FEd+YPLUAHdoH4OkxRp7CMmaw4+bdDkR/dGHRz8eJiVWCSXLl0dM4sDrVKv3O8RMizc3MMCbk8ypsLJvXR9Kt+zQKFbbj8JHB7N19BY+0HhIyOThGUaxoVs6dCUPE7ghzbFyimmZN1/D6zVsDYbDRguCPn5841QjfquJV3hTcBG/P4tSs0Z9lq2pTuFAJ6tdewss3YTx4PJwKZVekYEEQMQin2Lr1DLb2ambOKUNg05r4F5tNpixaNm5px9FD4TSsO5dq1RQLQs5kACGPnz1Xrvagxw9H6D+gNvPn7uPEieckSBeliDnRUrlKalxcUnHubAjnzjzn1t3OBDZJ7mJQ0pjm/1SRls06ky59C7Zs/p53pjRHxYLQoPEeDh88yblLLTl0wI6ePRabIodtbFXs3DkYO5soxd1l8CZr9Hq8vaPJkiUTH6NDUaudOHs+Cp1wewm/peHas/s9U6aukxuOCJnJnM2ZI8db8TFSR+pU+cieNYhrd3py6bye8+cvULJkKsqWzsP0acfp1qsIl8595Ngft9m+LZRLyTIivmUWf/0e5fQvghTXrW1PJp+5RMfF071bboYMb0SnVgdZv+kArdtm5+eFDencfi8r1yp59cZVJRRvy7a5aNmyKGXK+krAu3jxQwb0W09snJ7o2CCqVNrN0aPC921M6ft6y4wvEXLbuSOAbNlzkyvXBHx9XbhxpwsjBl9hxox9kq/hk9WqUlEgnzsiSNHVdQofo42WBjXeGex5ENKdrBkXUaiEE/N/asXhvW/p1nkFm3f4ky2zyGIwuBiSWRB8DC6GXH7OHD/ZhcMHYmnaZC5LVlamQYNK1K6xmD+OP+aQdDEYAYIiKdHKphIgtKd+g3XMnNaKOTN3cfZ8GIl6wTsB9rZqatb0lO7Ty9ceEvY6gn0HO+PqPJMYUwyCIkOx5x0+3I38eSrg5d2MUyfbcfcTC8Jqzp27wo073Zk17SmzZgm3XNLrW3a6z4+WEnRZo4Y3xw+/YsSY4lSvWoBCRRZia6/i5et+NA7Yyf79N2nQwJf16wKYPPko8UpUrzxEhNxzZcMGke1hjBUDJ2c1jx93pVGjvRw5cg99op4+Qf4MHFQbH+/h0oIwZUpB2revSWqP8ebYKcOkKVQ4LYeP9yQ2MoEzZ05Rq1Z57LXDLBJpzWBeq9UTF9uD0xIgDFZiIcSMkvPKvMcXyO/EqVODKFN6Jk+fR6UAEGpSoGArxo0uQKcubciZbSjhEUoQrCJjxX2uXMpzRY9bt8vMz4s7UarwUq5eeyR1gkg7XrmqB+XLbebkqfPm1Sa//vkRc/2nWBDy53fi+PFB7NrxmHv3P6AiTgYFlSzlRKlSOZgz+xSJeheZjiJY2oS4BU3pqLE7zGQ/Evl9WaDfuE39Tbcpk2Ll6koUKVyEgvmmy3myYkUFatbJha2tM8Hr39O96yps7HRcuNqTe3fjqV17ITqZ32ScrHrJgyAsCI9C3nP5cgiZssSTPUsV8voNpH5AER7ce0bExw9cuDCPwvmH075LMa5fe8OK5adJQAQwKtPVGIOQNm05SpQcK6OhxWfi7xWrv8fLsyq1aoiAMT0LFtVmz65I9h44xc07Q6n4BYBw4MAV5v9cmoZNStOh/X7WrL0oTbuNmviydnUTmjcIJibuLctTAAi58zhw7UoQfjmX8jDkLXYOesIi+slTtQjuEwFtInAxIbYIqRzbYmsLb9/3TAEgKMNWT5w+N3chS7bZ/DS/wicAoWGj3bi5h7FgaTP8ckzg+TPhX5c0TfLkImPtDfuJkZDJyVbDhcuN0Mf7s3jZIsaObUnZ8nO5eF6koerMDM6S30Fph2dqey5d68SrF6lZvXY3gwa3wDttL/r9WB6dLgPTpq5n0KD89OpRH2+fcVy52Z7VS58zZeou0/z7a5t5CtPY0K/mgV6sXduKwYP2M2BweZyctBzYE0vrFsuws4vj1IXOeHq6MGbkOSZPFWml5qhqIaVmLTLQtk1dpk/ezuZtvWjdOphft5yU/t+PMf2pXGEHx47/CwABqF8vHVu2NGbqpKcMGbZd7gPHTwWQLUsVChcYQeiLd5+yc6rUFMjnJgFCGo+pqDXGlFc16dNruXilO8UKLCc0NJyCRVMxbFhrmjdZxtI1+cniK1wMCg+CpQWhdKnSZPBpT4lSHmzZGkBiXDoK5ZtL2Ptw1Bo9R440JEuWnOTJOZ1tO+taAARF7uJ5woKwfl0X1Daj0KAloG4a1m9paeHOUvg+7t7yJH++vuQv4MwZEUfhNMsCIBgVDDRt6sX6tb3JmHE827c1/gQgCB6E7DnVTJkeiK/3YCI+miNGjLPh75pT8vAzpQzVq+aXMQhOziqeh46kdo1VHP8jhAYBmdi0KYCnLyJQGfI19dhz/LAnrVuPNahlZUI6O6t4/KQTjRof4ODBOzIGbfWaCpTyL0+2bGOlLKdOLSYBgkfqcUpsixGYi4BqFfTpW4UF847RpqMXc2Z3w0E7lARToJ+yvsWPVpsgs6/OnM5AqTKDzA6hZHw4bm5qHjzozKwZIfy88EiKFoTChVtx605bVix5zviJe78SJKi4E9atq0zREoXxyz7NhLr79s/B+Alt8c04m9CXrwx7tQjENM6klEftHwAQFJT149C8DPrxO148c0alScRG84J0Xhq0akcZkPLoqVhINgoJkjCnu8ZKP31m30mKP1S4JGx1OLkomE0GBH3jShBzNy5GT0z0175gRoRfu9OIGoWb5PS5lty8oqFN21XkyePGxcvd6dp+Fx8iXrL2l86sWXkDPc9oElif/HnG8Oipwp5oRo5GgDCGa5f0lCrtw5Mnb2jeaA4OrjHs2N2ZxfOfs3TxZi5emUbh/KPp9EMOOnSuxuhhZ5g+XfhFkwIE34z5UWvV0k+m0tugJh47e+EXs5HAS8hTKMdENEyacIShw+tQQRAlWcQgiDTH2LggRg2/SadufqT1SE/QD+tZuuqyzDIRPPy2mgSWryxPWf/2BAX1Z+GSQZ9YEARAuHq5F7kkQHiDg5OGN+9m4V9sLM+eiZM8zPm5EPXqdMXZoTW2tnoFIDQ+wbbfLV0MitSyZnflyqVxFCkykZkzi1sQJWl582IEDRvuZvT4/Dx5DA0bLE7C7GgMnTOaB+WBUqWj/8BCDBtaF78c03nz7iNXrrfhzWsvypeeLElbks8H8f2+/bPTJ6g7FcuMo3L1nIwd15QMXv1IlNk5yt6wcmUlShStQ+58/bhysx1rlr1g6tRdJrePkQ3zS4j1z9m11KjUOkaPzMXwoVWJVzlx6UIC7Vst49bt94gx3fZ7IOXL5+bg/vPUrJWf3bujadJgLlFxCcZcHkPKrBKs9vLtRNq0/ZVtW89QpLAjx0/1oVjhZVy5Kngc/lzr0nvZcPFqByLepqNooXEmS0C6NBpuhQSx+/cPNG++jMREy6BixW0iAcK5zlSo/BO7d3eWsUxStap0ONrHEBPtpARYqhLQqdS8e5Oeaze2kNVXSXP8FCCUZe7PSxg81J/7t+0oV3oSEZEiFkNcanJld+DClR/p3PYQnX/w+CxA2LC+KyrNCCmJBnW9+GnxD5QqPoWoKIWbZcuO0rg51yB/3gHkL+DIaWEFSREgqHB11fL4wTQKFRlHcPD3MkixSdMxMsDtXdh0atdZxbzFFbh49iOtWywxcE0kDbj9tr3r62ckxTpahupVClOoyHzSeam5HzKcimUXcu78Cxo1zMTK5fVkpsyHCMX3LteV2FvMlFkGgCAsCJ1o0uQABw48IFMmNZevdGffnmiaBC6UOmDKtMJ0SA4QZGcUC4tw9QgF3KVHJmbP6poCQFDuNQMEH8leaIoYSYEw7/69nuzcnsjYCct49nQu+fONlkRJSgxCDVatnM3YCQ0pWGgOt28YUhw/Kzo1zo56Hj7pwoL5YYwcGazkUOi1TJlWiE6d60g3tIEhRrE/GACC2RKR9OGphAUhbDgnz6albJkfkmxEf9c4f30mfNsdf24nMD1TBBFBzjxu5CuYlV9/OUsZ/9QsWlYTJ4ccHNx3jsaNq+KRpq9CQymTQXWMGFGUmrWq4V9qqiEdRE3tel4Eb+4oIxVkmo2BA8FY00DkEie/lCI8Oo4cjqZKtWlf7KlQeMoTREDb1+PHxP3OVC9LAAAgAElEQVSZfFTcvNeFQX2us3zlYXbtD8Q9lR8liownJk5P8xY+LFsRiIhSrFdvE7t2hxh8mEqwnPESFoSXb8bz6y+x/NB9ogRJVaqnZvnqJlw8J04ms8iezZGLV2eQL894QkKeMXBIYX4cUo0GdTdwYJ8SGSzaf+hYDbzTFadVq9WSd8AYu20kDTFnnCt56+Efwjl1pi8Vyqzg7AUzX4RIdUqI601g4Al8Mrlx5MAdLl15ZEDFhufqdTi72MgxK13anVVrBpMr1yDeyqh45UoKEMJwcFbz9v1kJo49xIcP4jkxNG3lRIG8DXC2byN9nWHvehDY5KRFFoORpwJsbLQ42qsJj4xn+466hL/LRMuW8yS/QOiLUTRp/Ds3b92TFpxbtwRzmTElTomeV0JNlE1VyH3YyKL0G1iL0UOvMX3GVgkI6gVkZO0vLdmyIYz2bRYZQILRZKqMm5huSvExPZ06lmDc2OZ4eQcZcrLVODsLt1onli76wOhRG7h0vTXrVoQxZepOAhrmpGEjf9q3XU90rJLqmtKlzEdl6X3LhlCzuhdjJ5SjQKFM3LqewMgRJ9i146JMH1WrE1m1vir1A0oyYshp5s4+QOcuuZkxsxabfgmnfdtlxIhiaTIwT1w6RJDiq7fjaN/6d7ZtPcXc+ZVp1SaQ9Om68iHCGKdhXHeWq8b8mXGDzprViX0Hm+LllYGqFTdw6vQdUwCaOHv1G5BHbsYL5t6kX9+NIvRMITsTf6t0JqKkzBmnkS2Ht4W4lBOm0booHWoqNYnxaoaN8iKrTHM0MimKr+llFkPpUpWoXK0Hdev489O8/XyMjEuSvy7a5Jfbnbu33rD3cCOLGATzq4WLYf267qi0w+SGX7eeF8tX9mTqxAMkxLsIsnC69EpFbFRxCuTtT/78Lp8BCGKfTEQUi7KzVRMTm8iZc524fzcDTZuOQiMAwttpfF97NaEvnvPxYxxPnr43KE/FVWe8vjRPFIbTL26Dpl8K6QsLQrWq+Slc5Gc6d/Jh3s9NuXUdWjbbTK7cepYur4FvhtW8i4g2zBnjSV5JBjVSrNep483GLfVZsyKCHj1Xs/9IY3Lm8KNE4Z949ERh0Zw4rTjt2tckXWrhYhBrLT5ZiroyL7v1zMTsmZ1x0A5PYkFQZKBGo9URFxPEmTMCIPSXs0jOzE86riajjzOhzyJxTyNiEOZSIO8Y7j54wv4DLfH0qIWwIFSu4s+efaekHkn5qKCsUKGXtu+pJzkvShSZxJOnH6V1TJzEVq6pRoGCBSmYX+izpJfUj9ndKVIomzzAWR4c7R1jWLL8e+7cTsvI4esNXzTrOZF5d/T4dUJD338FqlvSlH3b+P/Zu/5FgKBUNsuf1xn/0jmoWi0zVarl4eyZF/TotomGjQozbGhjXN170Kh+LooUzszDR6H07FOMMycdaNt+vkGh6sjk60alSsVlRL6ZOUvZOhU2qs9vss+eh0u2uC9dIpBrwsT6ZMlqT79++3jy5PP88BLNqnRs2vwd1apVpXCB0QT1zUvzlt9RwX8ht24/oXRZT8ZPrE62rJ5Ehn8knVd65s35g4WLT/Dk2UeDT0yZDkJRvRAAYWMsXbpMpGYtH9ZubM7+vWF0bL+Cj+Gx5MzhwKXr88mbeyj37oViZ69i+ZrK1KrZEL9sQ3gp85NFLYYaZM9alBEjfjd099MdwXjCFZITLGcTJwVSrrSoxWABEDSQENOLxk1OE7z1tIV4TekTpohmYeWpUTUNa9cNImeuIbx9a1Z6efI4cOVyT3LlXMbDh2+wd9RwP2SUovjkEV5YjWIh3o+MPsKCkMi7Dz/QpPEptlsEKRoOjIpLwpAqt23n94S/TU/rlgtxcrHh6YshBDbexe7dIrrZ2EuRVy/WnbJIZDErPfjlcGTi5OpUr5mXiePPMW68yBhRviXmbP8fizBqbG3273pF906rePoi5rNqukunkowVACF9bzmgYmzWrqtLkcKFKVFiGm/fRHLxWhvWr3zK5CkHmDi1GK1bBZDJZwRxIj/+M5do64KFDYlPcCWo9wri47+c716qVHrWrm/LzKmnWLb8GNExIoFM5JA7smBxTSpWyc+YkSeZOmWPEgimhsGD8zJseAOGDPqDmTMPmE7QoknCmvPq7WQ6tt7Gnj2nuHG3Cwd2J9KuwwKTcldOeIriTQlWiz40b56DydOq4OKUnuZNg/l9l6B9NsbgiIWr1E4YO74UA/rXZOPaB3TuvJoo2V+hqiFffjfOne/IgD77iLLg4UpRdNLCmECPXtmwtS1C7hQAgn+psvj4tJWVKo1zwnKlKMydIo9BzYEjDb4AEH5ApR0q10e1mt6sXN1FzlGRxy8pmFUJ3L/rRrkyfcmX34kzF7rh6mSMQVC2VXEuMm5f0lWoglNn2xBy15sWzSeKTD3CwiZR97vVHDmmpMYp3zS4WuQEN4/CJzJRwcQJ9fFKl5q+/bZYENB9fkc0AoSqVfJRvvxiQkO7ERpqx4OQRxQrloNrN25TpHB6ShZdxZPnkYhprBHEUZLtT8fHWNFCHe3a5mL69AB2bj9F3YAinDzxloePHrNt60t27bluSvXu0DU71aoXoGlDEVehfFfIUSf7ZlQ/arpLgNAJB60IUjSvHQUkCguCntjYnpw+lQn/skkBgpSxiT5esUAJq4RHWhseP5pGkQLjuXf/BXv2N8YrTU3yF+psYFJV5rcAGZ9W6FWRyknDzFmVaNWmOq2ab2DP/ouEhyucLhp1ImcvNOPWDSeaN1/yCUAQc69v/6JMGt/GAKksRlKmzsYbiKcswYPRoeJMQP257BSW1i8caoVsJk2uRZo0Genday2Rkf9HdWD+LKoQdKgnT/UlVzZbYmKiOXP2Hb8G35R1BEQQz8DB5Rk2pAlu7j9QrnQGhg2vgncGJ1691NK791YuX3lqCCwxGmY+iwO+2DTJr/CVxgv0fupUb4oWVpO/0GauX/+UN9v4CJFp4ZfLiYuXujNnxkMSVA8J6lud2dMuc/HyXb6v50mjRpU4duQVAwYGS8U4fkwNGjbOjL2jN2tXH+K3rW/Yf0BQ+ZoBQvDGOLp2GYOjk4qgPjWZOWMXnuk8ZW5v8ZJOrFo1Aj+/ETy4HypNrO4eNgQF1WDCuO3ExCiL5eCx6viXLMizp6JIT9Ic/qQiEBNe0OWqyZAhG2VlsaakFoS42J40aSwAwhlFDUh9bjSNCZ0r2AcdyZ4rA9WqpKJvUFNy5BrEu7fmhSssCJcv98Qv5zJCQt4opkKNsSaDEWwoJ/r69QuDOpbVayrTsMEJdu68IBelWERXbwzA1dXJkKQnFEA8rm4fUePKu7fieeGk9VTz7oML0TGWG6aNZJwcNWqjzMUvUsSbOnU96d+vFu/DYMSIgyxfeVrGv4iTqgAPxr52/SEP48bWxlbrKRkrN2y4ypswS5pZRaICIIwb14wiBYdQsYoPw0ZWwc7GjfZtgjl89K7MCDh1trUEtvv2XqdZi6Ic3qejXXthJv78zBRAJexDV+JjcuHr05/o2C/X3JRc9JJkRowtqDXQrkM+pk6pjY3GmaE/Huannw8qgYAix1ycWlVq9uxvToniBSmQZwKPnryXCqpM2byo1B/4fU832jbfQa584Ywc3pyypRZy9vwji1Z/GSBMnV6VHr1Kcu92Al06beDESWGFMlgpLAMSVQrFcL9+BRkxqiZv3jhSodx0Hj8Ol+ORN5875y+15tnTD+h0YrP8vINDEDaJGBlPTxVPn2Y0AASjkhEWhE4oAKGNBAiWNhDzGoeSJXOiIoZFSytw8OA7meZoeVlaEGR7VEJBKSdnJSJIsVYJ/33lKgXxySiyaKrg6jzDFIMgskuOHh+Co70WrcGypVPF4J42QdJWf3gnYMYH0nvaE/7OiVjhIlQiY2S63Yghe1i12lzRMMXZpIKb13qRM0d6MvpO53no1yvmCglOmlKaalVzMnvucZYtaUS9uts4cPAG/fqXoFnL3OTIngYSMyjkQNKiK+J19Jz6Q0WVKkFMmlaKrl2qsXTxHfr2+YWSpd0ZM646/v7ZiYpw42FIiOR8EDTfIjXQztYGJ6fUuKRywMXZl44dN7BtpyAUSwYQZnQyZDEo60HIvXIVP5ydHHFwjGP9msocOZqOipUHS8po0Sa5jwDBvzWjWDG/JDFgavUH0qV1JuyVhriEODzSiNRwd16FKdknyqXi/Ts1hQuYWTmd7NVUq56NwUOLUaBAHgb03c/PC44xfXotqtfIz9EjJ9FrEujQ0Z+BfW4ze44g2kp6yXwPrQh6Vl706fgZA4GTntHFp+InLkEJiP38LqJ87/at1mT0LUSmDCMlj87fff2LFgQVbdpUkCx6mzcdlgyBZvQrUsSqMXxYIO6uHU3V5OSLDB1Ofl76FxvxzbJIQun9lW9VquzJjFktCai9kmVrAzh68A0nT57ll41NuXo1glnTrrL1t1PKicxwerWxFZkbZakXkJND+xP5ceAK+Raxkb94M5FN66Po+cN4A2pWYi2GjKjIsBFV0CfGEHLfhQplxhP2NlKpTSCkqRI1582NPfRHPdJ7FidvjmGmTfRzXRHbmEdaR0KejFV8i+dumyaaOLFHRw+nWeO9bP1NFIZSLDdJzZR6SpXxYv/Bruj18Zw7G03DeksJs1CiOfPYc+7sQPLl+4knD8MURZwE7yokKAIE3Lrbg4zeLjx/rKFi1Xk8eSYY/hQmvclT2+Lk6Goyp35qMDLOLEuDvGhzIgf23yR4y1F8Mjmyc28nHB2jOboPBg5Yzdu30aZ6nyZ3leSJUECLk6OG9RvqUNI/D7NnPGLCxHXmhWzwfHTqXIzpM6rz5PkLsmZJxx9Ho+jeZT337r8yJWJVr5mOEaOqYGuXyMvnHrRutoS3HxSz9ucu8f7MWRw4cWIBWTO3/ypASHoOVZ48c355/EsWpt538xTiGONZX6IJWY4PMS/7BNVj2pStksVSgOVzl/uROas9Ya8TaNFkFdPnVODy2UR69vwl2WnlcwBBWa3FSrjTqkUD+gYtk0MpW5W8Jrlsh3Eb1pM1e2pmzQ2kScAyWd1VXHnyenD+Qn/SpRa8DYK18ssLVHRv607Ba1KF/PkGK2ZrCQB1bN7cnbJlSpIhQ2uZPZXSJRTk6rUB0soZExvL0MFHmT9fKCvz1aiRDytXdMfJeahBqipZNMjowlLu1GPvoOL2ncGkSa3j3l0dhYpMM6WWChbF0WM6YmujuGOTzmvjnBancoO1zSAoWa1Vlcja1Uc4cfKGqVGfOwrZquD6rQGU9l/E67efgtzkMhDtmDSlDA0a5CM83I7w9y7UrDWJWANIFd3MmzcVJUsWwdvHC0dHZ7Q2Omy19syatoqHjyMZNqoOD+6EsXa9MNEbe6YjWzZnGjSsSkaftIbXWvZcYVvVJ7oyZvRywt4JWmeDpQXo1D0bc2f1wNG2rwRJxsyEpSvq0KRBYQmdBB17q9bbOXTkNmq9SuGhketZTVBQHXLm8jVxDxh5TZKqZ4Mb25DppLw/nogIPYMGLlR0mFpYa1tSvFhmrl+LpFO7X7h8NVTOyzLlctKrXxG8vVU4Odhw+5oLndov5GO0ov+SXpYjntKk/qtaT8lMsdHAjdujKVJwIhGRwhr6915/tZUptsbDQ42npyu3bir0ncZd4u9u/N8rCvPTLJWlaL1W+Ar0idLcJieRCXEok0AELQkft+DaExYAnaEWg5hsVatn4MUzlSQPMl7inlSuenLkdOD1iziePxXmJmmUNAAEZYlYutdEOpKY9MY69J8qUvF046fCtpko/f7xIh1T7tOK9MUdwgetS9DLd0objhHlWrh5xKlPo1VOrQKoJOcHF30ToRDxktnJkuLYGFwl4k5UqNSizLWy8ET7BbeC9CcbOqecyAzEOH9yQM09Ao1WFBQSzxYxJ8Lnbp5tKQEE4wYkQJxgCE8SE2DQsZWr5CQwsCJ9+yzDL7cT58+bN2DRbbFJiddo1GpJySw2VyHrlLyall0TPf6hdz7q1m7BdzWHk6D7fIVEpWWWG61imzAy/BmJYky9lVPA4JrTGYGfUVIqk5VHjINoq7Giudjok1rkvmxBUGaaQq8rCyCleF439jrZypf/VWiMxTwTaapxsUnne8pTQWmjmL8iMDMmxmAdkocPDbbaRDnHhAfjc0BDhuGq9ZICXqQUi3uVqWjcp5Rywhq1jnhBsa0XcTdKb5VRMK4xRdkIq5nUkTrxPLNPXLH6iHWjAOfk6/Vze2HSDdn4LSNN9qcqqF59LwYO7ECZ0hO+wZ6qtL9EKXfSezmz/bfHco0aCwwbs4KMRYeUdWOx38nXGyvbGiRikp3Y+8xyMkwMxd1o2viUDVRUvzXGEBkVuBhPEVsVHycsKIqbQFrCDJwv8jU6GY0g2StFMHuiCSAYc70UPowvnbs/nVeKxI1AR0i6QiVPdPFqjv3xUrEEWg6WcX2JlGi1Moe+YCv8rIvuT251Kd4uxN25W1Zq1fiOhvV/kmm4f67vX2/FXwQIdqaSvklflTTw6+vN+M+6Q1KBCj+YPOQKhSMmv0LEYWQ6lMvDNPmNG7hYPIo5+8uXhB0KW5zJ9mJQsnKR6eRJ90vX5wGCeVMxqH+DD8xgtkt2mvnEmiP9jYp1ROy2lht/8oAgaSSTNxuVibKszW0zsxya+6n0KvmzzBvv12Rn3KoVP7a5j8bvKXJLsqYN5nmx8Rvfq2zvYpyVDcVy2zfqCvN2Z36aKedaAARjqJQ8xRjVgEJL/KWTsBjiZk1LsmPbRT5+FB7XL8cgJAcIps3X6NO17K9xAzOJwxD1K4sXiTlgfJey9JVIACEHETxmKbdvAQgGGZpOZMkln3wsjST+ivTNFifRFvG+L7taLJW45I00WEqMOkoQj8m1Y2xPCkvIDEgVOZjqcSRrqpSO8aSQRPEZZ4VxbYhIfGXslYA3y0tZQ2aWzmS/+wQ2iN9bjo95JSnz9JOn065tFX7ffYYXL0QW1dc2HnNGl6VNw6zijOrAOPbG/xtnhuXvje8yttHcvpT3JuO6Vcq+mwGCJcxX1rNxNRoih+TBS5kx4lJSJZVdUlnPxvgO0x5jCUqMIktpEIwTR84jg+VWPtlokUuyK5ggonGuGrMUvgwQvry2v2W3+9w94kAS1LsuK1cc5N37yK/sIv/am/4iQPjS1//io/+1/vxN37Jsu/Lv5FPl0xd9/Y6k3zEUPkn2oK8t8a938Nva8W13GRd1yq36+gh//Y6v9+dLdyR//v/1+z4/6pa/+ZYx/Hb5/zUJmb/9eVn9tbb8/5e50qdP+/P1DdukLUxr+lvG6l8fgb8m2W957//NG5Kr+ORS+qtvTXnO/NWnfou8Pn+PuU1fbse/a76n3PL/a5n9Z/X2r42w9dtWCVglYJWAVQJWCVgl8DdJwAoQ/iZBWh9jlYBVAlYJWCVglcD/kgSsAOF/aTStfbFKwCoBqwSsErBK4G+SgBUg/E2CtD7GKgGrBKwSsErAKoH/JQlYAcIXRvNfEY4xaMQco22Me08aBGP5v6/TPRkbKb4lfkT8rmUWsSVHwJ+bnp+GI1lW8vtyMJHyW2P077e+92thYclblNJzPx80+W2tSE409fWR/nxMf/IwIctnKb9T6IN0ctQ+lbdlNPjXZPNtvbPeZZWAVQJWCfwdEvj6zvh3vOW/7hmW6UDGHIZv27wVxW0Uq1ERKWrBmBhlVhJKyk9KKUxJRSbSRhUlY/xbUVji29/6jJQHwdwWYxsNn8i/lHKqyS8jOFHuMKQKfqr5viHt6tM2mSRv0rspAYakCXlm+PSt4EIZH3OClZHHwSjjpH0Wn5q4300jKf5hKQnj2BifpRSiUSCUSI/9fDKjkoGl5IZ/2yz7r1tQ1gZbJWCVwH+hBKwA4TODVr9BYaI+wr49F//Upq2oDKUQzchxZTh94iO/77xkUufi9wULubFrzxAK5x/Gy1dx3/B8LU7OejZu6cHAvtu4fj1E1nk4crwfY0YeYu/eCworSwr8Al+ak0Z1alKrKnBx0eKbxYnMWX04deIer14qjHeWl7i/1ndFcXJ0Ijj4uKGQUfK7/jVVJ3J7R46uxPZtTzl/7m6KzU/pyVqtGnd3hWDl85fyzTevFWIi83OM9oGUc5YlQFBBQMNCshrp74IqWj7BEiAobxUlhStVysqli6G8DYuWb8mc2d5MrpWCNCVBkU7F48fRX+W/+C/cY6xNtkrAKoH/UglYAYJpo0+qdo7+0ZZXz7U0bvxpIY6kiiHpadaoMoS+vvuwDcsXhzN+nChUYlZIRYu4cvjYEHJnH8WzUAEQlMqEnxKWKGDDRqsnqL/gsm9MPr9ZPHz4WpbsDY+YStu2W9mw4Th+uVzJls2LXbvvSHYv5VJUv7e3ExkzuSikIoLxUa382GjV2NhARh87ihbLRIXKZcmeww09Ybx7n8iR/c40bzHyEyOCUKdH/uiCm6sfBfL1keDkU6WdlIHM0rhu72CDh4ezBT+d0lrJTqiO4dqtNkwY9YR1a/8wPddMQwQJCVpCXwp6Z6NU9RQo6Mu5sz3Qiwo4JBpIeJKvStEmR5ydexEXl7QgjK2dmt79ihPxPlIWFXr7Ptri3YokDx6vy8sXLjRttDYZQDDOARXOLrZcvNqeezd0NG26msjIaCKjR6DVqFCIfJQf8afRwiCIfRJ1qUnjNojIr1Ys+i/daazNtkrAKoH/OglYAYLc+o0sboo4BC3w2bPtuH5ZRdv2yyxYvNTY29sYyi1bKmEVEZHitGhQy5KGF+49bMXKJdGMHbfZwNennHCLFHXmyLGh+GUfyfPnQhGlNAyKchff+L6uKKvankULQujRc4383EarIjpiGl26/YqHaygTpwRy6ZoH5csPlmVjzSBGT716OVi/rrakkBXKXFCVKgT6CTg6qImJdiY01InXYeJ0fIpFS3YS+lLyFqd4iTZdvNqRsNfpaNRgWoq3JaE6Fk/RaQmPjCNRl0ijQB9Wr+uIraQCVuoGKABB/C1Y0gQrnJPCXGlgaVRYAJX77oVkJ3ee1iSYGIr1FCycntMn25Al60+8eqEUAkp+eWew4fqNgbinmUh8rFmpG++r+V161q1vjFrvx8C+U5i/oJNku5TwRxSF0bwHlRN6vYNhTigMbz/+eFGWlDayNLo4C2tAb5Yte8qA/ltQqUXtCLB30FC0uBuXL4XzMSoB30yObN5SFb8cOfllfTht2i/8r9tArA22SsAqgf9dCVgBgkmpG2hRDRzqV6+25fihcLr2DJZ3CIUvuNbXbqhOndqiGpyg/BTUsfHodKlInXqSqVCLqIFgq4Er11uyflUEP/28A4dU7vy+c4RUcXb2b/FKH8OzJ2nQ6ZzQkcDbN56ULNXEghNcnKb1VKuRjs2bW5CQoCGj1ywiouPla50cVXx4O5iYuFhsNGkI6vcrK1de5GOU4I63vFTSSuDmai/N5KIBCaJSWKJQWjpevpnGnu3RNGg8mPhEIx++KQAghZmvRAk8ftiGdBlciYtTAiaTowkFWyh/Ch98fLwPhQrN4eHDl7i4aPBMl8oUsOfioqJe/QwcPfyKkIexkqZYNlUFHbv4sn3rM16/FlYB5YqLV/FEVv8z8uQrAOHUqTZk8l3I6xdKiWxLOlnxP58MWm7eGkhqj8nEx31a/0A83yO1DVeuD+KXdUfInt1Txn2I03/5ip7YaNJzQFTqlLSs4umCh1/HksVP+fW3c0lkNWRQMYaNaEmNGks5duy6bPuypW0IbJqRuNgEPkaBu4eWxw8TCGy4mJt33sgKbp8yBP7vbj7WnlklYJXAf7YErADBoEjEKe/y9d6kdrVHo4rFw0NHTKwT7yIEnXoiatJQvvQsps4sRGpXF8aM+UNu+gEBnnTtVhtHx/HEJyrKsnxld1Yt64aDwwvi49KSoFNRvdoCJk0OBH0CHqkjKV0mC3v2PiM2Rk+VahmJjSqId/pmJMqStqIgjZ7J08rTpl0FIsLfkMrZGQ/36dhqdXTrXpAfepYgcyZXft/xnqCgYEIev1VOsGro3rMkq5dfJjzCED9gqGAoAYI8WytIQZzKP8bOY9e2GBo2GkiCQQMLMCSUn/Jn8sLFGmw0iYS+aM/69a/ZteuGMfwhyUxPAhBE5TWdPYeP3CMmRrhUxG+Veh3iX2nT2rFhQx0KFsxHicJzefQkTL67fsMMrNsQyIgfnzBtxkaT0pcc7AZTvRE0FCzkzcnT7cmWaT4vXr5LkZfcJ4MNN28NxsNjLHFxluYRFba2WllwSZ+gJlfO9Nx78Iy4BCUmIa2HLfcf9SSox2mWrzhOpsyOFMifm53blXrtSs36pAvdzkZF8eI+nDn3jBq1fOjYoQR2Wi3eGbTkyJlKFhwS1fTOngklOlbU+nAieGs4y5Zu/s/eMayts0rAKoF/jASsAMF4LlXpadu+HPb2dmiIYdToApw7E8+2bffJkV1Dz6DS5Mm1lIlTCqFLcKZp4EapPnv1zMyUaa1xdBwnAYJQwjNmFade7erYO7xk59ZwAlt7snN7Ii1aLJLxBpXKe7Bz92ByZB/K8+ex3Lw1Cje37Hh7tSZRL6rNwaq1jahcxZfJE88TGfWYGdPrM3jwWX7sXwgXZxe2b7tC81YlaNV8Exs2XTIUTVKRNp2WO/eH0rzR7+zadVaBP3rw8/OiVesKpmIwEiKoEwjqm4+HDzRsDb5mSJ5UlJ0u0YbRI9ciDrVJQ/e0pHHTcf9Rb7p0OsLGTRdTXCxKNUpFfacUoWBro2bIkAZoNLKMJa6ucXTtnpO9u99z+fIH7Ozj6NQ1OxpNKn6ae5WYWEjU2fLHsWfsO3DM9E4TQCiYgZOn29Ko7irevBWFS0TRJIum6cEzrZZfNnfBw32yIQZB0erC9L9qXQty+2WibYsFXLr4Hp0s8SisL3q2BNekTKma5Mszkhev3zNkWAX6D6zKyuU3GPzjFmJihCVDKTvr7HF94tcAACAASURBVKTCzU1JbBTvf/tWR5euOZk0qTk7fjsjnymCKctXyMm27TdkgKewQtT5rgiz50UycMCsf8zmY+2oVQJWCfxnS8AKECzLMEmFIkq96nn6vAPzZrxg0uRdVKmcgd/3diJ3zgVMmlaExHgzQOjZKzNTprbGyQAQhE8/9OVIDvz+mqKlIlix5CNOLk9o0qwVWbP2RpeQSO3vvFi/sTe5so0m9GUMN2+Px801B97pA9HJ0slgY6PDI7UjL19F0apNNubMqUud71bQsUMtxo3bybPHH3j1djC6xFTExGqVamQqNVq7cBIS1GTyHk6cwdsgqk7WrpOBTb824fLFKEM+vihrG0/Bwm5EvLfnfkiYoVyoilTOUWTN4oW780TiE6Uh3XR6F4owo4+GO3d/pHfP/Zy/8OyT3H5xs05YKlQJ6BKduXLpbpIDthCzjY2Kdx+GEPo0isjwaFQaHZmza4mMcObVi3g800fi6urK7ZvRqATqUkXglzsz0ye/YfiI+UlaJN6XN1969uxvjEpW1BNv+DQKQXyq0zuQxXcKcfHi94qbQQRs5ivkyuKl9cifJyf+JeZz7doLChVMR+5c9qxc3ZgxI/dy4lSYPPk7OdrSrmMWKlcrwcjhZ5k+ZR+JicIio6b/wAIMH1EdlV6xcQwacBN7x7tMHD+MQoWCEOWZS5RIxbLl7SlYcCpxCVrU2ljOnOzHwkUfGDBwxn/2jmFtnVUCVgn8YyRgBQjJhlps81qNnoiPPejf6z4/L9pHvXrebNjcmdw55jN1ZjHi45xoGviLPBn3kgChFU7CxaDTUaiAG+fO9qRIvgX8trsGy5dHc+jQZUaP6kHNmv2kIg9smp658zqQN8d4Xr2J48btCbi6ZiZDhpYkijiAZBkN1aplZeasKrRsulWpOS9MAjqoVNmdRoHZFB4FnSuPHzkSEQm//XaCfXvug8ocqV+7tmKu93CbToLhY5EqGRE9k907oqgfMNSkdMuW82Hvvg64OY0mwQQQxFQR5Zvj8fd35vjxnqC3N/AgWB7VFYHK07suiuiPhXBzF7EVZpAhTPIiLiI8YhItmwSzbdtpUqe24drdbvTqepRNGy8xZlwJmjavSvZsE7CxVZHFNxUnz/Rn/pxnDBuxwBC8qNg2tKJZ4m/FhyL7IcplS4+LSqhts/1fxDckJhoAjKG0q7Fpzs4art5uRnxUSYoUCOLite6k97IjMfEjCQmOxMTp0CcmokvQEBerQW0bj1cGN6qUW8OpU/clKNFqddhpVag18PxlJ4YOeorW5gFTptYjLsEVjdoGnf4DKk048fFuqPT2oInFVq1nzqxI+g+YaejDZyJE/zFbk7WjVglYJfDvloAVIHwCECB/PnvOX+5Giyan2LLlAk2bpWfFqo5kzTyXWfOKk2ACCFgAhLHSHD9+fBVat2iFX84O3LzZkoXLIjh6+DYTxjVFYyNO7ZDe+zWenvbcvOJEfIIdBYt8BFy5eEnPjwOXcvTYzSQ5+m5u8PhpXxzt3WSAHCqDaUBni0ojyHViSdSl4rtqGzh4+Dxq6d8XWjMBVBJRULuON+s3BOLmOl3GREiFqtHzMXoOu7fHUr/BADNAKOvL3v3tcHMaZQEQzIIK6peNMSM7ULLwWJ49i00xi8HWQcXly4FEfcxNrjzDDSmJhtgHCRD0hEfMoWWTX9i95w+u3OiHvU12smX7QZr/hwwrwKhRddDFF0alCUWtCZVuj8mTwhgmLQiKhUDYNxYsaipP7+gNhFIqDWq1Gx07ziSNhxPr1/ZFLTS2yIQQ8kBFdEwamjcfRkRkpGybQiOhWI9cXR159y5Kck1otSpk0odwBQjwYUgAsbFTEROrp1dQGebNOWEAdoqMpC1Bo+f9h84MG/QIre1jJk/sh2fqzhK9lK3gydbtvciQdhgxMUo4xuPnY1i88C39B8yySIS0goR/9wZpfb9VAv9kCVgBQpLRV7L1e3TPwYw5rSlRaAFXrj+ja/fsTJ/ekmxZ5jJ7XikZgxAoLQgqevXKxNSpbQwxCHq0GjXOrg5EvosgJKQ9i5aGc/rMPZYv7WpQ2hGkTv0ErU20PE2+eZGPRF0cepUtOmzo3HEuu3YbyZkUBeHmruHRo8H07LSRg4deSXP8qbPtGTvyGrt2nUOniuHOg/HUrrGGg4cvGwCCPEcrAQgGgLBhQ1NcXaclAQhR0XPYlQwglDMABNdkAMFoJ8ib34my/oVZufwUcfEJKQIEZyc1d++15fJFe6p/95OFlEVqo+Lbf/t+Bvt+v0elqqm4cxO+rzWb1+9j5PNSu9sybGgVPL1So1Jr2bLhMMtXt2HOnBcMH65YECREUOmJT+hBVLQ3sVHCohGH1iYOJyc3Ujn1wjOtPQ8edSbsdXYS4jWoVAk4OL3Axi4bGXx68eG9AGdGxQ4alYpNW7sweGAwd++84cSpH9BQjOKl2nDlahsWL3jPylXbef5iNM0a/8rO368ashqMwZfJAcIztLYPmDqlKxMmrJBj4Zs5Fc1a+DN10h6Z9qnXJ9B/YCN+nhtF/4HTrQDhn7wjW/tulcB/kASsACEZG5444W/aWIty5RuQOVNHYmM1DBiSg+HDW5DFZzoLFpUmMcGJxiJIUYUMUpw6rQ1ODiJIUTgHhMdeWAr0PAppx6IlEYwbH4zacHK10+q5ebsTd+9pKFHSmdlTHjNm/CaZ5S8ucZo18yIoAEEEtT16PIz2Lbby67bL2GjgQ3QvOrW9zpp1B7C1UxERPpsa1Zdz+MhlxQev8PcaDO4qvqvtzYZfmuLiPF0hTFKp0Gj0xETNZvvOOAICBpimZdmymTi4vy2OzmOkBUE0SkyUnr0qUrhwXukAUekVBf25M67WLpaGDRx49tyOw8eFid6JXj1mESvSNEUMgq2K9x9m0arFLzx7Hsq7sDds2RwgowKEe0L48FVqHZERBSlbdqB0H7x+M465c58xfPhPZm4KlaBz6M2MmaEMHbJJfl6rlg8bNw7Axbm3BAh3H3amnH8wFy88le6ZChUysm3bCDL4BPHhQ1KAIPglHj4PonP7/ezaeZXLF3ui1xenQOHW3LrZmoWLIli27DdevRpF80bBbN1xWQZjCrIjoxtFWDPUGh3vP3Rh2KAnaCRAaETo0wh0OhX2jgm4p7UnNDQRvZRvLOm9UzNvVowVIPwHbY7Wplgl8E+XgBUgJAEIKuxt9Tx42IF9exNo13al9CtPn12ATh0b45VmNGvWViEh3pFGgZtMAGHKtDY4OyhpjsZ6CQIgPAxpy+IlEYwdv1WmFArFXamiGzt2dqBJ48M0b5GGWjWqkSnjICJM/AXGc7qiesX/pAXhiQAIuwj+7Qze6WwJedaVZo1PE/zrGWzt4eOH2VSTAEHQOlsCBOUp39URAKEZLk7TkgCE2KjZ/LYzjgYWAKFc2Ywc2NcGR5dxSQDCwqW1qV6toOB2lEDIHHnwKUWxSh1Lei8db9/Z8yFaI9M9ixToR3RUUoDQLHAT23cclzEGd+92Z9GSa7x/L+zuekr5u5I/TwvSeDaUAOFl2HjmzX0qAYLp1G8ACFOnvebHQevlx999l5Ffg/ubAMKdh50pW+pXE0CoWMGH7dsFQOjDhw+ClMlsQcic1Z4r16ZQssgUbt95ypWLPUnUlaBgkVbcut6KhYsjWS4AwsuRNGtsAAiGHAYR96BIW4Nak8j7D10ZNughGtsQJo2bhINTgCSDKlfem737++Lm2J/EeK0kY3r5dizLllhdDP/0Ddnaf6sE/pMkYAUIFgBBKL3S/mk5eLQzjesHs33nLcn0d/hYXbJmLUTmDGPZvLkWGrUjHbpskyfpjh18GTmqhRKkmBJAWBrBuLG/SlIiwdB48UI3VOo0lCg5gezZ3Th/vgX16xxk195rhrRAoWTMFRXFadTVXcXjJ8Np33wnW7edZdGSujLFsWypBZy/+Aw7O4gM/4nq1Rdz+IhIOzSobpMVwQAQNnxqQTABhAYDcHN1wsvTjiJF07F8WSOcXMYmAQjSjS+O9wbyw5StB8LaoMI7gx0P7/ehVfMNrN8SoqT96TUGYKE3WBBm0ixwMzu2/0E2X2du3e9P2bJLePxY8CDo+KFnHjp3HE6atAEGgDCBeXOfpAAQejF12hsLgODDr8GWFoROlCn5KxcuPpMBnZUqZmT79pH4+ATx3gIgCEKkMxcakca9HNmy9EGt1nH1ci9iootRsGgrbt2wBAijaNZ4i7QgpM/gxNuwGD5GK3YgMWaOjnpevu7MiMHPQXObiROm4ehYV1qHylXwYc++H/Fw6YlfznSy/sXOPZ34eW44AwfPtLoY/pN2SGtbrBL4B0vAChDk4ItTXCIO9iouXe2Ap2d2cmQdxdt3cZKw6NXbIRw9FEmd2rMIDv6OOt/nlGx+NiK1UB2LSp0aJ8cJKQCENixeGs64sVslt0G/wbkYMzKQhg23sn3HFTQqPWfONsHPrzglS8zg+vUXBqO9Fr00tiupcy4uejZvac+sybupWTc73bqVYvqs82TN5svH92qmTNrA93UzsmH9Y549j1QC+CQ4MGcO1PrOR9IIu7nO+KwFwS+3I2fPdUGttuXJQxUF808lVpIFGU/G5hqSCpGS0cahABpLeuU8eVy4dLE7xYss4sr1D4YnKFwBQtaKi2E6zQKD2bH9OJl9Xbh1tzPx+lh0IlVDph+qiXpfhbSeDWTA4MuwKcyb+4jhw+ebWRpVkJjQk1mz3jJsmOL2qVEzHevXD5QWBEHCJGIQqlbaweUrzyWoq1jOm5Vrh5LZVwEICtmRCl9fJ27fbUeNyjs4cuwhOXI4cPVGF1YvsadTt4kpAIRf2brjItfudGbJwidMn75LisrBUc3qtQHU/d6LW9dSsXrdDnr1GIevb30S9eDhYU+58l7s2BbChaudyJrRi5hoR6pXXc7FKw8sZGkNUvwH783Wrlsl8G+XgBUgmM7bahYs9Kdjx9I0b7qRYSMCcXDQ8ubNY4oVy0SjgH38tv0CwcE1cLBV063bQXkqbt0+E0OGNcHJPiWA0JYlS8KZNCmY5cur0qCJH9Mm3mf0mN0k6BS/vpOjhvsP+6K1caVyhXlcvfpSpujJqHpZvAiyZXNgzuw6lCiRGedUWiaMOse0qQcpWNCVWbPbU6iYozy9hn9Q06P7BnbuuC+tEYKUSSg+8SA7W0jrbs8TWZ1RUcAiBsFsQRgoYw3SetojWJdio3RERycQLwmDjJeRW0BJxDQDBBHPYItfXg03b0aRmKCXZv7gTYH4ZvqZl2+iTBTCSmsMFoTw6TRrEsz27cclnXHadPZJOBVkmKXOhleh4QhmwievJjB3zmNGj15oBhGSOroHkdGp0EWLIEQVWpsYbB0y4OwUJLNF7j/sQHSMO4k6BZ7YayNIiM9NJt8+JoAgxuHqtd6k88qJT/o+6PUxHDjSjOzZ8pIz0zhevI/mtoUF4c3rcQQ23MzOvRd5/noM/YMOsWzZQRydNVy+0g3fTL50bLuWyTMq4+DgxPmzL+nRdQ0hD6ONRhiZCumW2hbP1LaIFMvUHjbERKdn//4rn43t+LfvGNYGWCVglcA/RgJWgGBQXf1/LM3oMWU5ul9Hvfoz6NDRjxatCpLLLws/zz3HyFF7pdKdN68mifEO9OmzVU6S5i29GPBjU4oUnE2CPPnK86gMUrwf0pb9+3T4l3MnexZ3Rgw+yLz5J4mJTUhCPuTr68CBQx1wc3dn/dp3BPWej8ZOz7WbnXF1dcfJ0Rl9Qhyb119h9qw/uH7jjWL6V+mlFSKdpx2+WdIycmxZypTNzZnTkVStOC2pYtfr0Qi7hAUvsAAI0R/nsG1nLA0bDpBNFwpWECspE0OhSDKfY81RB0kBghqNGu6EDMLVJZrIiDDc3VMT8SET2bL1J0ZWTjTHVpiCFMNn0azJZgkQ5KUXqZlmi4X4jpMz/HG6FalcbEjvnZu2rQ6yfv0OM2RRQVxCTzZvDmPF4ouysSX8HRk6og0uTkqQ4v1HXejW5QR3br+WMitU0J3xE7qTOWMQH8Kj5GcrVjenUcP8+Bf/mcDm/rRs7Ya7eza6dFjHhg2XZKtu32zFgkWRLFq4lYePBxIeHktUzEeyZS1M0YLjefLsJacv9CJjuqxUqTieS1de4O3tyPBRpWjWojJajS16naSQkkBFWq4EmZRe/GjQq1yoUmkyJ048sgKEf8wWbO2oVQL/uRKwAgRDDELGTPYMGFSbUUO3804EyckTuOWlKDjlT4XMyJhvYPzEfLdSpXDvvu5s3/qc8I+3ef3Skd27LihqN2klZKkuhM9+wKDqHDkcwrZfb8pCRPUaZiUh3pbQ0FgePXhDWJgIqPvU7CyUujEzIW++NKRydeXE8RClUqLRuG8iKrKwB6ihW4/KPApJYOeO4+j1oiaAoYcp3P/laayleMm05MiRivTpnYj+aMOO3+7x5FlYSi2Whahaty3DoYMPePQw1CDNFOStggaNs5I6tROhz/X8vuO6Yj0wzFxhYVn7SwP2/B7BiuX7pCzz5XOje8/q9Oi2AUcnLUF9C7N00R1evBAZCzoyZnKieQt/Zk0/TEyswinh5WWHf5lC/PbrGUr6p6XbD6WYPf0SF84/MdWMaNEmNzeuxnLp4kOKl0hN8ZIZSYhP4Nb1jxw7GiJdOzlyOhEfZ8+jh6+M5AqyqYIe2yOtjaz5kJR82mAqktYSNXfvPDPMMGVWWS+rBKwSsErg3yUBK0AwqH2hTIVulEaAv0UqahmYqOz2hrLGpjTG5IrQqAiUs6VyJTPtyzZZnq4t4IgBICSlGBb9MSsYM5Oh5buVwk2yKKUEBH8FIEhHvrl0tlI3ykBllFzRGRMkLemQLfv7peXw6eCI4E8ZOClfYxF/YXitSqWU2TZfipVH3KuXLhTLeArRDeWLxloSyr3KPQqAMrA0JpsqSnimAJZJszqUzz6n7M0AwRIQGFrw79oXrO+1SsAqAasE/h5V+N8tR6PpWyh0o5ISikP06tP0vX+tr4rJ3nSa/+QhlowCxvaIdxs/Nyuor7/fwBgoFb9ZmaYMEJSnqf4fe2cBVWX29f/PDRoBm1AM7ATEbjGxFXXsFkWxu7vbUcfu7u6eGRG7BVTEblGU5t7/Oue5Fy7KWPP7ve9/vctnrRkVnjhnn332/u48quT5/rwHIbnyQkmuNF6i0fE/Kf/ku/7ZWjbOwRRUfA6UPgMNqQA8xTHyJT1TOkpM55A8/s/5QAASvU4JEnzJIz+KLk0BQjK//fIdfJvTf93xiwK/KPDfpcCPSrP/7mj+l99uVI6K9fjvRbSiJo1K0MTd/8Pz/Lll+t75GEMUyRbyf2b+ytx/BNz8MGG++wFTWsh5Gp4U65wyx+Lb625KL+MAvgfq/PNgf259v3vyv278RYFfFPhFgZ+gwC/JZEK071Wo30vn/xxA+N4vprzve+fz3wEIqVvGPzeTf//U9wGE7/tOagAhBej4vtf8uusXBX5R4BcF/r+mwC+A8F9fHlMPwn/9Yyk+8AsgJJPjPwkQ/mdX8dfXflHgFwV+UeB/hwK/AML/Dt3/R776CyD8Agj/I4z26yO/KPCLAv8nKfALIPyfWdYvl/IXQPgFEP7PsPevifyiwC8K/I9T4F8CBNPULJEBbpqt/r/nWv/vUNE0M//LLySXpaVG0q8l6xkz67+dHJdcxphaVYA8KMHkP6V80Xh9vYpB6aMgLlHRIC7RE+HHL8MhUUlT+ZkkRVO+Mf793yQ6KuthSosUdaxf9KQwnbXp97+2Pl/7nZEf/s1W+/zZf3rXT+w5+SrTfBG5+v+uB4OR2N9M9P2cP/5dqueP8+uPPGEcq5E2qa2JkXapvTe1+43z/ZG9Zkqjr33vR+Ymd35Skzflye+VR+I+Y/WPQZbJI+Y/30dfK/M1fl/8aVpn/jnNf3ROJvcnkU35S9JO+WEeNb7TOGfTdf03e/x752aQZyluV+ienG6dWjXW974/5X3/gRkZlYJSVqcoFiP5PwcNPzfI/9GnkgTmZwz9Tdmr9BRQrtT7FXw5DyOzakGlM9Tkf222ny1X0j+VjST6LiTX7pv0YUhRlWHsCWAAGWL50KLXi7MfjL19kgHDD9HeMH3xR7p0Frx5Ey97CvxcRUjyXJPLNZUPfNf7TEo80QtamIIeUzp+bTMJWhkBXGpraqpY/2nNP2ecn9lyxtJVU+Fk5DPjz4zE/yriSZ0F9aJ3hM7QBNTwHsn+36MkUnml8RXffNy4Z0yVwjcf+iGW/M/fbLqeqSkJwxdNb/tCdpgCaSOw/1GQYOzlYUIvY1sR3U/wWApZksq7UyVk0gdNfmvkJSHTEn6AhYwDMO430VBMaWKmyDYhk8TvFDn1o5daK9rWq0iIV7qVGK/vkiXy5pSGnJQnRlglAfZ/Q9f90zoKGht0h+h+azgpWC/kuBxHnGF6/34v/QQnGdWgMsBiXhlZuKg77Vot5dZt0XUu+cpfyJGVq7rRsN48nj19begtkCzQPi8w+1GR9E/Z5D/KPJ/f37ZNHtKlz8qsWcelkCxUxAb3opnQ6xTyf36JeehUKkLuaLhwISzJYhW99v26lmLRgrPodF9rlqMhQyYVR46NpXWL+dy4rnTT+/xSKK7B3FpH0IVeTBh9jc2bxRgVfjl0sA3mlplo1WoBTx5FGxZKYeMkD0Ey+Tkd2J31q8JZtPCgbPf7W4vCVKlSmq6dF3+2VspDn7Nb8jZL/r34WZGidhw/3YcpEx4zbeqyn1IzokPilZv92bLhFePHiWO3U34ttY1tKuM0WhWNGrrSrWtNpkw7zLEjD5JeYcr04j2J/yBz5LkOQk59RVUaRxUfn9pmTAZugRdGsmt7CBMnbPyJ5iOKIsqZy5wdOwdQpeI83rxRukIau3n6B5QkY4YMjB2zT2n29d2XOJ8Cps0qTsuWzXAvOIHnr95+99Of32hmBlev9mHjpmeMG7vpO8CcGjt7LTNnN2Tk0IM8ffZB4WcTrkmN7/696PvnKRobjRvX3bjGQ0dVokiRovzWeK5UCOJI7z8DB7FmRQgLF+w0dFdNJr5wxgX0cSf09kcO7r+bNCMzMxWBF/vw4G4mmjQelqKXhpGvU+cmhXPLVXJkxco+1Kq6iLt3xeFekNXVil37/Qm+9Z7WLZdJRfi1PZsrbxqWLGtL5Qq/g2jzrdfRu18FsrrkYUC/Zcqzn3kRvxyTGo1Wz76DHfnrTATjxmw1EFWFhVbFxesBzJh6hRUrTn2Tnzr55aF799Z4FhmZZAmL2U6d5Y2jY0HatBA0V+b/LaM/paRQnhk3uRwtW/rgVXQM794JBarI438CCMZ3NP3NkaFDe1Ov7gLCwx8ZnlLRs09ZevVqT9HCnUmfzpJHD2O+aJCW6jhVcOx0R149z07zpiOT6PKP41CpyJ7HnMEDmtO311ps06jp0KkIasNiiD/WrAxj5CgfrK2L0rLVIANgMMqtn1LxSeP6qafVhtMPBeF/X1yFBg2KM3fGLWLjjBtby+lTt/BtYUfXbtVYsvAp8bEaeQiR6Hv/+GEkixbtQGdoRJTcJuhrSlQZsyJyDV7RHzSWvsmlhrfXq5+b1esbMnxgEAsWnGDsBA8G9qtncL8nohaNhaRFqkGjEgcR6YnXmzN39nMGDFicpE5y50vL4SOduXP9NT4+KxAIT0HFxlkkCxNHJw2h96dRteJczgWFmwhIM8PJjgo4EU/uPdiEEiU98HKfwYPwNwZErKd8OUdm/l4bB3tHOrffzqmTdxTvsaG9swARskmgCjQq+BDbk9nTXzFs2GYJfqbPKUkxdw+qVlrwxSZMGbxIXgtTISQ+pdHAvn2N8SruQd7cE3nzNsrgsP7cCk65GsYNaWxhLQBCdHwAyxcn4u+/QLEiDI8INjIERJI7HAJenuno1a8cLk5m5HJzJX2GtKxbc52Nm2+xen1LMqUXp3bGk6i3RqdORKuP4cWLjOTKHUBMtBF1J48rq7MFYeHDScQacVD155dO/iyKhDgnbG07yBbaqc3K3l7Dy7eDmDbpPiOGb5RelRQ6/Du0nZh9US8rzp7tiVvWhTx9LhSp8UEV9ernZPHyJpw4+poWzZaaqNevWagKH2rQMWOuJ/7d2pAj63iePH/9HVvlS3qIhyzMICqqD0sWv6Wr/8okhZH8QiXcY9ql0tHRjLCHAXgWXsWd4Ff06VeAOnVyJ+13Y0sq5WwQNeeDMjFo0OKfAp7fnhgMGlyG2rXcaddmIw/CBZ0TJF9fueHH7WAtTRrMR4UZ+QtqCbzQi998T7B/37kvXm1ppWHh0lo09a1MfZ8/OHr8rtxXDvZqQsP9+WPeJ0aNXJHyOYNWESenfH5Cqho16dOpOHa6OXqy4VF4QtKzWo2aeg2y88eSOjwKt6Bh3SU8evQ+xRmrgu4aIbt0egp72vF3YEdsLWehk2ev6Nh3qC5qCuNTfQao4pT27SbQPPELaKvGzk7N/Ydd6d/rPKtXJdMgoHdupk734cSRGOrUXow4FFbhmC87jQq5NmREHkYMb4O1xXCDnEyQMupGSGuuXIyiVfNtSV83BlhTU8DGbyTvDQ258ljw17n2BP2tpWG9+STqhGdDyGI9+qTmeMnLoJxFo0Wrjufvcw3IlLkQuXNPIS42QQpQQa/Bw7wYOTKA+QtX8VuTMvTrfZQtW84mWfb/BGTEGrx9256w+x4U8+ppAhBS50y1SoVvs8L8sbgGITcSmTx1E5u2dBA9YNGqE0gkhkoVDjFsZEFsrb2pUMEftQq8iqdl0JDmdOqwirdvRYv+n7t+EiAo4rpGLWeWrWyMRmWLhdVHzDRmRH2yQqWykyfS1fTJwvuIeOztwcxSz/Pniej1Zty4Fi+9CgIgiAGUKpWD/gO8UasSUenFATap2enKBAVhxP83rA9j49bDJoce/RwBUntKLOLYCZ707OFLzRorCQwMlX18tRYq5s5pyItnsWxYf4IKIs0e9QAAIABJREFU5d3o2CUXhQoVYOH8K4wZc5iPUUa3mLIhipfIzPHj7ThyOIYmvnNJlBvFdNuJvyfg7KQl5N5UqlWez9/n7iW5rxQFrChXc62KRYsq0bJ1Rbp12s/q1eexc9CwfVc/Arpv4saNcJwym/HHsqqUKVOW6t5LuXwlXE5RnhCJnowZ1Jw87U+3jkc5fLqaBAhDhm2S++nwifqksczCsqWXlc0oT5VUtpwYw5q1QUTHxKQYffOWRbC2skhS4IWLWuLXxYPLF3UsXx5kAAcKMgm+84HTZ25/RvLUFJgGtUpHTII/Kxfr6OK/RM5fcoVeiE3xNyPgUMSFGGXbVq4sXNKOKRP/5NatT4Q9COPixdcS2Xu4u1CksDkL/2hCjao7iEmMZ+a0wjhnKUWu3MPRfandcc1iwYOwHnTtGsTjJwIIfn5p8O+WjmrVqmNl0zcVgKCMTJzzERzalQO7Ijl9Kjhlboic05eNmN++s2TDxuMkGtwBKiwo5qXlr7NdyZF1GU9fiE1vmouip2otZ2bP7UDxojOIjopWqJIEPlJDIco+EwBh7sISdOrYQgKEpy++BhDU2KaBtWu7QmLKXBjBKlr1e3xqZ+bxQxsuXX6lEEyEmQyk06nUrF9/ga1bLht+osLJ0Yzw8B64F17N7ZBX1G/oSslSWZR9IrSADoSybdU6F1Y2menV4yrLlh34rwGEwkXtWb+2ESRmomTJqcTE6vH2Ts/uff40bnCQQ4fPS+V1+HALcuXOTZGCk4iMipeKQ1muZPiXJo2GPQeb4unhiXuhady7/5JC+e24fKM9s6bflQeIpWiJjp5Xr/Ts3n3RsO8MJFSpsLNRs2NnYzyKueHbaCenToaS003LjJmd6dljBw8ePiFHDkv27G+KhTY7Naou4n74yxSWra+vE0MGtsDPfyln/uqEjdVMKRuszVXcudeWO7fM2Lr5NnpdPCqhaSR/JpIQr2b1uoskyDVP5qUyZdNz/EQ3Sngs5+atp3K5smSx4trtrhw7fIs6dYrSMyCIRYtP/QNAEB4sLUOH5WDkqJZYmY9KyoApUdyWP/9qj0ZlbhiL2PMJJOot8fJcx5VrD1JsSDHaDOnMadDIyzBGZazderqRL28O5s+9QEjwe+kxkTpGZc3+A9d48uSFSQ6GwXzTg1s2G26H+vEoPJHLV97LdfrwyY527X9n0JAyjBzZnSyOrZmzoCo1apShWqUtXL1+M2lMqXo5VSoi3rTjfpgHnt8BEKSmUKkpVzYtW7b9xvJlLxk+VPHUWGj1vHznR82apxgxsiBW1lWoWCFAHjcfGNiB58/taNxoDpGRyTopFSH21R/9FEAQy5TdzY69BxpxN9iSpo0W4VPXhWUrm9Op9T6uXHvCrv21ePfaCe+KsylRyp49B/wZOugkixf/LQWk4DNj5LF8hVyMHV9PAQcG3pPMKRSUkUmN4kRaj1qWL7vFilU7/sNCwkgONeZmek6e6cju3RFMmbhVHrucL18aRo6oT+UqGUif3h6dLoqtW58xfsJuQu58IFHIMqOpbYABQgT7NnZl6aoAcroMZ/y0EtjaWKbI01CRgLWVmtp1PDl65DavI+LYuCGE/XvvJi2ek5Mli5ZUp3qNQkwcfYlJEw6K0DoTphSnT9/y1Kiyk1OnFHejEEoHTzTHNWtRihUdz4sXkUnuwhzZtATf60Fz31Os31KOOdOfM3T4VswsIPxRD8zMtdhYquSRzQkJsVhYWhATE4uFhQPpHWbwUVjaBstCLM3dhy3JnCmDZELp49ALhSMWSTmUSMQh9SoV9nawavkr/LpuNJ5qkCRoChVyJkO6tIpgMHg8tCodh4/VYP/uOKbPOm2AhUYmUHH1ajgREcmHV4nH2rXJzpy5w3B19sPR2Y6Tp/py7cojGjRcRmycjs5+eRgwsCl5c0+QgODmrRa8fu1I+QqzUg0iZMtiQVhYN+bOD+LNy6gvfAhirD51suDp7o2VdT90qSZ2qilYwI7LV9uI4JBBtqZufZvu1DvB2fHw7EVcfALZsjuQLasjefOpmL+gDs0aH+bZyxjeR7xixAghDBW7TIC5NHZq3kcoMRNx4Ofbtzno3XPJFx6hZEtLAd0r1lSiWbO6OKYbRsTHmFSFhlEtWNuoWLeuaxJgM71ZTxz16thyP9yG61cMACEpEKJCp9KwZvUFdu0KMgEI5oQ/7Il74ZXcFiduGswAOSeU00qXrqyDh2ch+vbcw8bN4tCz/9alnKdRqlQ6ThzvyKbNsXTqMIcjR5pTvoIzT57aG07c0OHs/J7oaGvevhMQVE1snCXFi42Vp3yKkzqFt1C8y8pKzbnzg/FtuIrQu4/p08edyVMq8S5CSIdY0qW14uPHOGLjE+SMzwdpqVtbuNSldpbrmsstDZu31cMtey78u+xn3abzMvx1+FhjSpcqjHuh+dwJfSl5NG1aNecvdSI8zIaaNWYTawg3iLF07pKN2bOaUcV7ESdPtcfeZraUW15edpw63Y6o6Hjs01jxMTIOCyvhu9GQGB9DTIwFmTPNlsfUG+GPuZmKU3+1wd66NJ7u/sQl6LC10bJ7XyPyFyxGoTxjmDO/LNVrVqZ+nUWc/fuhYUYGwKiC8uWKoFHH07p1Btq08aZ61c18jNJx5WowZ882x909MyuXCll4GQsLPTN/b8DrN5ko7jmRmLiUik/M3bNoGs5d9OPD+xh5cqritTVeinEpNI+ZeQKWVjmo7bORY8cuS2+wOFlV2UtqNCodW7fVpnqNChzYFyLlhYeXjsR4RwoWnMzAwcUZNbIvaayaY2WrZsnyTgT4b+fFqzfJX0vtgDyVirdv2nM/rCjFvHqZ3Js6PxslhRh1oyaF+fPMI549j5CjtDCHV28641PzNMNGCQ9CBapU6c3RE81wypiLOrX+IOTed3gDv7KVfgogCEv2yGmBUnPQrMnvvHkTJ5X+2o3NOHTgIZcvX2foiDp099tMxBvFS9BvUEluXP7A7r03iYsTGyE5yeNHtvr3ps8kv9MMhBtJSrfvCM5KioiNocdMoyIxUUNONxtuhbSRSFpx86tRCWWgVhJn9JijU8USeC4d5cuMSfq00U8gQE6dmtXZf+gQK9dVxS6NsLiVzS8VqM4cG+sEKlQoSGBgOBEfdGxY+4wN6wPlXcVLZGT/4WZYaB3o0PoIO3YEyulUre7EngNNSIjV8fZdJkp5zuL5iwgZW7NPa0ZwWE9mTr3GlElHDApCRbmytpw41VaJoaoUH05kpDUjRmxj0uR25HebyIPwcQT0PMmnyAuMHteFgG4L2bS9A+kcphGfqCRCCvrII60ftuDF4zyUKTPaABCEIzRlxoBancD1W79x+pQeP79NBrs3mfW27qhIg7rFiBOgRDrzE9DoE7Ay15CoMyc2IR4dGtQkolElotZaUqvGMY4dE4pCeY/4f/s22Zg9ZxS5snXBu5oz8xY1wMHejJPHrWjVfCpB11pw/LCaTh2WI3IUHjzswOZNb+klj+7+0sIWHoTw8M5EftDI47WVw69NLpUeG6tY1Kp8WFn3RycPfvr8UlG5SkYOH2lLkfxrCQ59Jm9QYogmYZMU7xaKNNnqHj6mKIMGVsJCzl1FXLyWtxEWtP5tLQePNuXm9TdCPX3xZXGo+KvXufGpIQCR8msnZzOmTu6WtEIC1KmJp3yFBJydndiyOcIwz+SxiUf37LrFtq2HDF4S08ROxadnPJpLo9YRE9ud5cti8OuqxLKVfAKxp5TzRXQozmozMzU2NuY4ZrLg2q0AypZayd27r4mJE2GKOMmfnkXt2H+4BS9eZKBB3T+490AReKYQ6zsiND8iYqQsE+9v064oz58k8P5tOKf+bMeThxlZsPAiKlUcGk08w0bmYvvmOK5ceyaBbYIukT/+OE580vHmCl8Kagkqi91maaHi8s0WfIrMR3HP0TJeHBkdQMsmQezYI1z0Rnoqbn8xt/oNXdiwuQlvX9rSsP56zl8MkzT165KDufN9SEhQc+ZkPHXqLCIuUS95q1Qpew6f9KNPwAWWLDmWRK8xYzwYPrwSiXqxf8WINLx45sjJ0wfwLFKUpr4ruXClE3myLWbVhpq8fZGOPftOMn1mPTJlmmYS2oMiRew4d6kj1crt51xQCGqNnmUralKvQWmKF50rlZPWTMWZs41wzVoA73JzCQ4VYQ8xR6Gk4d376Wh5ikodj5lWQ3S8int3rRgyaCk7drXg5YuPREY4UMJzJjXrOLFyYzNKe27m+vUnXxyAJgGCux2BQSMpkncUd8NEns6Xl1iV8hXsOXR0DLVrr+Lo0asGgKAADpVaj2+jPKzfUI9ePc+zcvnfxMbEs2N3VYp7luL4iY/kzvcJd4/8bN0owINIDoznXYSWXr2Tw7OpeRBEyEAAhLCwInh69U7dwDVhaGGY1q+Xh1MnHvL+QxwqjZ5u3byxt7NEpQ5j8NAK1Kx6kqEji5DNtSw69VUyZXCjXIm5hN4XnpFv52x8bXP8FEAQD1mYq+jY0Y2xY+uiViei0QiWTZTJ0Crxd3F0MGYI5SBNXY1gCXPGjAxl5szdXxDmP73JkyatEtmrUpeT8K0EWJUaC0uoXTuzdCEKkfb0USyvXiVwPbg7vXvs5dHjl2jUMHNWfR49sGX6jLVSt3Tu5kW69F6UKzvWIL50cnNIzaxSkZAgNqQ4FMmQLf7Zqjg7Cst+MlUrzSPwfDhqlSFnQ6hdrYqypTMQEhzN85eRUuAUKGjLkRMdefbIjrq1p3LhShcehtlSrdoUIj+KDZhApcpZCAp8Q0y0AGQKUOvZKwfTpvZgYL/fmTa7JicOv2XvnnMMG1uTwwcTmDlzPUGBQ3BIN5qZMz0pVbopw4ZMYtWaTjhmmkpcglCCQonr0Kj03H/YkhePclOm/GglZc4guU0FuJlaxfXrTTl1Qk2XbhuVXBQRIpCZ83q27KhIcffylC41R1ozgp5maj3hTzty5ICedu2Xy9ELwVehQkbWbvbFp8ZRjh2/lJSMIjZem1bOLFrSifv3n5E9mysjhu7h+Ytn1PTJSdVqRXn10oE+vdbS0c+D+Lj3NGlWkCaNT7N3n3B3f8mBLlktCLvXg5KF13It+OVnaklRU/PmFaVjp1YGD8KX7xDKpmPnHCxc0J4cWWfx9FmkAlRNjuJOYgX5uBqVWpcUrhA/srU1w9rKCg8Pc/bsa0tJ97U8eR5Fnnz2HDk6DhfHXrx9/6UwVBSz8p/RmMmVx5wL5+eZ2OiiwiMeK6twUMWjUVnzKdpReoBELFaspxDoc2ZeYPSoRQYoZhyxMl8D1lHwrhpi4/qyfFkkXf1EaEi5jIEk4/1iP9ao5ciePe1R6+PR62KFykCt0TJvznMGDV3D7/Mq07ZNJebMOMP48ad4HxWXtEr/PYBgLA9WEl0c0mq5E9yZjOk1BJ11omw5kVSowsxcxdMXfnTpeJ5t2y8k0UFY3CL0kz69hjHjvNGotRJIq+I98e8xgW49CjJtRhPq+mzhyPHbUkl/jAqgRdMgduw+J40P5RJqTMnO0mqgTv3sHD/ymPcf4ySNvas4sXdfa7Zv/sCq1dvZubsLu7a/pEXLpdJ4EWtSvHhWzl98ZAhrKkBly7YmFCualXUbDtF/cFX6BuxBZaZhzNiazJj8mFN//sX+A23InuV3Dh5vwJmjiYTevcmwEXXIlm1qEv3NNLBrby3KV6hMNpfxREVFsmd/E8qVK077FmvYvOOGlDky5OBkyckzrUiX3pUu7deybWcIqEViZCLp0tvJENfiJWXwqe1F/lzzyZbbjp27m3D2lAV+nWZw+UZPHj+Owi2vNevWvKFrl9Uk6r4E44InPARAOD+UovlHE3r/S0+YzB0DKlZMy4HDw6hTaz3HJEAQJ9kq+6R4KQcOHmhH0FkdUVERlC5TgA5tFrBpy2/ExqThbUQ8mZ3fYGsteMWesDCR12HG02c6qlQZm5T4mHqIAd686YQ+wZXtOwMNHnMBE5Uyxbg4GwYN2El0jKKs0qW34sGjgcTHqOnacSMnToVwM7grae3zoddZotZoqFxhDsNH56eStyvXL5nRoN5Mnr2ITtqr31+p8SVU+CmAoLCwFicnLTlzCWFitOtVUgk2a1WA1q0rU9dnLroEoWYTUWt0HDjSiFHDw5g2dbfBrjARqMaykX9ACkaBkOTB/xrsMfmdWqPir8CheHho8Sq6ihs3U8atPn9NJkcb7j3ojblWg1r3ib07XzJ4yC5uhHTj99nhPH8Rg0oVSfee+Xn9IhsbNpyRlm3tumnRaN0oa/AgiOSdB49HYWNlLsGJTpdIeodxREXH4l3NjVo1yzCg31qD8BZxWDXB9yZQrdISAi/ck6BKcbAajhmWNoisl6BQkTRs3dmMmE8ZqV19Ec+evaNU6Qzs3NucixdV+DaYR1SUkgKq2IHiSeFCi+fK9VZER+ShUoURRMZ1Z+6093z4dJWBQztQ3HMKpcraMGxwC3LlGcejh0MIDLRk584lTJ3almyuk4gTSRQmACHsYQscM2Yl4qP4udbE/klWIokkkNYulpUrXtNFhBjkGitJWGKGm3dUxL1wRfLlHic3itCdQihGxQWwZ0caGvtOlIpK/Ny7qiP7DramTvVjHBEAweBBEElkZ/5qTMniuTmw9yHDhxwmNPQ1i1eVoUa1csyaepply6+hNU9g4eJK2FjZc/5cLBMmHebDP7jUs2Qx5+GDrvx16qEUzCntVqSVX6iQPS5OxbC06p+qNSDWfszY4gweWofFf4QSHWNSBmxEU9L3opitVy+/Zc26/YbNbVTAYnOoKV7Sij//9CdnlmU8e/mWMmVdOHJ0NC6OPYl4LwTC55eJAjdsUQGW5WXYUAJ0CSes4IvQu1HUqp2HhnV3s+/graSXGaI+cpsn1/HopKI6caqhEt4w8JpQamVKuUgBFfZACTEIL5uwWA/uj2XyZDE35fP2dsI7l5YM6czYe7AdzZvs5mH4G169jmXqnKI0rl+E6CgR/31KQryxjFTxrqB3pU3L9Tx99jZ1K+w75UNqIlFJu1FhbQUbtjamundOnoS/w8I8G+vW35fWokabSPceDhzab0ZwqPDaqXn1SsusWctQ6RNxyWLB8VOtpIHk5JwGbUJT7NJU4PyVdrx+6UD16vOku16tFgChBy2anjcABGPwxyiaxZ9GGSCAuZA1WVix6jdu3YAaNecQG5NI+/Y5WbCwHatWhOLfbbV0iYsxKRJDKe0TQCX0fmf+PGLBgj82cjqwHbYWM9iyqz7uRb0oUXQCXQPy0yOgG1mc/bgd2pmpE8NxdHpOmzY+uOWamOQpatEyJytW1iU+PhNz5xykZetC2Fg7sWzhUVyzZ6FVq03oSJDexn79CuOWwwmvMvYUKOjGoQOfGDRgB6GhSshBGFzXbnQlX14bnj61ZOb0QCwt4vljwVk+fYpnzYbqNPLNTXi4lry55qCX4UslHPN5JZyHexoCL3TjUyToE4w+XNNVFig2ETN1IlY2jtSss8kAEIQdlygZU7jobcwy06/vdm7ffMqiJTWp4ZMDC/OsFCs8l9CwZ1y/3ZxXzxMoVqIYrX7byY5dgTIUlGiSy/RPAOHtG5H7YcuLNzFJnkQRDhRXdEx6SnhM431kskcwja2GcROK0blLTQK67mfOgjLUrLSZoAvP5XitLFRs2VUHF6eSVCw9gk+xyaBd0D9O7p2fu34KIBg/JYRf9arZyZUrs4wzi2QKgV6rVMtO1eoejBiyE12i+HkierWeqdPLMnJ4GNOn7pVuZOOwhcDImy8Do8fWUqwQA0NLQSIteaEcFMkmkpzWrL3Enj1XUzP6PqOCInRHjSlP9hwwfMgNnjz+dgmX0S24dr031pYZ6d//ALdCOxATnRa9zla6GC0sX6PXpSEx3lpuAo32FZcu2VCm3Eg5Lq2ZmiqVvdCoE8iUQceylTVJbzebTzExtGqblzlzGnH86EuaNl4mBWhmJxUh96bgXXE+gedFqaQipBQWN7jtVTrq1s3O3IV1efZcT8vmGwgNea2E+lFT08eZFSubcy84lg5t1xFyT8TDjOIbcmS341ZoX3p23suKVUF8iu/F8oWvcc0Zy19/fmTylINs2FwbWwt3WrWawqs3w+ja6RS29s/o3t2X/PkmEi83gKkHoQVx0YUYP/GgIZnyy4ZSiboYJk/Kzb498fh1W2+wZhWAIPIVBEAoWqgieXJPQifjtiKDWE9UfDf2bk9L4ybjJJQQc6zqnYn9h1pSu/oxDh8Xln9yiCF/PnucHXPQs68rPrXykChRRSwqvYj9a9CLGKNKhZkqjsjIQmRz7cX7SJHMlzor2TtomDKpFNYWZvzWIj9hd/WcOnnVME9pl6MXvSdUGenuv09ajkblZ9TBQiGvWO1Ns99KQ2KGJAGbglFVIrCSgEr9hhXLPtG56/ykxFRlbAI0qShZwoZTf/amfKn5lCpbhOvX7rP/0GicBUCI+PTDitKo1K1ELPNtd3r0uMjocfnZtCaBgUNX/8P7FKtWhpjUEBPfk9s3ojmw/5oyJT0MHODFrTuwf5+SaCeQXc++pVi3OpoOHUWVT/IlxuDsaMGDR/1wL7SMm8EvJKDu2NUNVycHevYuxb3QSA4dCMa/WzGCzr8i8t1r6vo2IavLUF68FMr5P3vJEKIYl4sFjZsU4c0LaNO6IBUqOvLitbHmKpEszlG8e5eGKJmWo+VeaG68vdskZf+LUYm5BF3sSaF8jbG1qUDN2lnJli0Tz58pckivjmftugbMmn6HSxfvSheM2GKfIkWi91XJw8JbJ0Yk6N3VrwBjJ9bg4vlEGjeYz4cowdOgVYn8grzMmvcb27eG0d1/MxERIi9IseLFfCqUd2XfoR7U8/mDyMg3/HW2PekcZnHkWBemTQ7i1PHr3Artz+KFz5k4ZRVPnnbjt6Z/0sg3DRXLNiB/4QGoNWry5LXmyJGW2FiZYWGek9Zt51Otah5mTb9IsWIicb09dra90OkUI2fz9iqQmJE2bTbRq78XTpmyMHjgDmLk1hO5HObcuxeARmvN4oV/0bK1N+1a7uXl69uMHFOFCpWKsHP7Geo3KE1Q4EvGjjpK0LmHRMcLL4JiRBl5wNPDlsDz/Rg++ASvXspsKANbKhpYigR05MoRy8BhjantY/QgKABB3JUuvSVt2hRgxMimdG63nVev73L4aEtWroike7dVVK+WiV37utC69S4GDXbn8oVEOnfZYNBnydz4TwAh4k1H7oflx7NYslGRXMmXuiwSHu22Hcpy49oNjp/0p2Ce+Tx+Eim9uNdvt8MtV1pDQrnwzAjvrJi7it9nvaJvf+H5+7nrXwOEvftqUqpEbmKilfIPgYitrVVYWprx7m20MmiVEm4QbqUpE0KZN++gjMcZcbFYldx50zFxskhU1CUlKkrZYkDzaoO1lajSsnLVFXbvumDwXHxt4gYRKCwOQ3evb9XQGt8mNuT69VWwssxA//4HuRnaC6/CywkJfiymQeDFzgTfcqBly2lyRWfOrIFn8TKUKTPKIBSTOJPsrpbcvdePDPYziYyOlhu2fr3srN3civ27X9K61TLSpydVgKBsMbCzM6NX7yIMHFqRDxEWDB54nNB7QsgYGiShkTZ5hUp2DB1WiqhPmenTew+bN58nLk78Jh7hhi9bJhPXr30g6lM0UfF9WfT7M46fvMndu0+JivvE5at96drxCBcv3uL6jd7kz7eIDh1yU7t2DTyKjjK0KUkJEJ4/zk+J0qKmN3U2FILt9q3mnDqlwq/rBoMLTnmHmN+W7RWpXLEUfyw6RqIAmsIXodfTf1AZ7gZr2LbzjBJiQE8OV3t8f/OgbrVjHDpxOcnSVlZace/u3FWPHDkyM3nKCfnTXDnTYm5ux+1gpUdF0YIZ6NC5Ezlz9uLDh38GCGIkDmm0zJlbklatyjJ22GVuBUdIy1nMVPSjMXYiEEr88oWHhD98nhTvlUBTreLEn75YaDwoV3ZY6iRSiYxpC26GdGfyhKcMG7lB8dWbiDeNWkXHTrmY93t9EuIzEHb/Az27r2HvoTESILyTCZs/donxacSenFyc3r0aUKzYXEaMLkyuHMXx9JpIonS7ft40KyVAiI3vycoVcXTq9If8uFCIiQkDWbkihvadlEQ7sYejogPYsC72C4Agfu/yGUCQMkOvJ52dGXcfdqRN0zPcvX+fwAv9qFF1GeXKWjBhyggc7LoQE6eAsv/cJVZdI8M8YY+Gsm7VA4YPXcvefe1Ia+dMxcqT5KdEL4PHT7vg1+k823deTBqDUthh9HcKq10AhN4UzNcAO5sKHD7agvIV3Uz6qcSi14tSYBu5P5VmN1qCbztTpEgXGXITb3NxNGfS5Io0b1GQuyFx9O19gsioRGk9KR4e5VuNm2Wgq38FQoPj6N9nD4ePhJKgE+W9iWjUeipUyMuZM3dwd0/L3wIgpJ+Nb2NPTh0Pkd6wtetFKHEMhTxsOHGyH0UKzmPm7HI4Z6hG8TI9JFseONqOfDkyMWfGAcZN7kC2rCN49+6ThPBNmhZhuQAIaXqhS1QU9ObtldEnZKJZ082G5klGo0XxccyZX4pufsVB70imtCPYsc+XdxER+PiU5ELQe8aN2cfhI/dksu+MWXUpWy4Pe/feZMumB+zbf43oaBF6UrSJp/AgBA2naIExBN9VSqwleVIwiIpK5ew5eGwkdeqsTelBMJhlWo2eUaNLMmBQE968fsSLJ9bUrj0X6zQq/v67HU+eZaZMmQkM6O9Brx6VKV58PvcefPhm91rB2hGvO3D/QVE8iiUnKX6Lf5WsL6hZ05Fdu1qzYWMQ0Z8SMNMkcudWDK3bFsTKsiDr169g+OjW+HVeSURkPHdD4Oo1xVPzM9dPAgTF36vVqLgV0oNVS0OZMulQ0jL0G+TNsOG+ZErrL2PvxgUyVCxJV7SSsGTi+hCvFHIhqV42eTpJYQXjvjOaadKr8C33ifH4xHCGAAAgAElEQVQexWL9DreDIuhMAcKAQ9wK6cLNG0+Jj4uXmzt/gQxEfVTz6PFzVHozHJ1tuBfmSlmZg5Ayu1YChLv9yeAwQwIEY9C2WcusLF/VjPq1dnLj+n1C7k/Fu+LvKTwIwi1Yt64bM+aUJ3MmJzasPUvHTqVkxYcyH0O1gFTdZjJZMjrKkkNHTlGrjjuXLyUyoPcRzgUqLmPph1FpyOZqRcj9DiTqNcTH2dKi2RbqN3GmpFd5PAqNoW2HnMyeOZhsWXsxc3ZNsmUvROXK4w1YPSVA+PA6P82az001PmyQXezbV42jh0UOwrovAMLW7RXx8fHgdshTg60E5io1BQqkIzJST9hjxY0s1sTexgKXrBmoU+3oFwBB8aPo2bGrHtZWdlSrvlYy1aKlpSlR3BdP974yWc+nenbWbBhIzhz9/hEgiJBFiRIZWbKkPrlypic27hNWNuILVkR/ipeeISsbLdECGKPF3NKKxvUPs3d/kMSiBlwr6Z3O3gr7dLbS5f45tyrCXU2RQtZcvOJPrx6BLFx8WlqRYqwWFmZ09itBF38XCuZ2lW7jgb1D+X3+bkqVduLgsbE4O/YlIuL9d/O2cWdJ4JlGy/2Hnbh+0ZHq1UfTqk1OFi1uTQnPjVy+EZyKTPkcIPRixdIYOvstUvhLDQnxfVmxPIaOnUX/iq8DBPE24UG4/7AvnkWW8+zlO6ysbHj5/AOLF5WnYaPa5M89ir4Di9K4aWXyuE1i/eZSuBetTd48IyQv/WcBguK3y57Dgjt3/Zk17RlDBm9g374OZM7ohm/TaZLOZloIutCCoYNucODQdalWYuMsePpUJIYZJZ5IBNYTdLGPBAjCgyAdcBIEizCJCrUZRET2pEXTv9m9+3wSvY2izsLKnDZtcjB1ekV0sVaE3XuPh5cd8XprCWQU88H4PeGRi+LTRyfuBP+Nh2dudu+JYNCAA9y/99RQfaFHo1VTo6YLO3Y1ICHRkugoO2pV+4OZcyqgIR8Vyk3g3KUeWGjd8PDsTmCQP8E3MtOslTB+zDA3T8AtmxOu2azYtrM72bKO4t07paKoaVN3lq3ogINdTxJFczi94kHQJzjTrOkGGZ5J5j81uXJbc+tOZ548fklWlyI4ZRzGgePt0ZpF8eFNJg4fvCVDMbKHgzpeGpBlK1hjl9YeG9tclPKcSlRccg8TkYNw7vxQGvgsIvyRyMsxckdyRo6QESU8bVi0IoDaddYZkhQNIQaZQKyUXpYunZYjJ/148lhH7RorsLCNYtvOxjikyUoJr6Xce/CUDOnVXLnakrD7jnhXmUa8cOcbS8NTsUZ/FiCIfVK3njv2DtC5cx6ZL6HS6/Eq7kjjeufo0y8P1jalqe3Ti2evB1O82Cqu33iscMa/2CA/CRCECyORQoWs+evPfhw+cFtaoCIjXzCtVwknSpctzMLf95Mg40BGTK0nJs6K0aNPfyl4TPk8FbH083M0TvHHpprSg3CImyEBrF8dyNu3H2QmffPmJXjz0oLDh0WlgY4KlbMTFVuYcuXEJlISaJQxqxQPwt2+ZHCYyYfoaIMCUcmwy7RZlRg17G/s0iTKPgipAYTFS2tTzNOdpg2n8f59Ak9fTqZJk3XsP3j9C+HYuZMXEyc0IWPaAXiWsmPl6gCGDDjIzh2XpQVRyycdo0Y3o0hRe9SqSI4diqJFs1XkzG/JiTO9GNb/KitW7Ofhsz7cupKBChWHcvx4S549T89vLealUO7CvSVyELI4OcuSOgW3JfmFkuYvhJhGH8PyZS/o0nVLUg6C0YOweXtFvDy8cXMbZXCpinp6HZ/iAti3w4ZGTURylGJtVK3qzN4Drahb7UgKgKCwjFomPAkPgrVVWqpVXyX36vVbfQkNcaB+/ZFSSAqAsHrDIHLm6PMFQBBcUt/XmVGjG1EwX1pu3kiketUp8j0373Rh3SqhMHbTomU2Fi7qQuGCcyhf3paFi7pRsMAEQkLfKmEh8d07o8iZI0sSNyvJmSkvxTMmmp68Q6N5RoIuJ4k6SwL/jsbbu7dM6Jw2qxrZXZ3YtvkIq1a3JFeW5TyVOQhZOHR0HE6O3Xn/PrU+DalspKTAlTKWceOLMHBQIyqXX8G5wHAsLFTcDe/Ok0cOlCw1gUSdRgRzv1BcktoiITFeAIRYOvspHgQRT46P78vyFdF06rQwiRafYgLYsNbUg2CohBHWcWYLwp4EcPH8RwoWdWTpH3f56+xJ1q7tQCWvlVwJfkRoWDdWLP3E6NGruR7sy+WL1rRovuY7DITUafD5T43iR4JMFTRqnJM1G1qSN9ckwsPjObSvHdVrOshQgkI54ZETyaRaEuTPzLh1swSe7g1SvFrxIPRNAgiKu99MhtLEvjDT6omMDOC3ZufYuTsoSd2Lv4h7rWzUHDzSiegPNrRvs5AuXcoxfFRt0jn0J0Fm9CarQKFEAgLyMnDgMLJlbUO9hq4MGd6Z2j6TeRj+UX6rVbucDBpcH1dXHeZqFSOGnmXBvPO07ZSPSVOb411hLvdC3hH2pA9tWxzk8LEb3LrTm8XzXjNuqqC3cgl6Va2Wm+07AsiedSjv3omEwASaNvVg6XIBEALkPlcAgrcMMTRpstHkaZ1sPnXwaF1KFPNm8qTFTBzbFq3ZEFniI2TLs5fjsLczJy4+jfJNlejc+ARdvApnJxGnF6WMCkA02ozSg3ChiwTXonmUDM+ZUEl6h8RPdHEk6B3x8dnE0WPGJEXhGtQh2rpMm16ert2qcOtmAlUrT8O3aU6mzGpMZKQ5FUrM4F74B7k3hZ6o6u3I3kOduHQphmpVZvJJ5gsnptoX5WcBgvBYhT/qyvChIaxZKfSnDo06kecv/fBt/DeDhxTE0roc3lUCePKsM106n2f7DkOvkZ9XnoYA7vftIZO7FCuiz4A8jB9Vm2eP36BDlP6Ai4uDLPdSq6x4+uQder2FglxVIhtbTVx8Olxdp8iKhxTjNuzQf4N2fngaX3lAAoR1VbCyMoQYQnrjWWglN+88lMx7/pIft24506rVaInkZs+qRrESZShXNrnMMQkgZLXkXlh/0tlNIzI6JilzVXxeRM8Em2VxVhN8d/IXOQiCxYUgFjEokbibPoOaR0/m07DhRvbuP/vFDLp0KcnU6Y3JlLa3zF5Wq81k5zCR52Bjo+bs+VZ8jLBk3sw/WbOpJjOnPGPSpI1cDxYoPiMVy06keq2srN/Ykvw5Z/H0xSdCQtuwdauegYONAiLZgxD2sCVvXhakSdMZck2NwsN0YCLh8MCBOhw7rKOz/4akKgZTgODhUYVcOUcZai0EQNATFdeTfTutaeT7OUBoSb3PPAjK95IBgo1VZqpVX0amzFrCH/alYcND7D9wRa5VrWo5WLVhMG45BUBQFKuRFwWdfZvnpH2HmsyaEcjxY5cpXMiGvQfa8OCeA/V8ZmFrDxcvdSbwDDRo9DszZ/rQvKUPLs7dZc25ERKPHFOGTBkzGspmDbVzn62YBBN6NTmyJ+BdvQBbttyVIDA0VCWrfVDHK30n9Co8PK04e84fNxcFIHTplpcpUwbj7NKVjyZJTd/aB6KbnujZULWGI7t3tSLorAXVq08hUcZ0zWnZKiuLVjSmh/95li4VYZrklqXJijR1gCB4VQCEFSuiUoQdUgIEUTmhp17d3LRo6UaZkpnJkjUDJ0+8Z8WSS+QtoKdP/6rMm32L4SP2sX1nY7y8PPAoPInIT58Ie+zHiGGXWbRI9FL4F9LPhFApAIIaliwrT5kyxSiYb7bk1/37OuDsmJN27RVPidYsgaPH6zJ2dChHj92Raigm1pKQYNGLJNkYEQDh/MW+FMhbDzvbSojeARkyOPHoqSIzjQChebNz7NgdJMMMxksBlCqZsCsUoczvGFSRMeN+w9bKn/hEAUySkzfFfurfLw+Dh4zE1aU1sbE6mQss5IB4lTgfJehKD25d/cSJI1elV8LGYgp581ly/K8OHNz7jrZt1zNlogd9+nUnl9tQYuLeEhzShyZ1D3D49I0UrFW1ugIQcmQRAEGx1v39S0sDxDGziK+LxnjJOQhNmwgPglFCqGne0pVly1rTstFusuR8z9xZndCaD5NhFbEPX76ZxOF9z2ndZp6yR1V6qlVLy66dHXF0nEfEe5EwrswtBUAIGoFP9VmEP4418R8YDRelNqSYly3LVg+gdu2VhhCD8FIojZj2H2hAubL5mDzmMrNmH5b9HRo3ycZvLarTu+cmHj/6YOikq3hkHTPbMHhoCTr7l8Gv0znWrBbt75MrkUyJ9jMAQTxTo2YGtm7vTgnPRdy+/ULym+gVE/mxN1Uq75NA38K6MpXL9+D85RY8fGxFg7qiS6eSg/Kz14+Z1Sk2lIbSpV0oVNiF5UvOUqJUOuYsqEvG9Nn488wV6tWtQeaMPYiLS3YBDhvhiU+dqpQuMdXwJqUWX1gdRpfsd0/GwBSihee3LqNFl0qzvC8elfcKS0gllFotzC0y4ddlJ1dv96FY4eXcuP1QxpWDLgwk5I4D6zctonzZnNSrl5OXz12pVEl0AhNvMDCkSkWZkuk4cboT40feY+K0bVLRKywtELGKdh0L4OCgZ8yYDlQsO0/WOSc7xmR6ksErIZrGaHj4eAaNGmxi736lT4Lp5edXhinTGkgPQkKieE4pMFMymROxs1Xz6ZOCuWMS+rFyyQsKFNWSJ08+ypcSqDySE6fb8+5NesqXnkiaNKKVak96BvzNmnXnU/EgNOf54wIULy08J6kvhqDlnTstOX5CRVeTEENSkuL2irgXrUxuN1EqqQhI4e2Iiu/Jvh3WNPYV/KKMWXgQ9h1sSd1qRzmclIOgUEBZOz3bd3SQyaVNm05n1Zq6VChXnvWbd5EjRy4uBT3ixpU75CmQl+kzTxEdrbg8k+mtvEmt1uPiYkm/PqXw61aWQ4de0rXLBhJ0MWzb0Zic2QtQvMgUXr+LZdf++qDLQp26c5P6TRhFlmmfL6UzpXGkyp/GMwfatMrPomUdcMw0kHcRhqQrebNSeiXuLCYAQqBw6S6RyXnnLzXFNasPTk6diI//Vg2v0Yun9PioWt2FNevrEfXRidLFJvLyTbR0q4o1MbeADdvq4F2tOO1bbWLLFqNiUMZjVGGKB6EnK5fG08lvoaSjAhD6SIDQufMiatRwlpn8O3e2ZNWqT3TuLJIUlffUruvG0ME12bPjGrt2BvP4ySsWL6tL/fqe/D7rMiNG7aJ3X3fGjGtKx7a72bj5HA4OWp6+7E7Nqvs5cSr0GwBB+Y5QupKiXxGUpgDBs1ga/vqrDyuWPcW/+xL52IH9nXCwzU+5Cv3lPLXmKp4898Ov80W2G8ocla8JbZycXS/W/8KFAbgXqUivXsPo0acs40eGsmbDEfkeEaoQHgQjQFAycEw9A+LfSiWYSN4dNLgco8c0J41NV4MHwWgfK/UlffrkZ8jQ4bi6tCU2LlFWj5jKElFd9TEyAXd3B84GdsLZYQ5XQ/vw6rWaalXmkja9mps3uzJrWjBDh++nRKk0HDzSnYJus3j8QmTWJ5cXegsPws6e5MgyhIh3H6Xn5fAJXyzM3ShXdqa0xsXXjUmKyQBB4QCtVkXp0gX4+8xtuvZwZd6sjmjMRkgpInTCy9cTObjnNS3bzkwScTWqp2PXrk44SYAgctw+AwgeIgdhtOyDcPt+6nk54ttly9pz7OQoavsYcxDE3hTANREXxzTUrJGLbt1rUrHcNKJj4tm9twVrVt9l85YgOnYqTEDv+vhUX8DTJ28ZN6kc/t1q0KvHFtasFcm6yq42rqUANslmA7x73Z6wcA88PQOSRbcJ8jY2C0xqO6+CS9f9ef82E5UrjZaAT7w9R3YzQu4OpmihRcydW152UqxQzp+u/m7MmhtAde8lnD5185tB+K/pz58ECKKcLZF8edLjXiwz1au70KhxEa5dj8Xfbwt16uRn8NDGZEwfQE0fV/Lmc+Lpk3j6DyzAjWvpaNVKJC8JEmqoXS8Ly5f6ySxcpWVAcs22SFYyAdSGeYjnBDJVM3vWWcZN3PtVfCCU0/BhJciew4zhI27x5Om7r94vFtXOBhYtqkajRoVkiOTYsXDevFUzdNAhXr6OlP7jzI5qYmLMyJFXw6gRDYn6EMuGtSHs2XfFoMqEYILGTXOwYH5jHj54TpGiuRgzOogF808TESE68+nRmsHdsO7Y2Kn4+0wMzZutJPJjakpLGXamzBqePBnGlk2XCDU03TGdkKeXC+UqlCNjuoGyyZNROijFdUqWrsLAeuIS+zJv5nPuh4Vw/fpb/vr7Pgv+8KZhw/KUL72Yu6HP8SpmzZET4/DwGMW9ex8MrzP1ILTATOXCqrVnZNjJyNzKmAwWkJmKdm0LsWWbaJ6zwRAUSy5zFI2SvCt6sXTpn7IqQDkvQk3vvqW4fzeBPbvOG5JMNWRxTUMjXw98qh/hiEkVg6naFUmyXp6Z6D+gHJUq5qNZw/VkyWZL2bKuVPJ2xskxG7v2XGPp8hCOHrki3ZFJHgS1ilq181O1RnpaNC9L7Cc9SxZeZ9r0g+Qr4MDiZbVxzOxImxY7OX0mFHMNXA/tyNrVTxkz+sBXecsICYwCxHiz4Lk+/QozaHAjnB1Hyi6jKXWZaBKlx9PDkrPnuuOadTHpMui5fMWP/v3/Zu4c4Un6OlI2Al/xzZ69CjFydA3evtHSqN5GCXrl2AxmmOANc0s1Bw41poSXB8OHHmPuvGOfd1aWYCAufgArl36kswEgiCS2+PjeEiB06byYS1d7U7CgDZERIoFtC8eOpcxrkA1TDcJUNKiZM8eXi4GP2LD+HK3a52P2/KqsXhJB797rSdCryJbNkpC7fhTOv5k7IUqMNfVLmbE44XTgkGI4OWZkxNDTRH78RihGBbt2+FCieHEKFJzGuwjl/gP725EzWw5Gjz0s/63V6FjwhyfLl0QQdP5RkmUsYvrbtx8hQZHisj367dsDyZZdNNvSsmFdKGNGHSH88Ru5BxWA0MMAEJJzEFKfk4YhQ8ozfmxFJk/ZJ0vqhGdJXCJhVuzq0iUy4uHZAtesHSRAEF4Io6IxBUEeHvYEneuCrdU0+g+syoZNl3n7LoKt2+tRpJAned3Gy1K7Xn286N3Hl5zZB5Eoa/GSOVOEGLbt9CeHywgi3n9kwMDCjB7XjHZtdrNx4yVJe3F7agDBdH7CAOrew5W5szqgMROHNSkG2qu3Y7l47j0TJyn7SjScK+YVx7ixjXFynEvE+6gvAYKnyEHoyYplx3n7Lt6Iir8gp6uLDY2b1MOntilAUDjRwlzHvgO+ONjnpkTxybI97t4D9VCrslKr5nwcM5tzI7g7q5c/pl+/LVjZatiyvQHFPIpTKN94Xr3+JPWYp4crmR3TJXk4xCDU6njWry3B8xcF6NdnrTF33qR/jLJKwcGvuHdfObQvX25rzl3pS6OGOzhyWOSSKcbl7FmV6B7QkswZu7F5U11yuBXj1KnD7N3xmOHjy/LxQ1rq1V4gGyz9rBPhpwCCpbmKv861JVfOjCTEqLh15zmbNz1lwcKjkhiDh1Zi0OAmZEzfg/IV0zN+gjcZ0qcl4q0Z/t32SgvZuHIFCmWifds6MjFETEKn0xncbIoSS1k0p1iRoipCq9VL197eVA5JMeUGgUSDzvXHw8OKIkVXc+OmcjZBapcgRi43G7bvbIJj5sz07nEQK5tops+shY2NDft23ef27UgS9aIGVyBp0dlOj6W5GgsLDTa25nz8aEnvXtuwsFQzfKQHAb2qsWHtU3r2WMPIURXx8/NErbbl9OnrvHmVgMhZ/BT9Tipv0dZYtGFOm8GGRL0rTRvPkadAJqN2FZkyq3n6ZBChIU+IeG9U2MmzyZzZngwZCpAh3UDpQTAKfeE9MeYHGC242MQ+zJ3+gsGD1kv0PHJMcQYOrMqihbe5fvMJly49wr97bsqXr4ZH0dFEyYZL4jIFCM1JmyYz126JkzyVvnzJl0H0q9QUKZKO1Wvf07XrRoMXIjnZTQCE2jWKcfXKUwNdlZoF5ZJcYfi7CjsHc3LlccGn+nFDHwRlPA72FpQsnonceRxo5JuTCuWLcP36e/r1/JPTf543lDcJi01F23YedPArRFF3F9atDmPI4H28eCkaGCmWy5SZPpQuk5GDez8xbco2NCoVrVrkYfKMWrx6ZU5Aj21Mm16bk8dDsbX/QKtW9fFtuJU9e788sOefeC2nmx2du5Tj0rknvHz1nlFj3Uljm4USJX83dD1M3prWNhbky5OWvHnVrFrdmvy5lzBhfDEqVy2Os8tEJU8gxbkMqX9VKKu/z7alqIcTgX9/pH2bDTwIf53ktTE+ldR5Q6Vj1epa+DYpxNEjcTT1nZ/UwEW5V8Xw4U25euU5e/caTuyTSYq9lBBD5yXYWKmkW/1jlJ7UT7z8cqxWlmp6BrgzflJN9uyKoV2buQwfUYvQ4Eeky6hj3MQmuLpM4/kL5eTHf97Niifv8pXuFC6Ui6xO4qRKcTZHKpfBFC1V1p6Tx7ozesw12bNBZk0D+/e3pVpVJz58Uo5Ll5FsvQAPom26LMSWFTjR0QVxy9GaGHFynaGqY9SYspQvL9pE7+XGdcHjStsyI0D4ENmDFjLE8BWAINlBAIRyTBhTnAuXw1OctigNAJUK58zWWNtUJWvWDsTFfhsgWFlOJ16nI421mnkLqtKwkSfNm2wmnb0Dt0OeMHuWN9GxLtSsNc1w3LJBBhtyELbt8sctywjadsjG2Ik+bNn0nnZtlNNglWqU1EIMn9NfRY8e2ZgzswNacwNAUIs2wmOxTyO8FjbyAcW7GEFiPDg5zibifWyqACHwfDeuXwsjJioV0GwApPY2ZuTLX5yaSQBB+g1ls7DJ00vi71eL+nU2cOJksPzq+Ake9OzTiAz2Y0iIT2De/Mq0aN2cnNl78/ZtFK6uttwK7cKi+Y/o32+rfGbbbl9q1fKQMtFYOis78KpEorpI1DcmmCvll8l+Iz0jh59n0uQd2NuZ8eBRB16/zomn+xji4uNo3tydB/ffsGFjA86fd6Cx72iu3+xE9uwiZyqaTq13kiWnhpXrarNnRwzt261IOtPlKxsm1V/9FEAQ26FbtzJysTauD+bt++T6bzHJQUO8GTLMl4xp/aVQSGrOIpNWjIQwZOELizGFm+A7sI6oaTcKxG/cLhNbNOIbQnB9PWIpiNGhUy7Gj+9IzeqzuXr9pXwuW1Zzqdzz5cuHbRpxGJUikJVzuAU1RDtnpSDx2OHn9OmzhDx5zTl6YhCzpx1jxqyzkgYi7mtnq6L/QC/ci+ZBpdai1Zqj0iigSJScKYeImDFh/HaOHf3SQsqQScOjRzNo2mgT+1IJMXTxq8DkaY3I4KDUIRuDc18ABJWe2IS+zJz6gqFD1lG4sC0Hj/Ri28YwJkzayvlrg3GwFy48LdMn32TMaNH90ljypriptaLxyqMWPHtckLJlhqMT9bcpxK/BdtHruBnSgpMnVHTvut6ksZZi9YhOikULVyZPLtGu2fT6kj0reztz8JBolGT0ICi96l2z2XLtek+iP6bh6rUwFs4/wu69902OPjaWDSpVLQLhDx5cmJ592lOn5gwuXlLQulIHofCsXqeEGmrVysGmrS05c/KVPEpXdFIbO6481WuUJWMmB3Zuv0qf3pu+acWbzixLVksuXB2ErU0E5ho9CbHpGTkskGmzDxjwW/LcnV0sufegj8xleBCG0tVtUwCTJp5l4WLFVf2ty+hB8Ovijn3atMyYftLgqTCGPZTZi0uqAPl5kTwJrVrlpUzZsnTtIjpaGi+DPSqzqU2+Lr0KfVi5MprOHZXExWQz7jv2NuDmloYTpwM4feI1HdstJy4hgcVLG9HYNxfmZlbs35vAb79NSIqt/vNblYRD0dL38rUBlCu1kHcR4lyS1Kil0FvkUZUslY3As+Epjs3ef6A99mkyU7myyJ9SpmQ8ctf4NqOAj49XeOzzzxgteOPKyjiyVs/7yO60bHqOXXtE469kBWw6SuVdKoYMrcioUb+Rxqab7AxrNKCMZX59++Vn6LARuDi1Ij7u/7V3bbFRFlH423Z3u7fKzXIJkCLBqCQkAkICWA2QEIPhCdAY5WIIAQVB4cUXX5CIidZATHyTakIqCeKNSIgBgqIINApGTKm3FwFrgbRYtt12y645c/7ZmX93/93tlk3c5Pwvhd1/5/LNOWe+mTlzDvmacEAh+2iISpo9ZzTOnn0Rsbo9SKbTWL92Ed7a+yT27DqN/S0ncenyNowZS2YujE0bj+NA6xlFEMxdAGDpsvvx2Reb0XbuChYuiuLgR1exfl1LJpyqOkBLA4c+XYL0nfF4alVrHnLGqLzwUiP2NW9AMEiOxKx/nTfexPFjHVhLZTpStHTZOHx8eCOmTtiL7iwfBHpnzpx6nDm3C7MeeA2/0RGDtXWfEW4K5rUwhhOn9mDF8vdx4sRFh9Ck0PT4NBw6vBHv7j2PN14/oqgcjSYdh61Z9wSeX7Mfff39mD49iGeeXYzmt79Cf4IXsu/sW45I6CFs3tTMrVULWecMxBpMFTPIUTR9xGhkhb+jXUTaIRo12o/Wg09jx7aT6Pi1E8EQcL5tK2bMCCERH4fHmvahveNvtHzwHL451Y4PW35QzpFUxs5XH8GWrasxb3Yzuq5TJNjhP2URBBvzXF3zY/yEMCZPHosLP/Jq3RAAFhgvJRh+8+/2L2hLMo1wOIC+vqSr3Wq7zElnbPdZb4+S5Ou+sY+BT8WZj1N2RzVxOsmMnCAzCkMr2V4+TPMZMlKchnvvQXdPP5LJ3CxdoXAQ9bEQrl/vhU/Vy/dGDUHQNaVx4MBOHD36C1pbj6m+RqJ+FZaZvKNDoRpEokFFgG71JJCiHAwabieqIa2iHm2ahPhgPdraOjhLWkYj3YZu9tyx6I8H0d5+zRo0vp+9fdtiTJv2MF7ZQWeN5HjldZ5eg6lT67FixVx8/slPuNpJx0WmnpVHtsEAAAVESURBVFh9UKVkHUr6shIn5ZsR+Pw/GosiHk+osK/ZT2ZMfHS0E8ONrngmUpqacGt8qK2txdAQHXmVNvllIPQBdaFaRCMBRKOUrCeBHsJZdSe3rPENESWbPbeSGBigRDN+JBPkfFqGNjm+DWozzvKdNN4FbiTIsZPkg7ercx8dzos1O4VJDTHcTqTQ21v6zYrsUiMRukI6xDLsSymiFgoRofarZEg23t7Ic8S9lasn4uXtG9T1vWKjlMleavuLpP1YuGAyAoF7cOr0zyO7N+Z0VBtemnwmTIyip3sQA4NJT/KiI1hGo7WIRSPo6qKEPblPOBJQ39+82as2P7T3kU3cqe7GaaOwe/darF/zHoacMMOk7/23OSw7OTSHwyF1TZ2cAY1IGgQbG8dh1colaGk5gpmzJuL7767izh0KdOYQF+e4eHHTFPhqYjj5NTlzOoZP/TVljRrjx31TxuDipRvKkZgi8j44swG3ulO4co0jclK5dXWU8jqCfzrjyr/C9kGgd0ifFiyYgdPfXsbAgL5vbOGkPqpFKJzG/PnTceHCX/iXHHwdXUing4jV+9AXH1TRKDWxdiYytjYeuh4I+JHStkDFtLg7D8k+H++QjwTdsqhRcYYSA0NIJHiXSMcOMTVyYK1wOIjbFFqxzKcsgqDDwua9g+ya6Wg1zDHw+HFWKP9rkkCD4IUm04F8JpI/I/8JfSyiQ+rqrXJ2E7TVw60i9D+zle611+GjjICKbJhUzO72aBJGQWv4rrWbIHALbOZKgVl4N4QViuVfr7jtPts8l12neLuUkl2QNdIOlbpnuSrCZZt+qtVCxlTo9Ym3aulgSFyDW3xp94VjqvP1Kj1WdjpdgxW9yz4vXp6+uoT8a7oyNS4jAVYfVTcMcctXspYcM0Xr5Eda8obRHkvATZzN7DWmZWocffXCwRAEjidf2oFHsfYy+hknT8ejn/N3MEPVdtpbWtigbtk6D8e+/AO//6kJpXfd7t1M5710QCW0InlLKey0L493OcX5Iht88uXKSLHjh5Wr+0ZbNdZ8/Kqdl3U7jG0yGq6skmsydltjOwlZoekgWz7N3gV9Y2/mZxMEO6G7myDodrMtI1Vkq2l2tUiP3eGU1Z04E4LeclJUls2JKsvEOX9QHdcU5WR35Mk3S8LJnmmfKKWiZtK3SYI9X9hH4iMnCDY90XaY4x+oPjgJ3bTzvde0NZJ2lEUQ9CRXvOJcoSrDnBWzJHf5+3IhyR6eQuiMZCiLKbGZ0LUvrSEi7gnefG5ITH4w8wekyp3SbIHOpT+m7Nx22PUWogcse/xGNkHQvhVcltsMuPtlY1h4vMuVhuELZbGastEuJUhYaa0oTE3cqJZSYrGelFJGhtxl1mF2K00NhW2QPZ0WPl4s1ia3hoxEf+3JnNrnPicv1p/i9tNum8Ypt9T82pFv5MofTf3LYtZF6yu/b5ZRxr3SjI4ho7yjmd067pfOiFnIcVf/0v5L/7YP0YyflLZmxea8QlanmIzlfp8t88bqMUnSdnD4JZf6i/JHv9Qa5D1BQBAQBAQBQUAQqDoEhCBU3ZBJgwUBQUAQEAQEgcojIASh8hhLDYKAICAICAKCQNUhIASh6oZMGiwICAKCgCAgCFQeASEIlcdYahAEBAFBQBAQBKoOASEIVTdk0mBBQBAQBAQBQaDyCAhBqDzGUoMgIAgIAoKAIFB1CAhBqLohkwYLAoKAICAICAKVR0AIQuUxlhoEAUFAEBAEBIGqQ0AIQtUNmTRYEBAEBAFBQBCoPAJCECqPsdQgCAgCgoAgIAhUHQL/AaCneXTRx/RnAAAAAElFTkSuQmCC;" vertex="1" parent="1">
          <mxGeometry x="469" y="1180" width="520" height="123" as="geometry" />
        </mxCell>
        <mxCell id="_Ws0ghuLOrh_OVOcMQFG-141" value="他强调人们只能按自然规律办事 法国重商主义人为干预经济&lt;br&gt;违反自然呢规律 必将给法国带来灾害" style="text;html=1;align=center;verticalAlign=middle;resizable=0;points=[];autosize=1;" vertex="1" parent="1">
          <mxGeometry x="477" y="1100" width="330" height="30" as="geometry" />
        </mxCell>
        <mxCell id="_Ws0ghuLOrh_OVOcMQFG-142" value="他主张" style="text;html=1;align=center;verticalAlign=middle;resizable=0;points=[];autosize=1;" vertex="1" parent="1">
          <mxGeometry x="414" y="1149" width="50" height="20" as="geometry" />
        </mxCell>
        <mxCell id="_Ws0ghuLOrh_OVOcMQFG-143" value="不阿吉尔贝尔 以发展法国经济与提高国民经济福利为出发点" style="text;html=1;align=center;verticalAlign=middle;resizable=0;points=[];autosize=1;" vertex="1" parent="1">
          <mxGeometry x="450" y="1340" width="330" height="20" as="geometry" />
        </mxCell>
        <mxCell id="_Ws0ghuLOrh_OVOcMQFG-144" value="按财富多寡 实行公平征税作为努力的目标&lt;br&gt;实现贫者少缴 富者多缴" style="text;html=1;align=center;verticalAlign=middle;resizable=0;points=[];autosize=1;" vertex="1" parent="1">
          <mxGeometry x="455" y="1380" width="230" height="30" as="geometry" />
        </mxCell>
        <mxCell id="_Ws0ghuLOrh_OVOcMQFG-145" value="他们的理论深刻的影响亚当斯密" style="text;html=1;align=center;verticalAlign=middle;resizable=0;points=[];autosize=1;" vertex="1" parent="1">
          <mxGeometry x="450" y="1420" width="180" height="20" as="geometry" />
        </mxCell>
        <mxCell id="_Ws0ghuLOrh_OVOcMQFG-146" value="1776年 英国自由主义学派开山鼻祖 亚当斯密发表《国富论》" style="text;html=1;align=center;verticalAlign=middle;resizable=0;points=[];autosize=1;" vertex="1" parent="1">
          <mxGeometry x="310" y="1450" width="340" height="20" as="geometry" />
        </mxCell>
        <mxCell id="_Ws0ghuLOrh_OVOcMQFG-147" value="《国富论》的写作正值工业革命的前夜" style="text;html=1;align=center;verticalAlign=middle;resizable=0;points=[];autosize=1;" vertex="1" parent="1">
          <mxGeometry x="365" y="1480" width="220" height="20" as="geometry" />
        </mxCell>
        <mxCell id="_Ws0ghuLOrh_OVOcMQFG-148" value="当时手动业仍是英国资本主义生产的主要形式" style="text;html=1;align=center;verticalAlign=middle;resizable=0;points=[];autosize=1;" vertex="1" parent="1">
          <mxGeometry x="370" y="1510" width="260" height="20" as="geometry" />
        </mxCell>
        <mxCell id="_Ws0ghuLOrh_OVOcMQFG-149" value="但机器生产代替手工技术的趋势越来越明显" style="text;html=1;align=center;verticalAlign=middle;resizable=0;points=[];autosize=1;" vertex="1" parent="1">
          <mxGeometry x="375" y="1540" width="240" height="20" as="geometry" />
        </mxCell>
        <mxCell id="_Ws0ghuLOrh_OVOcMQFG-150" value="国富论主要有五篇 以下为第一篇内容" style="text;html=1;align=center;verticalAlign=middle;resizable=0;points=[];autosize=1;" vertex="1" parent="1">
          <mxGeometry x="225" y="1600" width="210" height="20" as="geometry" />
        </mxCell>
        <mxCell id="_Ws0ghuLOrh_OVOcMQFG-151" value="第一：亚当斯密认为劳动生产力上最大的进步 源于分工" style="text;html=1;align=center;verticalAlign=middle;resizable=0;points=[];autosize=1;" vertex="1" parent="1">
          <mxGeometry x="210" y="1640" width="310" height="20" as="geometry" />
        </mxCell>
        <mxCell id="_Ws0ghuLOrh_OVOcMQFG-152" value="第二：分工并不是人类智慧产物 而是人性中的利己心态" style="text;html=1;align=center;verticalAlign=middle;resizable=0;points=[];autosize=1;" vertex="1" parent="1">
          <mxGeometry x="206" y="1680" width="310" height="20" as="geometry" />
        </mxCell>
        <mxCell id="_Ws0ghuLOrh_OVOcMQFG-153" value="斯密一句著名的话：我们获取的食物，并未来自屠夫、酿酒师和面包师的恩惠" style="text;html=1;align=center;verticalAlign=middle;resizable=0;points=[];autosize=1;" vertex="1" parent="1">
          <mxGeometry x="265" y="1710" width="420" height="20" as="geometry" />
        </mxCell>
        <mxCell id="_Ws0ghuLOrh_OVOcMQFG-154" value="而是来自他们的利己思想" style="text;html=1;align=center;verticalAlign=middle;resizable=0;points=[];autosize=1;" vertex="1" parent="1">
          <mxGeometry x="276" y="1744" width="150" height="20" as="geometry" />
        </mxCell>
        <mxCell id="_Ws0ghuLOrh_OVOcMQFG-155" value="第三：分工受市场范围的限制" style="text;html=1;align=center;verticalAlign=middle;resizable=0;points=[];autosize=1;" vertex="1" parent="1">
          <mxGeometry x="210" y="1800" width="170" height="20" as="geometry" />
        </mxCell>
        <mxCell id="_Ws0ghuLOrh_OVOcMQFG-156" value="市场越小，分工程度越低，市场越大，分工越精细" style="text;html=1;align=center;verticalAlign=middle;resizable=0;points=[];autosize=1;" vertex="1" parent="1">
          <mxGeometry x="384" y="1800" width="280" height="20" as="geometry" />
        </mxCell>
        <mxCell id="_Ws0ghuLOrh_OVOcMQFG-157" value="第四：分工形成之后，人们会将自己消费不了的剩余劳动产物 同别人的剩余产品进行交换 来满足自己的大部分欲望" style="text;html=1;align=center;verticalAlign=middle;resizable=0;points=[];autosize=1;" vertex="1" parent="1">
          <mxGeometry x="214" y="1860" width="620" height="20" as="geometry" />
        </mxCell>
        <mxCell id="_Ws0ghuLOrh_OVOcMQFG-158" value="这样每个人都要靠 交换生活 或者说所有人都成了商人，而整个社会渐渐称为所谓的商业社会" style="text;html=1;align=center;verticalAlign=middle;resizable=0;points=[];autosize=1;" vertex="1" parent="1">
          <mxGeometry x="260" y="1890" width="500" height="20" as="geometry" />
        </mxCell>
        <mxCell id="_Ws0ghuLOrh_OVOcMQFG-159" value="而交换需要媒介，因此产生了货币，货币的演化也从最先的牲畜逐步演变成当时的贵金属铸币" style="text;html=1;align=center;verticalAlign=middle;resizable=0;points=[];autosize=1;" vertex="1" parent="1">
          <mxGeometry x="260" y="1910" width="510" height="20" as="geometry" />
        </mxCell>
        <mxCell id="_Ws0ghuLOrh_OVOcMQFG-160" value="当然从我们现代人看 ，贵金属货币也逐步被抛弃，成为了支付宝、微信程序里的一串代码" style="text;html=1;align=center;verticalAlign=middle;resizable=0;points=[];autosize=1;" vertex="1" parent="1">
          <mxGeometry x="255" y="1940" width="490" height="20" as="geometry" />
        </mxCell>
        <mxCell id="_Ws0ghuLOrh_OVOcMQFG-161" value="第五：一个人的贫富，由他可支配的劳动多少而定" style="text;html=1;align=center;verticalAlign=middle;resizable=0;points=[];autosize=1;" vertex="1" parent="1">
          <mxGeometry x="205" y="1990" width="280" height="20" as="geometry" />
        </mxCell>
        <mxCell id="_Ws0ghuLOrh_OVOcMQFG-162" value="也就是说劳动才是衡量一切商品内在交换价值的真实尺度" style="text;html=1;align=center;verticalAlign=middle;resizable=0;points=[];autosize=1;" vertex="1" parent="1">
          <mxGeometry x="260" y="2020" width="320" height="20" as="geometry" />
        </mxCell>
        <mxCell id="_Ws0ghuLOrh_OVOcMQFG-163" value="货币只不过是上商品的名义价格而已" style="text;html=1;align=center;verticalAlign=middle;resizable=0;points=[];autosize=1;" vertex="1" parent="1">
          <mxGeometry x="267" y="2050" width="210" height="20" as="geometry" />
        </mxCell>
        <mxCell id="_Ws0ghuLOrh_OVOcMQFG-169" value="第六：在资本积累和土地私有制尚未形成之前，获取物品所需要的劳动量被当成交换的唯一标准" style="text;html=1;align=center;verticalAlign=middle;resizable=0;points=[];autosize=1;" vertex="1" parent="1">
          <mxGeometry x="209" y="2100" width="520" height="20" as="geometry" />
        </mxCell>
        <mxCell id="_Ws0ghuLOrh_OVOcMQFG-170" value="原始社会状态下，全部劳动所得都归劳动者自己所有" style="text;html=1;align=center;verticalAlign=middle;resizable=0;points=[];autosize=1;" vertex="1" parent="1">
          <mxGeometry x="255" y="2140" width="290" height="20" as="geometry" />
        </mxCell>
        <mxCell id="_Ws0ghuLOrh_OVOcMQFG-171" value="当私有制确立后，一些人手动积累起资本" style="text;html=1;align=center;verticalAlign=middle;resizable=0;points=[];autosize=1;" vertex="1" parent="1">
          <mxGeometry x="255" y="2170" width="230" height="20" as="geometry" />
        </mxCell>
        <mxCell id="_Ws0ghuLOrh_OVOcMQFG-172" value="通过支付工资的形式雇佣工人，以期通过售卖工人的劳动产物来获取收入" style="text;html=1;align=center;verticalAlign=middle;resizable=0;points=[];autosize=1;" vertex="1" parent="1">
          <mxGeometry x="250" y="2200" width="400" height="20" as="geometry" />
        </mxCell>
        <mxCell id="_Ws0ghuLOrh_OVOcMQFG-173" value="这些收入减去原材料陈本以及支付给劳动者的工资 所形成的剩余 就是资本家所得的纯利润" style="text;html=1;align=center;verticalAlign=middle;resizable=0;points=[];autosize=1;" vertex="1" parent="1">
          <mxGeometry x="239" y="2240" width="490" height="20" as="geometry" />
        </mxCell>
        <mxCell id="_Ws0ghuLOrh_OVOcMQFG-174" value="而当一个国家土地完全私有化以后&lt;br&gt;那么地主便会通过出租土地的形式不劳而获&lt;br&gt;这些地租也成为了商品成本的第三个组成部分" style="text;html=1;align=left;verticalAlign=middle;resizable=0;points=[];autosize=1;" vertex="1" parent="1">
          <mxGeometry x="251" y="2280" width="260" height="50" as="geometry" />
        </mxCell>
        <mxCell id="_Ws0ghuLOrh_OVOcMQFG-175" value="这样构成商品的价格有三个组成部分：工资、地租、利润" style="text;html=1;align=center;verticalAlign=middle;resizable=0;points=[];autosize=1;" vertex="1" parent="1">
          <mxGeometry x="281" y="2370" width="320" height="20" as="geometry" />
        </mxCell>
        <mxCell id="_Ws0ghuLOrh_OVOcMQFG-176" value="在这里要插播一下：亚当斯密 其实漏了一些东西" style="text;html=1;align=center;verticalAlign=middle;resizable=0;points=[];autosize=1;" vertex="1" parent="1">
          <mxGeometry x="310" y="2420" width="270" height="20" as="geometry" />
        </mxCell>
        <mxCell id="_Ws0ghuLOrh_OVOcMQFG-177" value="学过会记学的应该能看出" style="text;html=1;align=center;verticalAlign=middle;resizable=0;points=[];autosize=1;" vertex="1" parent="1">
          <mxGeometry x="314" y="2440" width="150" height="20" as="geometry" />
        </mxCell>
        <mxCell id="_Ws0ghuLOrh_OVOcMQFG-178" value="主营业务收入指的是：一段时间内出售的商品价格的总和" style="text;html=1;align=center;verticalAlign=middle;resizable=0;points=[];autosize=1;" vertex="1" parent="1">
          <mxGeometry x="314" y="2470" width="320" height="20" as="geometry" />
        </mxCell>
        <mxCell id="_Ws0ghuLOrh_OVOcMQFG-179" value="主营业务成本呢包含购买原材料的价格、工人以及管理人员工资包含在管理费用" style="text;html=1;align=center;verticalAlign=middle;resizable=0;points=[];autosize=1;" vertex="1" parent="1">
          <mxGeometry x="310" y="2500" width="440" height="20" as="geometry" />
        </mxCell>
        <mxCell id="_Ws0ghuLOrh_OVOcMQFG-180" value="销售人员工资包含在营业费用，而土地如果是租赁，则租赁计入管理费用" style="text;html=1;align=center;verticalAlign=middle;resizable=0;points=[];autosize=1;" vertex="1" parent="1">
          <mxGeometry x="309" y="2530" width="400" height="20" as="geometry" />
        </mxCell>
        <mxCell id="_Ws0ghuLOrh_OVOcMQFG-181" value="土地如果自由，则折旧摊销费计入管理费用，此外还有财务费用，也就是借款利息，厂房折旧、专利使用费用、广告费用水电、网费等" style="text;html=1;align=center;verticalAlign=middle;resizable=0;points=[];autosize=1;" vertex="1" parent="1">
          <mxGeometry x="310" y="2570" width="720" height="20" as="geometry" />
        </mxCell>
        <mxCell id="_Ws0ghuLOrh_OVOcMQFG-182" value="不过斯密在国富论上说道，在任何一个社会 商品价格最终都要被分解成这三个部分中的一个或多个" style="text;html=1;align=center;verticalAlign=middle;resizable=0;points=[];autosize=1;" vertex="1" parent="1">
          <mxGeometry x="309" y="2620" width="530" height="20" as="geometry" />
        </mxCell>
        <mxCell id="_Ws0ghuLOrh_OVOcMQFG-183" value="也就是说 原材料价格也可以分成地租、工资、利润无限分下去" style="text;html=1;align=center;verticalAlign=middle;resizable=0;points=[];autosize=1;" vertex="1" parent="1">
          <mxGeometry x="314" y="2660" width="340" height="20" as="geometry" />
        </mxCell>
        <mxCell id="_Ws0ghuLOrh_OVOcMQFG-184" value="同理 其他各类费用也可以如此分下去" style="text;html=1;align=center;verticalAlign=middle;resizable=0;points=[];autosize=1;" vertex="1" parent="1">
          <mxGeometry x="315" y="2700" width="210" height="20" as="geometry" />
        </mxCell>
        <mxCell id="_Ws0ghuLOrh_OVOcMQFG-185" value="第七：斯密这里描述了“自然率”的概念&lt;br&gt;" style="text;html=1;align=center;verticalAlign=middle;resizable=0;points=[];autosize=1;" vertex="1" parent="1">
          <mxGeometry x="225" y="2785" width="220" height="20" as="geometry" />
        </mxCell>
        <mxCell id="_Ws0ghuLOrh_OVOcMQFG-186" value="这些普通率一部分由社会的贫富、进度等一般情况决定" style="text;html=1;align=center;verticalAlign=middle;resizable=0;points=[];autosize=1;" vertex="1" parent="1">
          <mxGeometry x="309" y="2850" width="300" height="20" as="geometry" />
        </mxCell>
        <mxCell id="_Ws0ghuLOrh_OVOcMQFG-187" value="一部分由各领域的特殊性质决定" style="text;html=1;align=center;verticalAlign=middle;resizable=0;points=[];autosize=1;" vertex="1" parent="1">
          <mxGeometry x="310" y="2870" width="180" height="20" as="geometry" />
        </mxCell>
        <mxCell id="_Ws0ghuLOrh_OVOcMQFG-188" value="这种普通率称为当地在某一时期通行的工资自然率" style="text;html=1;align=center;verticalAlign=middle;resizable=0;points=[];autosize=1;" vertex="1" parent="1">
          <mxGeometry x="314" y="2913" width="280" height="20" as="geometry" />
        </mxCell>
        <mxCell id="_Ws0ghuLOrh_OVOcMQFG-189" value="简而言之工资或者利润都有一个自然价格" style="text;html=1;align=center;verticalAlign=middle;resizable=0;points=[];autosize=1;" vertex="1" parent="1">
          <mxGeometry x="315" y="2960" width="230" height="20" as="geometry" />
        </mxCell>
        <mxCell id="_Ws0ghuLOrh_OVOcMQFG-190" value="基于上述观点，斯密认为一种商品的价格" style="text;html=1;align=center;verticalAlign=middle;resizable=0;points=[];autosize=1;" vertex="1" parent="1">
          <mxGeometry x="309" y="3000" width="230" height="20" as="geometry" />
        </mxCell>
        <mxCell id="_Ws0ghuLOrh_OVOcMQFG-191" value="恰好和它在生产制造和运输过程中" style="text;html=1;align=center;verticalAlign=middle;resizable=0;points=[];autosize=1;" vertex="1" parent="1">
          <mxGeometry x="314" y="3030" width="200" height="20" as="geometry" />
        </mxCell>
        <mxCell id="_Ws0ghuLOrh_OVOcMQFG-192" value="按照自然率支付的地租、工资和利润相等" style="text;html=1;align=center;verticalAlign=middle;resizable=0;points=[];autosize=1;" vertex="1" parent="1">
          <mxGeometry x="315" y="3060" width="230" height="20" as="geometry" />
        </mxCell>
        <mxCell id="_Ws0ghuLOrh_OVOcMQFG-193" value="斯密把愿意支付商品自然价格的人 称为有效需求者" style="text;html=1;align=center;verticalAlign=middle;resizable=0;points=[];autosize=1;" vertex="1" parent="1">
          <mxGeometry x="309" y="3090" width="280" height="20" as="geometry" />
        </mxCell>
        <mxCell id="_Ws0ghuLOrh_OVOcMQFG-194" value="把他们的需求称为有效需求" style="text;html=1;align=center;verticalAlign=middle;resizable=0;points=[];autosize=1;" vertex="1" parent="1">
          <mxGeometry x="295" y="3130" width="160" height="20" as="geometry" />
        </mxCell>
        <mxCell id="_Ws0ghuLOrh_OVOcMQFG-195" value="虽然商品的市场价格都在不断向自然价格靠拢" style="text;html=1;align=center;verticalAlign=middle;resizable=0;points=[];autosize=1;" vertex="1" parent="1">
          <mxGeometry x="300" y="3170" width="260" height="20" as="geometry" />
        </mxCell>
        <mxCell id="_Ws0ghuLOrh_OVOcMQFG-196" value="但有时由于一些特殊的原因 商品的市场价格高于自然价格" style="text;html=1;align=center;verticalAlign=middle;resizable=0;points=[];autosize=1;" vertex="1" parent="1">
          <mxGeometry x="294" y="3210" width="320" height="20" as="geometry" />
        </mxCell>
        <mxCell id="_Ws0ghuLOrh_OVOcMQFG-197" value="出于利益最大化，商人们往往刻意隐瞒这种变化而获取巨大利润" style="text;html=1;align=center;verticalAlign=middle;resizable=0;points=[];autosize=1;" vertex="1" parent="1">
          <mxGeometry x="290" y="3260" width="350" height="20" as="geometry" />
        </mxCell>
        <mxCell id="_Ws0ghuLOrh_OVOcMQFG-198" value="第八：基于上述第六点的分析：斯密提出" style="text;html=1;align=center;verticalAlign=middle;resizable=0;points=[];autosize=1;" vertex="1" parent="1">
          <mxGeometry x="111" y="3340" width="230" height="20" as="geometry" />
        </mxCell>
        <mxCell id="_Ws0ghuLOrh_OVOcMQFG-199" value="在土地私有和资本积累尚未形成之前的原始社会状态下" style="text;html=1;align=center;verticalAlign=middle;resizable=0;points=[];autosize=1;" vertex="1" parent="1">
          <mxGeometry x="220" y="3370" width="300" height="20" as="geometry" />
        </mxCell>
        <mxCell id="_Ws0ghuLOrh_OVOcMQFG-200" value="全部的劳动生产物都归劳动者支配" style="text;html=1;align=center;verticalAlign=middle;resizable=0;points=[];autosize=1;" vertex="1" parent="1">
          <mxGeometry x="220" y="3400" width="200" height="20" as="geometry" />
        </mxCell>
        <mxCell id="_Ws0ghuLOrh_OVOcMQFG-201" value="既没有地主也没有资本家来分享他的劳动所得" style="text;html=1;align=center;verticalAlign=middle;resizable=0;points=[];autosize=1;" vertex="1" parent="1">
          <mxGeometry x="219" y="3430" width="260" height="20" as="geometry" />
        </mxCell>
        <mxCell id="_Ws0ghuLOrh_OVOcMQFG-202" value="而当土地私有和资本积累出现后，这种劳动者独享劳动成果的状态宣告结束" style="text;html=1;align=center;verticalAlign=middle;resizable=0;points=[];autosize=1;" vertex="1" parent="1">
          <mxGeometry x="215" y="3460" width="410" height="20" as="geometry" />
        </mxCell>
        <mxCell id="_Ws0ghuLOrh_OVOcMQFG-203" value="土地一旦私有化 地主就从劳动者在土地上生产出来的劳动成果分走一部分" style="text;html=1;align=center;verticalAlign=middle;resizable=0;points=[];autosize=1;" vertex="1" parent="1">
          <mxGeometry x="234" y="3500" width="400" height="20" as="geometry" />
        </mxCell>
        <mxCell id="_Ws0ghuLOrh_OVOcMQFG-204" value="同理在手动业和制造业，资本家因为需要劳动者全部工作完成以前预先支付原材料和工资" style="text;html=1;align=center;verticalAlign=middle;resizable=0;points=[];autosize=1;" vertex="1" parent="1">
          <mxGeometry x="214" y="3540" width="480" height="20" as="geometry" />
        </mxCell>
        <mxCell id="_Ws0ghuLOrh_OVOcMQFG-205" value="而资本家所分享的劳动所得就成为了利润" style="text;html=1;align=center;verticalAlign=middle;resizable=0;points=[];autosize=1;" vertex="1" parent="1">
          <mxGeometry x="225" y="3580" width="230" height="20" as="geometry" />
        </mxCell>
        <mxCell id="_Ws0ghuLOrh_OVOcMQFG-206" value="这里插播一句，这个点是马克思剩余价值论和斯密的不同之处" style="text;html=1;align=center;verticalAlign=middle;resizable=0;points=[];autosize=1;" vertex="1" parent="1">
          <mxGeometry x="80" y="3660" width="340" height="20" as="geometry" />
        </mxCell>
        <mxCell id="_Ws0ghuLOrh_OVOcMQFG-207" value="马克思认为亚当斯密所认为资本家理所因当想有的利润" style="text;html=1;align=center;verticalAlign=middle;resizable=0;points=[];autosize=1;" vertex="1" parent="1">
          <mxGeometry x="145" y="3710" width="300" height="20" as="geometry" />
        </mxCell>
        <mxCell id="_Ws0ghuLOrh_OVOcMQFG-208" value="只不过斯密并没有认为这个不合理需要政府干预" style="text;html=1;align=center;verticalAlign=middle;resizable=0;points=[];autosize=1;" vertex="1" parent="1">
          <mxGeometry x="156" y="3750" width="270" height="20" as="geometry" />
        </mxCell>
        <mxCell id="_Ws0ghuLOrh_OVOcMQFG-209" value="而马克思认为只有废除私有制才能解决资本家对劳动者的剥削" style="text;html=1;align=center;verticalAlign=middle;resizable=0;points=[];autosize=1;" vertex="1" parent="1">
          <mxGeometry x="130" y="3800" width="340" height="20" as="geometry" />
        </mxCell>
        <mxCell id="_Ws0ghuLOrh_OVOcMQFG-210" value="这一章节，斯密分析了这个客观存在的想象" style="text;html=1;align=center;verticalAlign=middle;resizable=0;points=[];autosize=1;" vertex="1" parent="1">
          <mxGeometry x="135" y="3840" width="240" height="20" as="geometry" />
        </mxCell>
        <mxCell id="_Ws0ghuLOrh_OVOcMQFG-211" value="并没有像马克思一样分析，到底地主和资本家享受这些劳动成果是否合理" style="text;html=1;align=center;verticalAlign=middle;resizable=0;points=[];autosize=1;" vertex="1" parent="1">
          <mxGeometry x="145" y="3860" width="400" height="20" as="geometry" />
        </mxCell>
        <mxCell id="_Ws0ghuLOrh_OVOcMQFG-212" value="不过斯密还是阐述了他对仅以工资作为收入的劳动者的同情" style="text;html=1;align=center;verticalAlign=middle;resizable=0;points=[];autosize=1;" vertex="1" parent="1">
          <mxGeometry x="139" y="3890" width="330" height="20" as="geometry" />
        </mxCell>
        <mxCell id="_Ws0ghuLOrh_OVOcMQFG-213" value="他写道：地主、农场主、制造业者和商人即使一个工人都不雇佣，通常也能靠已经积累的资本生活一到两年&lt;br&gt;而劳动者一旦事业，能维持生活一个星期的都不多见，一个月就更少，一年几乎没有" style="text;html=1;align=left;verticalAlign=middle;resizable=0;points=[];autosize=1;" vertex="1" parent="1">
          <mxGeometry x="144" y="3940" width="580" height="30" as="geometry" />
        </mxCell>
        <mxCell id="_Ws0ghuLOrh_OVOcMQFG-214" value="就长期的观察来看，雇主对劳动者的需求程度和劳动者对雇主的需求程度大致相同" style="text;html=1;align=center;verticalAlign=middle;resizable=0;points=[];autosize=1;" vertex="1" parent="1">
          <mxGeometry x="140" y="3990" width="450" height="20" as="geometry" />
        </mxCell>
        <mxCell id="_Ws0ghuLOrh_OVOcMQFG-215" value="只不过雇主的需求不像劳动者那样迫切" style="text;html=1;align=center;verticalAlign=middle;resizable=0;points=[];autosize=1;" vertex="1" parent="1">
          <mxGeometry x="140" y="4040" width="220" height="20" as="geometry" />
        </mxCell>
        <mxCell id="_Ws0ghuLOrh_OVOcMQFG-216" value="国富论第一篇" style="rounded=0;whiteSpace=wrap;html=1;" vertex="1" parent="1">
          <mxGeometry x="90" y="1570" width="120" height="60" as="geometry" />
        </mxCell>
        <mxCell id="_Ws0ghuLOrh_OVOcMQFG-218" value="他写到：各个劳动领域的工资以及各投资领域的利润都存在一个普通率" style="text;html=1;align=center;verticalAlign=middle;resizable=0;points=[];autosize=1;" vertex="1" parent="1">
          <mxGeometry x="314" y="2820" width="390" height="20" as="geometry" />
        </mxCell>
        <mxCell id="_Ws0ghuLOrh_OVOcMQFG-219" value="独立思考 实时求是" style="text;html=1;align=center;verticalAlign=middle;resizable=0;points=[];autosize=1;" vertex="1" parent="1">
          <mxGeometry x="124" y="4140" width="110" height="20" as="geometry" />
        </mxCell>
        <mxCell id="_Ws0ghuLOrh_OVOcMQFG-220" value="我们对很多古代思想保有崇高的敬意" style="text;html=1;align=center;verticalAlign=middle;resizable=0;points=[];autosize=1;" vertex="1" parent="1">
          <mxGeometry x="165" y="4170" width="210" height="20" as="geometry" />
        </mxCell>
        <mxCell id="_Ws0ghuLOrh_OVOcMQFG-221" value="他们改变了世界，但是我们只是在巨人的脚下俯视巨人" style="text;html=1;align=center;verticalAlign=middle;resizable=0;points=[];autosize=1;" vertex="1" parent="1">
          <mxGeometry x="169" y="4190" width="300" height="20" as="geometry" />
        </mxCell>
        <mxCell id="_Ws0ghuLOrh_OVOcMQFG-222" value="而不对它进行证伪，那思想就是死的" style="text;html=1;align=center;verticalAlign=middle;resizable=0;points=[];autosize=1;" vertex="1" parent="1">
          <mxGeometry x="170" y="4220" width="210" height="20" as="geometry" />
        </mxCell>
        <mxCell id="_Ws0ghuLOrh_OVOcMQFG-223" value="社会也会停止不前，甚至倒退" style="text;html=1;align=center;verticalAlign=middle;resizable=0;points=[];autosize=1;" vertex="1" parent="1">
          <mxGeometry x="180" y="4240" width="170" height="20" as="geometry" />
        </mxCell>
        <mxCell id="_Ws0ghuLOrh_OVOcMQFG-224" value="这也是我国罢黜百家独尊儒术 后 思想界一直没有大发展的原因" style="text;html=1;align=center;verticalAlign=middle;resizable=0;points=[];autosize=1;" vertex="1" parent="1">
          <mxGeometry x="161" y="4270" width="350" height="20" as="geometry" />
        </mxCell>
        <mxCell id="_Ws0ghuLOrh_OVOcMQFG-225" value="这一点在北宋变法派王安石和守旧派司马光" style="text;html=1;align=center;verticalAlign=middle;resizable=0;points=[];autosize=1;" vertex="1" parent="1">
          <mxGeometry x="170" y="4300" width="240" height="20" as="geometry" />
        </mxCell>
        <mxCell id="_Ws0ghuLOrh_OVOcMQFG-226" value="关于社会的变革争论中体现的淋漓尽致" style="text;html=1;align=center;verticalAlign=middle;resizable=0;points=[];autosize=1;" vertex="1" parent="1">
          <mxGeometry x="156" y="4330" width="220" height="20" as="geometry" />
        </mxCell>
        <mxCell id="_Ws0ghuLOrh_OVOcMQFG-227" value="尤其是司马光强加给王安石 欣然接受的“三不足理论”" style="text;html=1;align=center;verticalAlign=middle;resizable=0;points=[];autosize=1;" vertex="1" parent="1">
          <mxGeometry x="155" y="4370" width="290" height="20" as="geometry" />
        </mxCell>
        <mxCell id="_Ws0ghuLOrh_OVOcMQFG-228" value="“天变不足畏，祖宗不足法，人言不足恤”" style="text;html=1;align=center;verticalAlign=middle;resizable=0;points=[];autosize=1;" vertex="1" parent="1">
          <mxGeometry x="156" y="4410" width="230" height="20" as="geometry" />
        </mxCell>
        <mxCell id="_Ws0ghuLOrh_OVOcMQFG-229" value="在司马光眼里 孔夫子是圣人 怎么会出错呢" style="text;html=1;align=center;verticalAlign=middle;resizable=0;points=[];autosize=1;" vertex="1" parent="1">
          <mxGeometry x="180" y="4450" width="240" height="20" as="geometry" />
        </mxCell>
        <mxCell id="_Ws0ghuLOrh_OVOcMQFG-230" value="王安石对抗老祖宗就是大逆不道" style="text;html=1;align=center;verticalAlign=middle;resizable=0;points=[];autosize=1;" vertex="1" parent="1">
          <mxGeometry x="180" y="4470" width="180" height="20" as="geometry" />
        </mxCell>
        <mxCell id="_Ws0ghuLOrh_OVOcMQFG-231" value="42年后 金军南下，靖康之役，俘虏徽钦二宗，北宋亡" style="text;html=1;align=center;verticalAlign=middle;resizable=0;points=[];autosize=1;" vertex="1" parent="1">
          <mxGeometry x="150" y="4500" width="300" height="20" as="geometry" />
        </mxCell>
        <mxCell id="_Ws0ghuLOrh_OVOcMQFG-232" value="随着1640年英国爆发资产阶级革命，西方原先重商主义制度制约了国家发展" style="text;html=1;align=center;verticalAlign=middle;resizable=0;points=[];autosize=1;" vertex="1" parent="1">
          <mxGeometry x="110" y="4540" width="410" height="20" as="geometry" />
        </mxCell>
        <mxCell id="_Ws0ghuLOrh_OVOcMQFG-233" value="新兴的资产阶级需要全新的一套理念 来指导建立国家" style="text;html=1;align=center;verticalAlign=middle;resizable=0;points=[];autosize=1;" vertex="1" parent="1">
          <mxGeometry x="110" y="4570" width="290" height="20" as="geometry" />
        </mxCell>
        <mxCell id="_Ws0ghuLOrh_OVOcMQFG-234" value="1662年，威廉配第 发表了《赋税论》开创信贷经济经济学，提出劳动价值论，并视地租及其派生收入为赋税的最终源泉" style="text;html=1;align=center;verticalAlign=middle;resizable=0;points=[];autosize=1;" vertex="1" parent="1">
          <mxGeometry x="105" y="4590" width="650" height="20" as="geometry" />
        </mxCell>
        <mxCell id="_Ws0ghuLOrh_OVOcMQFG-235" value="其后在1705年，重农派代表不阿吉尔贝尔批评重商主义并提出，农业才能创造财富" style="text;html=1;align=center;verticalAlign=middle;resizable=0;points=[];autosize=1;" vertex="1" parent="1">
          <mxGeometry x="60" y="4610" width="450" height="20" as="geometry" />
        </mxCell>
        <mxCell id="_Ws0ghuLOrh_OVOcMQFG-236" value="1758年，另一位法国重农学派代表魁奈发表《经济表》，提出货币流通仅仅是资本流通的要素，是要为再生产过程服务，受生产制约" style="text;html=1;align=center;verticalAlign=middle;resizable=0;points=[];autosize=1;" vertex="1" parent="1">
          <mxGeometry x="50" y="4630" width="710" height="20" as="geometry" />
        </mxCell>
        <mxCell id="_Ws0ghuLOrh_OVOcMQFG-237" value="从而总结了重商主义政策把国家致富之路放在流通领域的教训，重新提出以生产领域作为富国的根基" style="text;html=1;align=center;verticalAlign=middle;resizable=0;points=[];autosize=1;" vertex="1" parent="1">
          <mxGeometry x="40" y="4660" width="540" height="20" as="geometry" />
        </mxCell>
        <mxCell id="_Ws0ghuLOrh_OVOcMQFG-238" value="《经济表》再次论证了地主阶级是不事生产、不劳而获的阶级，因此得出十分重要的结论：地主阶级终日游手好闲" style="text;html=1;align=center;verticalAlign=middle;resizable=0;points=[];autosize=1;" vertex="1" parent="1">
          <mxGeometry x="36" y="4690" width="620" height="20" as="geometry" />
        </mxCell>
        <mxCell id="_Ws0ghuLOrh_OVOcMQFG-239" value="却以地租的方式占有纯产品，那么他们就应该担负起国家的全部税收" style="text;html=1;align=center;verticalAlign=middle;resizable=0;points=[];autosize=1;" vertex="1" parent="1">
          <mxGeometry x="40" y="4720" width="380" height="20" as="geometry" />
        </mxCell>
        <mxCell id="_Ws0ghuLOrh_OVOcMQFG-240" value="劳动阶级就应该被免除纳税的义务，以便更好的维持再生产的过程" style="text;html=1;align=center;verticalAlign=middle;resizable=0;points=[];autosize=1;" vertex="1" parent="1">
          <mxGeometry x="46" y="4750" width="360" height="20" as="geometry" />
        </mxCell>
        <mxCell id="_Ws0ghuLOrh_OVOcMQFG-241" value="不仅如此，国家还应该取消对他们的干预政策 放弃工业法规" style="text;html=1;align=center;verticalAlign=middle;resizable=0;points=[];autosize=1;" vertex="1" parent="1">
          <mxGeometry x="45" y="4780" width="330" height="20" as="geometry" />
        </mxCell>
        <mxCell id="_Ws0ghuLOrh_OVOcMQFG-242" value="废除行会制度，倡导自由竞争和自由对外贸易" style="text;html=1;align=center;verticalAlign=middle;resizable=0;points=[];autosize=1;" vertex="1" parent="1">
          <mxGeometry x="46" y="4810" width="260" height="20" as="geometry" />
        </mxCell>
        <mxCell id="_Ws0ghuLOrh_OVOcMQFG-243" value="对于魁奈的部分观点，马克思是持批判态度的" style="text;html=1;align=center;verticalAlign=middle;resizable=0;points=[];autosize=1;" vertex="1" parent="1">
          <mxGeometry x="50" y="4840" width="260" height="20" as="geometry" />
        </mxCell>
        <mxCell id="_Ws0ghuLOrh_OVOcMQFG-244" value="马克思在《资本论》 中就指出，重农学派名为重农" style="text;html=1;align=center;verticalAlign=middle;resizable=0;points=[];autosize=1;" vertex="1" parent="1">
          <mxGeometry x="50" y="4870" width="280" height="20" as="geometry" />
        </mxCell>
        <mxCell id="_Ws0ghuLOrh_OVOcMQFG-245" value="魁奈学说明显的反应出早期资产阶级学说的反封建特点，他提出的不干预工商业的理论 就是经济自由的原则" style="text;html=1;align=center;verticalAlign=middle;resizable=0;points=[];autosize=1;" vertex="1" parent="1">
          <mxGeometry x="350" y="4870" width="580" height="20" as="geometry" />
        </mxCell>
        <mxCell id="_Ws0ghuLOrh_OVOcMQFG-246" value="这正是当时资产阶级在经济上的追求理想" style="text;html=1;align=center;verticalAlign=middle;resizable=0;points=[];autosize=1;" vertex="1" parent="1">
          <mxGeometry x="350" y="4900" width="230" height="20" as="geometry" />
        </mxCell>
        <mxCell id="_Ws0ghuLOrh_OVOcMQFG-247" value="1776年英国海关的亚当斯密的儿子亚当斯密，发表《国富论》，瓦特则用这把钥匙开启了工业革命的大门" style="text;html=1;align=center;verticalAlign=middle;resizable=0;points=[];autosize=1;" vertex="1" parent="1">
          <mxGeometry x="50" y="4950" width="570" height="20" as="geometry" />
        </mxCell>
        <mxCell id="_Ws0ghuLOrh_OVOcMQFG-248" value="亚当斯密则用一只“看不见的手”为工业革命缔造了一个新的秩序" style="text;html=1;align=center;verticalAlign=middle;resizable=0;points=[];autosize=1;" vertex="1" parent="1">
          <mxGeometry x="54" y="4980" width="350" height="20" as="geometry" />
        </mxCell>
        <mxCell id="_Ws0ghuLOrh_OVOcMQFG-249" value="作为炎黄子孙我们，对于西方社会一举崛起称霸世界两百多年的理论源泉 一窥究竟" style="text;html=1;align=center;verticalAlign=middle;resizable=0;points=[];autosize=1;" vertex="1" parent="1">
          <mxGeometry x="54" y="5030" width="450" height="20" as="geometry" />
        </mxCell>
        <mxCell id="_Ws0ghuLOrh_OVOcMQFG-250" value="人大教授 金灿荣 说 西方社会在近代独步天下" style="text;html=1;align=center;verticalAlign=middle;resizable=0;points=[];autosize=1;" vertex="1" parent="1">
          <mxGeometry x="46" y="5060" width="250" height="20" as="geometry" />
        </mxCell>
        <mxCell id="_Ws0ghuLOrh_OVOcMQFG-251" value="打败天下无敌手的原因，就是西方比我们东方提前进入工业革命，掌握化" style="text;html=1;align=center;verticalAlign=middle;resizable=0;points=[];autosize=1;" vertex="1" parent="1">
          <mxGeometry x="20" y="5090" width="400" height="20" as="geometry" />
        </mxCell>
        <mxCell id="_Ws0ghuLOrh_OVOcMQFG-252" value="工业打农业 降维打击 没商量" style="text;html=1;align=center;verticalAlign=middle;resizable=0;points=[];autosize=1;" vertex="1" parent="1">
          <mxGeometry x="85" y="5120" width="170" height="20" as="geometry" />
        </mxCell>
        <mxCell id="_Ws0ghuLOrh_OVOcMQFG-253" value="资本利润" style="text;html=1;align=center;verticalAlign=middle;resizable=0;points=[];autosize=1;" vertex="1" parent="1">
          <mxGeometry x="30" y="5160" width="60" height="20" as="geometry" />
        </mxCell>
        <mxCell id="_Ws0ghuLOrh_OVOcMQFG-254" value="斯密提出：和劳动工资一样，资本利润的增加或者减少都取决于社会财富的增减" style="text;html=1;align=center;verticalAlign=middle;resizable=0;points=[];autosize=1;" vertex="1" parent="1">
          <mxGeometry x="55" y="5190" width="440" height="20" as="geometry" />
        </mxCell>
        <mxCell id="_Ws0ghuLOrh_OVOcMQFG-255" value="资本的增加，一方面使得工资提高，另一方面使得利润减少" style="text;html=1;align=center;verticalAlign=middle;resizable=0;points=[];autosize=1;" vertex="1" parent="1">
          <mxGeometry x="54" y="5230" width="330" height="20" as="geometry" />
        </mxCell>
        <mxCell id="_Ws0ghuLOrh_OVOcMQFG-256" value="他举例：如果有许多富商投资同一行业，他们相互竞争自然会促使这一行业的利润减少" style="text;html=1;align=center;verticalAlign=middle;resizable=0;points=[];autosize=1;" vertex="1" parent="1">
          <mxGeometry x="69" y="5261" width="470" height="20" as="geometry" />
        </mxCell>
        <mxCell id="_Ws0ghuLOrh_OVOcMQFG-257" value="同一社会中 如果各种行业的资本都这样增加了，那么这种竞争必将使所有行业的利润趋于减少" style="text;html=1;align=center;verticalAlign=middle;resizable=0;points=[];autosize=1;" vertex="1" parent="1">
          <mxGeometry x="120" y="5290" width="510" height="20" as="geometry" />
        </mxCell>
        <mxCell id="_Ws0ghuLOrh_OVOcMQFG-258" value="斯密指出：即使对特定地方在特定时间的劳动平均工资也无法给出具体数字" style="text;html=1;align=center;verticalAlign=middle;resizable=0;points=[];autosize=1;" vertex="1" parent="1">
          <mxGeometry x="54" y="5320" width="410" height="20" as="geometry" />
        </mxCell>
        <mxCell id="_Ws0ghuLOrh_OVOcMQFG-259" value="同理要想知道一个行业的平均利润更是难上加难" style="text;html=1;align=center;verticalAlign=middle;resizable=0;points=[];autosize=1;" vertex="1" parent="1">
          <mxGeometry x="115" y="5340" width="270" height="20" as="geometry" />
        </mxCell>
        <mxCell id="_Ws0ghuLOrh_OVOcMQFG-260" value="以现代人的视角 我们经常能从国家统计局 得到平均工资或者行业平均利润&amp;nbsp; 得益于现在互联网发展&amp;nbsp;" style="text;html=1;align=center;verticalAlign=middle;resizable=0;points=[];autosize=1;" vertex="1" parent="1">
          <mxGeometry x="49" y="5380" width="540" height="20" as="geometry" />
        </mxCell>
        <mxCell id="_Ws0ghuLOrh_OVOcMQFG-261" value="斯密指出：虽然无法获取到平均工资 或者平均 利润 但是在货币的利息上能得出大概，收益越高的地方通常利息越高，反之依然" style="text;html=1;align=center;verticalAlign=middle;resizable=0;points=[];autosize=1;" vertex="1" parent="1">
          <mxGeometry x="50" y="5430" width="690" height="20" as="geometry" />
        </mxCell>
        <mxCell id="_Ws0ghuLOrh_OVOcMQFG-262" value="由此斯密断定，一个国家资本的一般利润，必然会随着市场一般利率的变动而变动" style="text;html=1;align=center;verticalAlign=middle;resizable=0;points=[];autosize=1;" vertex="1" parent="1">
          <mxGeometry x="55" y="5460" width="450" height="20" as="geometry" />
        </mxCell>
        <mxCell id="_Ws0ghuLOrh_OVOcMQFG-263" value="利率降低 利润也会降低；利率升高 利润自然会升高" style="text;html=1;align=center;verticalAlign=middle;resizable=0;points=[];autosize=1;" vertex="1" parent="1">
          <mxGeometry x="545" y="5460" width="290" height="20" as="geometry" />
        </mxCell>
        <mxCell id="_Ws0ghuLOrh_OVOcMQFG-264" value="随着国家财富的增长 劳动者的工资也在不断增加" style="text;html=1;align=center;verticalAlign=middle;resizable=0;points=[];autosize=1;" vertex="1" parent="1">
          <mxGeometry x="55" y="5490" width="270" height="20" as="geometry" />
        </mxCell>
        <mxCell id="_Ws0ghuLOrh_OVOcMQFG-265" value="而同时绝大多数 工商业的资本利润却在不断减少" style="text;html=1;align=center;verticalAlign=middle;resizable=0;points=[];autosize=1;" vertex="1" parent="1">
          <mxGeometry x="345" y="5490" width="270" height="20" as="geometry" />
        </mxCell>
        <mxCell id="_Ws0ghuLOrh_OVOcMQFG-266" value="反之贫穷的国家由于缺少充足资本来雇佣全部劳动力 为了获得职业" style="text;html=1;align=center;verticalAlign=middle;resizable=0;points=[];autosize=1;" vertex="1" parent="1">
          <mxGeometry x="50" y="5530" width="370" height="20" as="geometry" />
        </mxCell>
        <mxCell id="_Ws0ghuLOrh_OVOcMQFG-267" value="劳动者必然相互竞争 导致劳动工资降低 并使资本利润增加" style="text;html=1;align=center;verticalAlign=middle;resizable=0;points=[];autosize=1;" vertex="1" parent="1">
          <mxGeometry x="54" y="5560" width="320" height="20" as="geometry" />
        </mxCell>
        <mxCell id="_Ws0ghuLOrh_OVOcMQFG-268" value="由于客观条件限制 斯密得出结论 通常也是观察当时世界的运行 现象而得出 但是作为一门学科 并不严谨" style="text;html=1;align=center;verticalAlign=middle;resizable=0;points=[];autosize=1;" vertex="1" parent="1">
          <mxGeometry x="41" y="5590" width="560" height="20" as="geometry" />
        </mxCell>
        <mxCell id="_Ws0ghuLOrh_OVOcMQFG-269" value="科学需要进过反复论证 直到一定限度内找不到反例" style="text;html=1;align=center;verticalAlign=middle;resizable=0;points=[];autosize=1;" vertex="1" parent="1">
          <mxGeometry x="39" y="5620" width="280" height="20" as="geometry" />
        </mxCell>
        <mxCell id="_Ws0ghuLOrh_OVOcMQFG-270" value="而这个理论在这个限度内有效&amp;nbsp;" style="text;html=1;align=center;verticalAlign=middle;resizable=0;points=[];autosize=1;" vertex="1" parent="1">
          <mxGeometry x="280" y="5650" width="170" height="20" as="geometry" />
        </mxCell>
        <mxCell id="_Ws0ghuLOrh_OVOcMQFG-271" value="就像经典物理学中的牛顿万有引力" style="text;html=1;align=center;verticalAlign=middle;resizable=0;points=[];autosize=1;" vertex="1" parent="1">
          <mxGeometry x="34" y="5680" width="200" height="20" as="geometry" />
        </mxCell>
        <mxCell id="_Ws0ghuLOrh_OVOcMQFG-272" value="在低速条件下 经典物理基本可以用于客观现象解释 但是在物体接近光速的情况下 经典物理在世纪观察中就会出现偏差" style="text;html=1;align=center;verticalAlign=middle;resizable=0;points=[];autosize=1;" vertex="1" parent="1">
          <mxGeometry x="41" y="5700" width="640" height="20" as="geometry" />
        </mxCell>
        <mxCell id="_Ws0ghuLOrh_OVOcMQFG-273" value="而在微观层面，经典物理同样也无法解释客观规律 而不得不引入量子力学" style="text;html=1;align=center;verticalAlign=middle;resizable=0;points=[];autosize=1;" vertex="1" parent="1">
          <mxGeometry x="35" y="5720" width="400" height="20" as="geometry" />
        </mxCell>
        <mxCell id="_Ws0ghuLOrh_OVOcMQFG-274" value="斯密的论点" style="text;html=1;align=center;verticalAlign=middle;resizable=0;points=[];autosize=1;" vertex="1" parent="1">
          <mxGeometry x="20" y="5750" width="80" height="20" as="geometry" />
        </mxCell>
        <mxCell id="_Ws0ghuLOrh_OVOcMQFG-275" value="资本的增加使工资增加，同时使利润减少" style="text;html=1;align=center;verticalAlign=middle;resizable=0;points=[];autosize=1;" vertex="1" parent="1">
          <mxGeometry x="110" y="5750" width="230" height="20" as="geometry" />
        </mxCell>
        <mxCell id="_Ws0ghuLOrh_OVOcMQFG-276" value="通过观察现状可知：富士康建设新生产线，工人的工资也会随着资本的增加而增加吗？" style="text;html=1;align=center;verticalAlign=middle;resizable=0;points=[];autosize=1;" vertex="1" parent="1">
          <mxGeometry x="20" y="5770" width="470" height="20" as="geometry" />
        </mxCell>
        <mxCell id="_Ws0ghuLOrh_OVOcMQFG-277" value="在乔布斯的带领下，苹果公司将大量资本投资iphone4的研发" style="text;html=1;align=center;verticalAlign=middle;resizable=0;points=[];autosize=1;" vertex="1" parent="1">
          <mxGeometry x="114" y="5790" width="330" height="20" as="geometry" />
        </mxCell>
        <mxCell id="_Ws0ghuLOrh_OVOcMQFG-278" value="苹果的利润减少了吗" style="text;html=1;align=center;verticalAlign=middle;resizable=0;points=[];autosize=1;" vertex="1" parent="1">
          <mxGeometry x="440" y="5790" width="120" height="20" as="geometry" />
        </mxCell>
        <mxCell id="_Ws0ghuLOrh_OVOcMQFG-279" value="资本的增加与工资的增加以及利润的增加 与否之间没有必然的联系" style="text;html=1;align=center;verticalAlign=middle;resizable=0;points=[];autosize=1;" vertex="1" parent="1">
          <mxGeometry x="49" y="5840" width="370" height="20" as="geometry" />
        </mxCell>
        <mxCell id="_Ws0ghuLOrh_OVOcMQFG-280" value="微观层面如此，宏观层面上" style="text;html=1;align=center;verticalAlign=middle;resizable=0;points=[];autosize=1;" vertex="1" parent="1">
          <mxGeometry x="20" y="5880" width="160" height="20" as="geometry" />
        </mxCell>
        <mxCell id="_Ws0ghuLOrh_OVOcMQFG-281" value="美国的财富远高于墨西哥，那是否为美国的各个行业平均工资都高于墨西哥你呢" style="text;html=1;align=center;verticalAlign=middle;resizable=0;points=[];autosize=1;" vertex="1" parent="1">
          <mxGeometry x="214" y="5880" width="440" height="20" as="geometry" />
        </mxCell>
        <mxCell id="_Ws0ghuLOrh_OVOcMQFG-282" value="当然 主要斯密时期还没有“比较优势”的概念" style="text;html=1;align=center;verticalAlign=middle;resizable=0;points=[];autosize=1;" vertex="1" parent="1">
          <mxGeometry x="39" y="5930" width="240" height="20" as="geometry" />
        </mxCell>
        <mxCell id="_Ws0ghuLOrh_OVOcMQFG-283" value="比较优势理论：国际贸易的基础是生产技术的相对差别，以及由此产生的相对成本差别" style="text;html=1;align=center;verticalAlign=middle;resizable=0;points=[];autosize=1;" vertex="1" parent="1">
          <mxGeometry x="95" y="5960" width="470" height="20" as="geometry" />
        </mxCell>
        <mxCell id="_Ws0ghuLOrh_OVOcMQFG-284" value="英国古典经济学家 大卫.李嘉图" style="text;html=1;align=center;verticalAlign=middle;resizable=0;points=[];autosize=1;" vertex="1" parent="1">
          <mxGeometry x="105" y="5990" width="180" height="20" as="geometry" />
        </mxCell>
        <mxCell id="_Ws0ghuLOrh_OVOcMQFG-285" value="基于斯密的上诉观点，他提出随着财富、人口的增加和劳动的改良，利息下降了，但劳动工资却没有随着资本利润的减少而下降" style="text;html=1;align=center;verticalAlign=middle;resizable=0;points=[];autosize=1;" vertex="1" parent="1">
          <mxGeometry x="69" y="6020" width="690" height="20" as="geometry" />
        </mxCell>
        <mxCell id="_Ws0ghuLOrh_OVOcMQFG-286" value="无论利润如何，对劳动的需求都会随着资本的增加而增加" style="text;html=1;align=center;verticalAlign=middle;resizable=0;points=[];autosize=1;" vertex="1" parent="1">
          <mxGeometry x="90" y="6050" width="320" height="20" as="geometry" />
        </mxCell>
        <mxCell id="_Ws0ghuLOrh_OVOcMQFG-287" value="利润减少了，资本不仅继续增加 而且还比原来增加的更快" style="text;html=1;align=center;verticalAlign=middle;resizable=0;points=[];autosize=1;" vertex="1" parent="1">
          <mxGeometry x="56" y="6080" width="320" height="20" as="geometry" />
        </mxCell>
        <mxCell id="_Ws0ghuLOrh_OVOcMQFG-288" value="当时斯密是基于当时社会背景，当时大英帝国海外扩张殖民地时代" style="text;html=1;align=center;verticalAlign=middle;resizable=0;points=[];autosize=1;" vertex="1" parent="1">
          <mxGeometry x="-110" y="6130" width="360" height="20" as="geometry" />
        </mxCell>
      </root>
    </mxGraphModel>
  </diagram>
</mxfile>
